M48
; DRILL file {KiCad (6.0.1)} date Fri Dec  2 15:23:17 2022
; FORMAT={-:-/ absolute / metric / decimal}
; #@! TF.CreationDate,2022-12-02T15:23:17+01:00
; #@! TF.GenerationSoftware,Kicad,Pcbnew,(6.0.1)
; #@! TF.FileFunction,NonPlated,1,2,NPTH
FMAT,2
METRIC
; #@! TA.AperFunction,NonPlated,NPTH,ComponentDrill
T1C1.750
; #@! TA.AperFunction,NonPlated,NPTH,ComponentDrill
T2C3.048
; #@! TA.AperFunction,NonPlated,NPTH,ComponentDrill
T3C3.500
; #@! TA.AperFunction,NonPlated,NPTH,ComponentDrill
T4C3.988
; #@! TA.AperFunction,NonPlated,NPTH,ComponentDrill
T5C4.000
%
G90
G05
T1
X32.226Y-77.787
X32.226Y-134.938
X34.608Y-96.837
X34.608Y-134.938
X39.37Y-115.887
X42.386Y-77.787
X42.386Y-134.938
X44.767Y-96.837
X44.767Y-134.938
X48.895Y-134.938
X49.53Y-115.887
X51.276Y-77.787
X51.276Y-134.938
X53.657Y-134.938
X56.039Y-96.837
X56.039Y-134.938
X59.055Y-134.938
X60.801Y-134.938
X61.436Y-77.787
X61.436Y-134.938
X63.817Y-134.938
X65.564Y-115.887
X66.199Y-96.837
X66.199Y-134.938
X70.326Y-77.787
X70.326Y-134.938
X70.961Y-134.938
X72.707Y-134.938
X75.089Y-96.837
X75.089Y-134.938
X75.724Y-115.887
X77.47Y-134.938
X80.486Y-77.787
X80.486Y-134.938
X82.867Y-134.938
X84.614Y-115.887
X85.249Y-96.837
X85.249Y-134.938
X86.995Y-134.938
X87.63Y-134.938
X89.376Y-77.787
X89.376Y-134.938
X94.139Y-96.837
X94.774Y-115.887
X97.155Y-134.938
X99.536Y-77.787
X99.536Y-134.938
X103.664Y-115.887
X104.299Y-96.837
X106.045Y-134.938
X108.426Y-77.787
X113.189Y-96.837
X113.824Y-115.887
X116.205Y-134.938
X118.586Y-77.787
X120.332Y-134.938
X122.714Y-115.887
X123.349Y-96.837
X127.476Y-77.787
X130.493Y-134.938
X132.239Y-96.837
X132.874Y-115.887
X137.001Y-134.938
X137.636Y-77.787
X141.764Y-115.887
X141.764Y-134.938
X142.399Y-96.837
X144.145Y-134.938
X146.526Y-77.787
X147.161Y-134.938
X148.907Y-134.938
X151.289Y-96.837
X151.924Y-115.887
X151.924Y-134.938
X154.305Y-134.938
X156.686Y-77.787
X159.067Y-134.938
X160.814Y-115.887
X160.814Y-134.938
X161.449Y-96.837
X165.576Y-77.787
X170.339Y-96.837
X170.974Y-115.887
X170.974Y-134.938
X172.72Y-134.938
X175.736Y-77.787
X179.864Y-115.887
X180.499Y-96.837
X182.88Y-134.938
X184.626Y-77.787
X189.389Y-96.837
X190.024Y-115.887
X191.77Y-134.938
X194.151Y-134.938
X194.786Y-77.787
X198.914Y-115.887
X199.549Y-96.837
X201.93Y-134.938
X203.676Y-77.787
X204.311Y-134.938
X208.439Y-96.837
X209.074Y-115.887
X213.836Y-77.787
X215.582Y-134.938
X217.964Y-115.887
X217.964Y-134.938
X217.964Y-134.938
X218.599Y-96.837
X222.726Y-77.787
X225.742Y-134.938
X227.489Y-96.837
X228.124Y-115.887
X228.124Y-134.938
X228.124Y-134.938
X232.886Y-77.787
X237.014Y-115.887
X237.014Y-134.938
X237.649Y-96.837
X239.395Y-134.938
X247.174Y-115.887
X247.174Y-134.938
X248.92Y-77.787
X248.92Y-134.938
X249.555Y-134.938
X251.301Y-96.837
X256.064Y-115.887
X256.064Y-134.938
X259.08Y-77.787
X259.08Y-134.938
X261.461Y-96.837
X266.224Y-115.887
X266.224Y-134.938
T2
X89.694Y-141.922
X99.187Y-141.922
X99.225Y-141.922
X103.987Y-141.922
X113.474Y-141.922
X123.063Y-141.922
X137.35Y-141.922
X153.956Y-141.922
X165.862Y-141.922
X177.832Y-141.922
X189.738Y-141.922
X199.225Y-141.922
X203.987Y-141.922
X203.994Y-141.922
T3
X32.781Y-48.262
X32.781Y-63.262
X50.403Y-87.312
X59.797Y-125.412
X146.844Y-87.312
X232.569Y-125.412
X242.225Y-87.312
X265.669Y-48.262
X265.669Y-63.262
T4
X89.694Y-126.712
X99.187Y-126.712
X99.225Y-126.712
X103.987Y-126.712
X113.474Y-126.712
X123.063Y-126.712
X137.35Y-126.712
X153.956Y-126.712
X165.862Y-126.712
X177.832Y-126.712
X189.738Y-126.712
X199.225Y-126.712
X203.987Y-126.712
X203.994Y-126.712
T5
X37.306Y-77.787
X37.306Y-134.938
X39.688Y-96.837
X39.688Y-134.938
X44.45Y-115.887
X53.975Y-134.938
X56.356Y-77.787
X56.356Y-134.938
X58.737Y-134.938
X61.119Y-96.837
X61.119Y-134.938
X65.881Y-134.938
X70.644Y-115.887
X75.406Y-77.787
X75.406Y-134.938
X77.787Y-134.938
X80.169Y-96.837
X80.169Y-134.938
X82.55Y-134.938
X89.694Y-115.887
X92.075Y-134.938
X94.456Y-77.787
X94.456Y-134.938
X99.219Y-96.837
X108.744Y-115.887
X111.125Y-134.938
X113.506Y-77.787
X118.269Y-96.837
X125.412Y-134.938
X127.794Y-115.887
X132.556Y-77.787
X137.319Y-96.837
X142.081Y-134.938
X146.844Y-115.887
X146.844Y-134.938
X149.225Y-134.938
X151.606Y-77.787
X153.987Y-134.938
X156.369Y-96.837
X165.894Y-115.887
X165.894Y-134.938
X170.656Y-77.787
X175.419Y-96.837
X177.8Y-134.938
X184.944Y-115.887
X189.706Y-77.787
X194.469Y-96.837
X196.85Y-134.938
X199.231Y-134.938
X203.994Y-115.887
X208.756Y-77.787
X213.519Y-96.837
X220.662Y-134.938
X223.044Y-115.887
X223.044Y-134.938
X223.044Y-134.938
X227.806Y-77.787
X232.569Y-96.837
X242.094Y-115.887
X242.094Y-134.938
X244.475Y-134.938
X254.0Y-77.787
X254.0Y-134.938
X256.381Y-96.837
X261.144Y-115.887
X261.144Y-134.938
T0
M30
