G04 #@! TF.GenerationSoftware,KiCad,Pcbnew,(6.0.1)*
G04 #@! TF.CreationDate,2022-12-02T15:22:06+01:00*
G04 #@! TF.ProjectId,pcb,7063622e-6b69-4636-9164-5f7063625858,rev?*
G04 #@! TF.SameCoordinates,Original*
G04 #@! TF.FileFunction,Soldermask,Top*
G04 #@! TF.FilePolarity,Negative*
%FSLAX46Y46*%
G04 Gerber Fmt 4.6, Leading zero omitted, Abs format (unit mm)*
G04 Created by KiCad (PCBNEW (6.0.1)) date 2022-12-02 15:22:06*
%MOMM*%
%LPD*%
G01*
G04 APERTURE LIST*
%ADD10C,0.710000*%
%ADD11C,0.150000*%
%ADD12C,0.200000*%
%ADD13C,0.500000*%
%ADD14C,1.550000*%
%ADD15C,4.000000*%
%ADD16C,1.750000*%
%ADD17R,1.600000X1.600000*%
%ADD18O,1.600000X1.600000*%
%ADD19C,3.500000*%
%ADD20C,1.400000*%
%ADD21O,1.400000X1.400000*%
%ADD22C,3.048000*%
%ADD23C,3.987800*%
%ADD24O,1.700000X1.700000*%
%ADD25R,1.700000X1.700000*%
%ADD26C,1.600000*%
%ADD27C,0.650000*%
%ADD28O,0.900000X1.700000*%
%ADD29O,0.900000X2.400000*%
%ADD30C,1.500000*%
%ADD31R,1.200000X1.200000*%
%ADD32C,1.200000*%
%ADD33C,2.000000*%
%ADD34R,1.800000X1.800000*%
%ADD35C,1.800000*%
G04 APERTURE END LIST*
D10*
X213715000Y-50800000D02*
G75*
G03*
X213715000Y-50800000I-355000J0D01*
G01*
D11*
X85725000Y-47625000D02*
X38735000Y-47625000D01*
X38735000Y-47625000D02*
X38735000Y-48895000D01*
X38735000Y-48895000D02*
X85725000Y-48895000D01*
X85725000Y-48895000D02*
X85725000Y-47625000D01*
G36*
X85725000Y-47625000D02*
G01*
X38735000Y-47625000D01*
X38735000Y-48895000D01*
X85725000Y-48895000D01*
X85725000Y-47625000D01*
G37*
X85725000Y-50165000D02*
X38735000Y-50165000D01*
X38735000Y-50165000D02*
X38735000Y-51435000D01*
X38735000Y-51435000D02*
X85725000Y-51435000D01*
X85725000Y-51435000D02*
X85725000Y-50165000D01*
G36*
X85725000Y-50165000D02*
G01*
X38735000Y-50165000D01*
X38735000Y-51435000D01*
X85725000Y-51435000D01*
X85725000Y-50165000D01*
G37*
X259715000Y-45085000D02*
X213360000Y-45085000D01*
X213360000Y-45085000D02*
X213360000Y-46355000D01*
X213360000Y-46355000D02*
X259715000Y-46355000D01*
X259715000Y-46355000D02*
X259715000Y-45085000D01*
G36*
X259715000Y-45085000D02*
G01*
X213360000Y-45085000D01*
X213360000Y-46355000D01*
X259715000Y-46355000D01*
X259715000Y-45085000D01*
G37*
X85725000Y-45085000D02*
X38735000Y-45085000D01*
X38735000Y-45085000D02*
X38735000Y-46355000D01*
X38735000Y-46355000D02*
X85725000Y-46355000D01*
X85725000Y-46355000D02*
X85725000Y-45085000D01*
G36*
X85725000Y-45085000D02*
G01*
X38735000Y-45085000D01*
X38735000Y-46355000D01*
X85725000Y-46355000D01*
X85725000Y-45085000D01*
G37*
D10*
X39090000Y-48260000D02*
G75*
G03*
X39090000Y-48260000I-355000J0D01*
G01*
X260070000Y-45720000D02*
G75*
G03*
X260070000Y-45720000I-355000J0D01*
G01*
X260070000Y-50800000D02*
G75*
G03*
X260070000Y-50800000I-355000J0D01*
G01*
X213715000Y-45720000D02*
G75*
G03*
X213715000Y-45720000I-355000J0D01*
G01*
X39090000Y-50800000D02*
G75*
G03*
X39090000Y-50800000I-355000J0D01*
G01*
X86080000Y-48260000D02*
G75*
G03*
X86080000Y-48260000I-355000J0D01*
G01*
D11*
X259715000Y-50165000D02*
X213360000Y-50165000D01*
X213360000Y-50165000D02*
X213360000Y-51435000D01*
X213360000Y-51435000D02*
X259715000Y-51435000D01*
X259715000Y-51435000D02*
X259715000Y-50165000D01*
G36*
X259715000Y-50165000D02*
G01*
X213360000Y-50165000D01*
X213360000Y-51435000D01*
X259715000Y-51435000D01*
X259715000Y-50165000D01*
G37*
D10*
X86080000Y-45720000D02*
G75*
G03*
X86080000Y-45720000I-355000J0D01*
G01*
X260070000Y-48260000D02*
G75*
G03*
X260070000Y-48260000I-355000J0D01*
G01*
X39090000Y-45720000D02*
G75*
G03*
X39090000Y-45720000I-355000J0D01*
G01*
D11*
X259715000Y-47625000D02*
X213360000Y-47625000D01*
X213360000Y-47625000D02*
X213360000Y-48895000D01*
X213360000Y-48895000D02*
X259715000Y-48895000D01*
X259715000Y-48895000D02*
X259715000Y-47625000D01*
G36*
X259715000Y-47625000D02*
G01*
X213360000Y-47625000D01*
X213360000Y-48895000D01*
X259715000Y-48895000D01*
X259715000Y-47625000D01*
G37*
D10*
X86080000Y-50800000D02*
G75*
G03*
X86080000Y-50800000I-355000J0D01*
G01*
X213715000Y-48260000D02*
G75*
G03*
X213715000Y-48260000I-355000J0D01*
G01*
D11*
X190934821Y-104943678D02*
X191184821Y-104943678D01*
X191291964Y-105336535D02*
X190934821Y-105336535D01*
X190934821Y-104586535D01*
X191291964Y-104586535D01*
X191613392Y-105336535D02*
X191613392Y-104586535D01*
X192041964Y-105336535D02*
X191720535Y-104907964D01*
X192041964Y-104586535D02*
X191613392Y-105015107D01*
X192899107Y-104657964D02*
X192934821Y-104622250D01*
X193006250Y-104586535D01*
X193184821Y-104586535D01*
X193256250Y-104622250D01*
X193291964Y-104657964D01*
X193327678Y-104729392D01*
X193327678Y-104800821D01*
X193291964Y-104907964D01*
X192863392Y-105336535D01*
X193327678Y-105336535D01*
X193791964Y-104586535D02*
X193863392Y-104586535D01*
X193934821Y-104622250D01*
X193970535Y-104657964D01*
X194006250Y-104729392D01*
X194041964Y-104872250D01*
X194041964Y-105050821D01*
X194006250Y-105193678D01*
X193970535Y-105265107D01*
X193934821Y-105300821D01*
X193863392Y-105336535D01*
X193791964Y-105336535D01*
X193720535Y-105300821D01*
X193684821Y-105265107D01*
X193649107Y-105193678D01*
X193613392Y-105050821D01*
X193613392Y-104872250D01*
X193649107Y-104729392D01*
X193684821Y-104657964D01*
X193720535Y-104622250D01*
X193791964Y-104586535D01*
X194327678Y-104657964D02*
X194363392Y-104622250D01*
X194434821Y-104586535D01*
X194613392Y-104586535D01*
X194684821Y-104622250D01*
X194720535Y-104657964D01*
X194756250Y-104729392D01*
X194756250Y-104800821D01*
X194720535Y-104907964D01*
X194291964Y-105336535D01*
X194756250Y-105336535D01*
X195041964Y-104657964D02*
X195077678Y-104622250D01*
X195149107Y-104586535D01*
X195327678Y-104586535D01*
X195399107Y-104622250D01*
X195434821Y-104657964D01*
X195470535Y-104729392D01*
X195470535Y-104800821D01*
X195434821Y-104907964D01*
X195006250Y-105336535D01*
X195470535Y-105336535D01*
D12*
X191800654Y-103530726D02*
X191383988Y-102935488D01*
X191086369Y-103530726D02*
X191086369Y-102280726D01*
X191562559Y-102280726D01*
X191681607Y-102340250D01*
X191741130Y-102399773D01*
X191800654Y-102518821D01*
X191800654Y-102697392D01*
X191741130Y-102816440D01*
X191681607Y-102875964D01*
X191562559Y-102935488D01*
X191086369Y-102935488D01*
X192812559Y-103471202D02*
X192693511Y-103530726D01*
X192455416Y-103530726D01*
X192336369Y-103471202D01*
X192276845Y-103352154D01*
X192276845Y-102875964D01*
X192336369Y-102756916D01*
X192455416Y-102697392D01*
X192693511Y-102697392D01*
X192812559Y-102756916D01*
X192872083Y-102875964D01*
X192872083Y-102995011D01*
X192276845Y-103114059D01*
X193229226Y-102697392D02*
X193705416Y-102697392D01*
X193407797Y-102280726D02*
X193407797Y-103352154D01*
X193467321Y-103471202D01*
X193586369Y-103530726D01*
X193705416Y-103530726D01*
X194122083Y-103530726D02*
X194122083Y-102697392D01*
X194122083Y-102935488D02*
X194181607Y-102816440D01*
X194241130Y-102756916D01*
X194360178Y-102697392D01*
X194479226Y-102697392D01*
X195074464Y-103530726D02*
X194955416Y-103471202D01*
X194895892Y-103411678D01*
X194836369Y-103292630D01*
X194836369Y-102935488D01*
X194895892Y-102816440D01*
X194955416Y-102756916D01*
X195074464Y-102697392D01*
X195253035Y-102697392D01*
X195372083Y-102756916D01*
X195431607Y-102816440D01*
X195491130Y-102935488D01*
X195491130Y-103292630D01*
X195431607Y-103411678D01*
X195372083Y-103471202D01*
X195253035Y-103530726D01*
X195074464Y-103530726D01*
X195848273Y-102280726D02*
X196264940Y-103530726D01*
X196681607Y-102280726D01*
X197633988Y-103530726D02*
X197633988Y-102875964D01*
X197574464Y-102756916D01*
X197455416Y-102697392D01*
X197217321Y-102697392D01*
X197098273Y-102756916D01*
X197633988Y-103471202D02*
X197514940Y-103530726D01*
X197217321Y-103530726D01*
X197098273Y-103471202D01*
X197038750Y-103352154D01*
X197038750Y-103233107D01*
X197098273Y-103114059D01*
X197217321Y-103054535D01*
X197514940Y-103054535D01*
X197633988Y-102995011D01*
X198229226Y-102697392D02*
X198229226Y-103530726D01*
X198229226Y-102816440D02*
X198288750Y-102756916D01*
X198407797Y-102697392D01*
X198586369Y-102697392D01*
X198705416Y-102756916D01*
X198764940Y-102875964D01*
X198764940Y-103530726D01*
X200312559Y-103530726D02*
X200312559Y-102697392D01*
X200312559Y-102935488D02*
X200372083Y-102816440D01*
X200431607Y-102756916D01*
X200550654Y-102697392D01*
X200669702Y-102697392D01*
X201562559Y-103471202D02*
X201443511Y-103530726D01*
X201205416Y-103530726D01*
X201086369Y-103471202D01*
X201026845Y-103352154D01*
X201026845Y-102875964D01*
X201086369Y-102756916D01*
X201205416Y-102697392D01*
X201443511Y-102697392D01*
X201562559Y-102756916D01*
X201622083Y-102875964D01*
X201622083Y-102995011D01*
X201026845Y-103114059D01*
X202038750Y-102697392D02*
X202336369Y-103530726D01*
X202633988Y-102697392D01*
X203764940Y-103530726D02*
X203050654Y-103530726D01*
X203407797Y-103530726D02*
X203407797Y-102280726D01*
X203288750Y-102459297D01*
X203169702Y-102578345D01*
X203050654Y-102637869D01*
D13*
X203358750Y-107791250D02*
X185578750Y-107791250D01*
X185578750Y-100171250D02*
X203358750Y-100171250D01*
X203358750Y-107791250D02*
G75*
G03*
X203358750Y-100171250I0J3810000D01*
G01*
X185578750Y-100171250D02*
G75*
G03*
X185578750Y-107791250I0J-3810000D01*
G01*
G36*
X183843946Y-104737960D02*
G01*
X183857076Y-104683464D01*
X183873129Y-104618414D01*
X183892265Y-104541670D01*
X183900367Y-104509250D01*
X183917509Y-104441014D01*
X183933923Y-104376370D01*
X183949269Y-104316613D01*
X183963206Y-104263037D01*
X183975394Y-104216937D01*
X183983739Y-104186083D01*
X184434125Y-104186083D01*
X184438856Y-104190544D01*
X184453205Y-104199382D01*
X184477485Y-104212757D01*
X184512010Y-104230828D01*
X184557095Y-104253751D01*
X184613053Y-104281686D01*
X184680201Y-104314791D01*
X184758851Y-104353225D01*
X184849317Y-104397146D01*
X184934193Y-104438164D01*
X185011517Y-104475421D01*
X185085250Y-104510853D01*
X185154470Y-104544024D01*
X185218256Y-104574496D01*
X185275689Y-104601833D01*
X185325847Y-104625599D01*
X185367809Y-104645355D01*
X185400656Y-104660667D01*
X185423466Y-104671095D01*
X185435319Y-104676205D01*
X185436841Y-104676647D01*
X185437301Y-104669108D01*
X185436245Y-104651225D01*
X185433896Y-104626213D01*
X185432445Y-104613220D01*
X185425659Y-104547664D01*
X185419275Y-104471307D01*
X185413469Y-104387017D01*
X185408418Y-104297664D01*
X185404296Y-104206118D01*
X185401281Y-104115249D01*
X185400836Y-104097833D01*
X185399636Y-103927085D01*
X185404354Y-103762603D01*
X185414862Y-103605151D01*
X185431033Y-103455493D01*
X185452739Y-103314393D01*
X185479851Y-103182617D01*
X185512243Y-103060927D01*
X185549786Y-102950089D01*
X185592353Y-102850866D01*
X185617488Y-102802194D01*
X185666043Y-102725120D01*
X185719658Y-102660528D01*
X185778225Y-102608509D01*
X185841631Y-102569155D01*
X185909766Y-102542559D01*
X185937428Y-102535700D01*
X185997818Y-102526481D01*
X186048558Y-102526438D01*
X186090260Y-102535713D01*
X186123538Y-102554447D01*
X186149004Y-102582780D01*
X186150170Y-102584587D01*
X186169190Y-102624823D01*
X186174578Y-102664368D01*
X186166331Y-102703681D01*
X186148400Y-102737548D01*
X186130374Y-102758626D01*
X186107112Y-102774330D01*
X186075890Y-102785997D01*
X186033986Y-102794966D01*
X186030231Y-102795584D01*
X185987680Y-102804507D01*
X185954905Y-102816881D01*
X185928080Y-102834772D01*
X185903377Y-102860246D01*
X185897887Y-102867021D01*
X185862659Y-102919290D01*
X185829387Y-102984039D01*
X185798412Y-103060171D01*
X185770072Y-103146587D01*
X185744706Y-103242192D01*
X185722655Y-103345885D01*
X185704257Y-103456571D01*
X185695662Y-103521321D01*
X185687771Y-103592024D01*
X185681623Y-103660600D01*
X185677113Y-103729644D01*
X185674136Y-103801748D01*
X185672586Y-103879506D01*
X185672360Y-103965512D01*
X185673352Y-104062360D01*
X185673473Y-104070115D01*
X185675253Y-104161398D01*
X185677677Y-104244150D01*
X185680950Y-104321310D01*
X185685282Y-104395817D01*
X185690878Y-104470613D01*
X185697948Y-104548636D01*
X185706698Y-104632827D01*
X185717337Y-104726125D01*
X185723338Y-104776358D01*
X185727314Y-104798959D01*
X185732603Y-104816175D01*
X185736525Y-104822615D01*
X185744175Y-104826884D01*
X185762901Y-104836455D01*
X185791523Y-104850758D01*
X185828860Y-104869222D01*
X185873734Y-104891275D01*
X185924964Y-104916347D01*
X185981370Y-104943867D01*
X186041772Y-104973264D01*
X186104991Y-105003967D01*
X186169846Y-105035404D01*
X186235158Y-105067005D01*
X186299747Y-105098199D01*
X186362433Y-105128415D01*
X186422035Y-105157082D01*
X186477376Y-105183628D01*
X186527273Y-105207484D01*
X186570548Y-105228077D01*
X186606020Y-105244838D01*
X186632510Y-105257194D01*
X186648838Y-105264575D01*
X186653791Y-105266514D01*
X186659583Y-105260712D01*
X186665815Y-105245321D01*
X186669228Y-105232215D01*
X186691978Y-105121109D01*
X186713913Y-105004137D01*
X186734939Y-104882335D01*
X186754963Y-104756734D01*
X186773888Y-104628369D01*
X186791622Y-104498273D01*
X186808069Y-104367479D01*
X186823136Y-104237022D01*
X186836728Y-104107934D01*
X186848750Y-103981250D01*
X186859108Y-103858002D01*
X186867708Y-103739224D01*
X186874455Y-103625950D01*
X186879255Y-103519213D01*
X186882013Y-103420047D01*
X186882636Y-103329485D01*
X186881028Y-103248561D01*
X186877096Y-103178309D01*
X186870744Y-103119761D01*
X186865101Y-103087655D01*
X186854369Y-103043083D01*
X186842573Y-103009377D01*
X186827746Y-102983761D01*
X186807918Y-102963456D01*
X186781122Y-102945686D01*
X186754933Y-102932188D01*
X186715659Y-102909034D01*
X186688476Y-102882367D01*
X186671894Y-102850269D01*
X186664920Y-102816324D01*
X186666943Y-102775781D01*
X186680392Y-102739547D01*
X186703282Y-102709254D01*
X186733629Y-102686534D01*
X186769450Y-102673019D01*
X186808760Y-102670338D01*
X186836223Y-102675464D01*
X186896958Y-102699476D01*
X186954600Y-102733924D01*
X187006121Y-102776527D01*
X187048495Y-102825005D01*
X187062516Y-102846040D01*
X187083283Y-102886559D01*
X187103118Y-102937117D01*
X187120806Y-102994085D01*
X187135135Y-103053829D01*
X187139353Y-103075972D01*
X187143658Y-103109431D01*
X187147071Y-103154626D01*
X187149592Y-103209651D01*
X187151220Y-103272596D01*
X187151956Y-103341553D01*
X187151799Y-103414616D01*
X187150749Y-103489874D01*
X187148807Y-103565421D01*
X187145973Y-103639348D01*
X187142246Y-103709748D01*
X187139356Y-103752557D01*
X187120352Y-103983910D01*
X187097943Y-104212224D01*
X187072376Y-104435528D01*
X187043899Y-104651851D01*
X187012760Y-104859223D01*
X186979205Y-105055671D01*
X186968197Y-105114859D01*
X186961116Y-105152961D01*
X186955281Y-105185938D01*
X186951047Y-105211647D01*
X186948769Y-105227944D01*
X186948655Y-105232799D01*
X186954989Y-105229907D01*
X186972594Y-105221567D01*
X187000426Y-105208279D01*
X187037446Y-105190547D01*
X187082612Y-105168873D01*
X187134882Y-105143759D01*
X187193215Y-105115706D01*
X187256569Y-105085218D01*
X187323903Y-105052797D01*
X187394176Y-105018944D01*
X187466345Y-104984161D01*
X187539371Y-104948952D01*
X187612210Y-104913818D01*
X187683823Y-104879262D01*
X187753166Y-104845785D01*
X187819200Y-104813889D01*
X187880882Y-104784078D01*
X187937172Y-104756853D01*
X187987027Y-104732716D01*
X188029406Y-104712170D01*
X188063268Y-104695717D01*
X188087571Y-104683858D01*
X188101274Y-104677097D01*
X188103997Y-104675679D01*
X188105800Y-104667623D01*
X188107665Y-104647429D01*
X188109547Y-104616636D01*
X188111398Y-104576779D01*
X188113171Y-104529397D01*
X188114820Y-104476024D01*
X188116297Y-104418199D01*
X188117556Y-104357459D01*
X188118549Y-104295340D01*
X188119229Y-104233379D01*
X188119550Y-104173113D01*
X188119562Y-104166204D01*
X188118072Y-103996525D01*
X188113059Y-103839353D01*
X188104408Y-103693955D01*
X188092006Y-103559596D01*
X188075736Y-103435541D01*
X188055486Y-103321056D01*
X188031141Y-103215407D01*
X188002585Y-103117858D01*
X187969706Y-103027675D01*
X187932388Y-102944125D01*
X187927792Y-102934878D01*
X187901361Y-102884192D01*
X187877844Y-102843752D01*
X187855466Y-102810961D01*
X187832452Y-102783222D01*
X187807026Y-102757936D01*
X187806691Y-102757630D01*
X187769686Y-102727000D01*
X187733864Y-102705109D01*
X187695789Y-102690727D01*
X187652022Y-102682623D01*
X187599125Y-102679567D01*
X187588228Y-102679458D01*
X187554618Y-102679131D01*
X187531352Y-102678059D01*
X187515101Y-102675584D01*
X187502536Y-102671047D01*
X187490327Y-102663789D01*
X187482861Y-102658614D01*
X187451614Y-102629138D01*
X187431820Y-102594371D01*
X187423663Y-102556608D01*
X187427328Y-102518144D01*
X187442999Y-102481276D01*
X187466331Y-102452487D01*
X187488834Y-102434374D01*
X187514287Y-102421749D01*
X187545468Y-102413844D01*
X187585151Y-102409891D01*
X187623413Y-102409058D01*
X187707533Y-102415652D01*
X187787974Y-102435387D01*
X187864577Y-102468189D01*
X187937180Y-102513982D01*
X188005622Y-102572694D01*
X188027161Y-102594777D01*
X188079989Y-102659119D01*
X188129982Y-102735705D01*
X188176629Y-102823302D01*
X188219420Y-102920681D01*
X188257846Y-103026609D01*
X188291398Y-103139855D01*
X188319564Y-103259188D01*
X188334254Y-103336583D01*
X188346379Y-103410878D01*
X188356724Y-103483469D01*
X188365401Y-103556117D01*
X188372526Y-103630585D01*
X188378215Y-103708634D01*
X188382582Y-103792025D01*
X188385741Y-103882520D01*
X188387808Y-103981881D01*
X188388897Y-104091869D01*
X188389141Y-104178246D01*
X188389208Y-104257915D01*
X188389363Y-104324951D01*
X188389634Y-104380397D01*
X188390053Y-104425293D01*
X188390650Y-104460681D01*
X188391457Y-104487603D01*
X188392503Y-104507100D01*
X188393820Y-104520214D01*
X188395438Y-104527987D01*
X188397387Y-104531459D01*
X188399540Y-104531737D01*
X188413328Y-104525892D01*
X188437165Y-104515002D01*
X188469716Y-104499721D01*
X188509647Y-104480705D01*
X188555624Y-104458610D01*
X188606313Y-104434090D01*
X188660380Y-104407800D01*
X188716489Y-104380396D01*
X188773308Y-104352534D01*
X188829502Y-104324868D01*
X188883737Y-104298053D01*
X188934679Y-104272745D01*
X188980993Y-104249599D01*
X189021346Y-104229270D01*
X189054403Y-104212414D01*
X189078830Y-104199686D01*
X189093293Y-104191740D01*
X189096800Y-104189300D01*
X189094899Y-104179136D01*
X189089308Y-104157118D01*
X189080390Y-104124455D01*
X189068506Y-104082354D01*
X189054020Y-104032022D01*
X189037292Y-103974666D01*
X189018686Y-103911493D01*
X188998564Y-103843712D01*
X188977287Y-103772529D01*
X188955218Y-103699152D01*
X188932719Y-103624787D01*
X188910152Y-103550643D01*
X188887879Y-103477926D01*
X188866263Y-103407844D01*
X188845666Y-103341605D01*
X188826450Y-103280414D01*
X188808977Y-103225481D01*
X188793609Y-103178012D01*
X188791439Y-103171400D01*
X188757462Y-103071792D01*
X188721288Y-102972532D01*
X188683610Y-102875206D01*
X188645121Y-102781401D01*
X188606516Y-102692703D01*
X188568486Y-102610699D01*
X188531725Y-102536977D01*
X188496927Y-102473123D01*
X188464785Y-102420724D01*
X188461063Y-102415168D01*
X188412797Y-102352695D01*
X188356866Y-102295314D01*
X188296255Y-102245725D01*
X188233951Y-102206623D01*
X188225192Y-102202104D01*
X188156080Y-102174891D01*
X188084027Y-102160752D01*
X188010114Y-102159689D01*
X187935422Y-102171708D01*
X187861030Y-102196811D01*
X187851838Y-102200855D01*
X187806838Y-102218919D01*
X187769768Y-102228445D01*
X187738221Y-102229847D01*
X187713043Y-102224665D01*
X187676058Y-102206075D01*
X187648179Y-102179141D01*
X187629927Y-102146160D01*
X187621822Y-102109432D01*
X187624385Y-102071255D01*
X187638136Y-102033926D01*
X187662395Y-102000972D01*
X187683481Y-101979185D01*
X187650939Y-101958547D01*
X187614292Y-101939250D01*
X187577546Y-101928655D01*
X187538935Y-101926957D01*
X187496694Y-101934352D01*
X187449057Y-101951035D01*
X187394258Y-101977201D01*
X187371609Y-101989438D01*
X187345484Y-102000947D01*
X187317174Y-102009108D01*
X187305395Y-102010977D01*
X187267145Y-102008194D01*
X187231386Y-101993787D01*
X187200735Y-101969810D01*
X187177811Y-101938313D01*
X187165232Y-101901348D01*
X187165198Y-101901144D01*
X187158935Y-101873345D01*
X187149448Y-101855034D01*
X187133829Y-101842026D01*
X187118732Y-101834306D01*
X187081802Y-101823864D01*
X187041007Y-101822640D01*
X187000279Y-101829900D01*
X186963553Y-101844911D01*
X186934761Y-101866940D01*
X186932972Y-101868923D01*
X186914909Y-101883804D01*
X186889284Y-101898282D01*
X186861510Y-101909849D01*
X186836995Y-101916002D01*
X186830415Y-101916416D01*
X186795657Y-101910571D01*
X186757933Y-101893388D01*
X186723838Y-101870451D01*
X186679962Y-101841401D01*
X186634966Y-101820827D01*
X186583393Y-101806359D01*
X186569964Y-101803634D01*
X186539015Y-101798831D01*
X186506389Y-101795606D01*
X186475155Y-101794037D01*
X186448385Y-101794201D01*
X186429148Y-101796178D01*
X186420635Y-101799825D01*
X186420695Y-101809432D01*
X186425425Y-101826040D01*
X186427831Y-101832197D01*
X186436534Y-101869363D01*
X186433205Y-101906544D01*
X186419278Y-101941387D01*
X186396188Y-101971541D01*
X186365372Y-101994655D01*
X186328263Y-102008377D01*
X186319370Y-102009906D01*
X186287341Y-102010584D01*
X186257324Y-102002525D01*
X186226513Y-101984555D01*
X186194560Y-101957806D01*
X186166588Y-101933681D01*
X186141191Y-101917214D01*
X186114588Y-101907088D01*
X186082996Y-101901987D01*
X186042633Y-101900593D01*
X186030468Y-101900672D01*
X185985838Y-101902618D01*
X185947288Y-101907981D01*
X185907422Y-101917842D01*
X185901879Y-101919475D01*
X185871977Y-101929221D01*
X185841849Y-101940414D01*
X185814262Y-101951854D01*
X185791982Y-101962341D01*
X185777774Y-101970677D01*
X185774075Y-101974899D01*
X185779629Y-101979494D01*
X185793899Y-101987892D01*
X185806552Y-101994565D01*
X185860626Y-102026401D01*
X185902378Y-102060597D01*
X185931522Y-102096727D01*
X185947769Y-102134364D01*
X185950833Y-102173081D01*
X185945074Y-102200314D01*
X185931691Y-102227395D01*
X185911264Y-102254117D01*
X185888092Y-102275299D01*
X185877327Y-102281943D01*
X185844723Y-102293993D01*
X185812221Y-102296343D01*
X185777554Y-102288617D01*
X185738456Y-102270438D01*
X185712086Y-102254459D01*
X185669329Y-102228772D01*
X185631538Y-102211342D01*
X185594000Y-102200763D01*
X185552004Y-102195631D01*
X185510845Y-102194504D01*
X185469503Y-102195313D01*
X185436667Y-102198207D01*
X185407250Y-102203812D01*
X185384695Y-102210074D01*
X185314815Y-102235917D01*
X185247329Y-102270287D01*
X185180527Y-102314307D01*
X185112701Y-102369097D01*
X185045478Y-102432426D01*
X185001545Y-102478588D01*
X184961295Y-102525804D01*
X184924193Y-102575225D01*
X184889705Y-102628007D01*
X184857295Y-102685303D01*
X184826428Y-102748267D01*
X184796569Y-102818053D01*
X184767183Y-102895815D01*
X184737734Y-102982706D01*
X184707688Y-103079882D01*
X184676509Y-103188494D01*
X184650439Y-103284213D01*
X184638670Y-103328954D01*
X184625196Y-103381349D01*
X184610335Y-103440076D01*
X184594403Y-103503812D01*
X184577719Y-103571236D01*
X184560598Y-103641024D01*
X184543358Y-103711856D01*
X184526316Y-103782408D01*
X184509790Y-103851359D01*
X184494096Y-103917386D01*
X184479552Y-103979168D01*
X184466475Y-104035381D01*
X184455181Y-104084704D01*
X184445988Y-104125815D01*
X184439213Y-104157391D01*
X184435174Y-104178110D01*
X184434125Y-104186083D01*
X183983739Y-104186083D01*
X183985491Y-104179606D01*
X183993157Y-104152340D01*
X183998052Y-104136432D01*
X183999319Y-104133207D01*
X184023094Y-104101604D01*
X184055434Y-104078193D01*
X184093014Y-104064523D01*
X184132507Y-104062141D01*
X184147034Y-104064453D01*
X184165214Y-104067882D01*
X184176819Y-104068839D01*
X184178557Y-104068390D01*
X184180705Y-104061341D01*
X184185549Y-104042624D01*
X184192687Y-104013889D01*
X184201714Y-103976787D01*
X184212227Y-103932967D01*
X184223822Y-103884080D01*
X184228373Y-103864747D01*
X184266123Y-103705395D01*
X184301547Y-103558749D01*
X184334890Y-103424085D01*
X184366396Y-103300681D01*
X184396309Y-103187812D01*
X184424873Y-103084753D01*
X184452334Y-102990782D01*
X184478935Y-102905175D01*
X184504920Y-102827206D01*
X184530534Y-102756154D01*
X184556021Y-102691292D01*
X184581626Y-102631899D01*
X184607592Y-102577249D01*
X184634165Y-102526619D01*
X184661587Y-102479285D01*
X184690104Y-102434523D01*
X184719960Y-102391609D01*
X184730244Y-102377601D01*
X184756269Y-102345117D01*
X184789987Y-102306756D01*
X184828600Y-102265419D01*
X184869312Y-102224006D01*
X184909329Y-102185414D01*
X184945853Y-102152544D01*
X184953618Y-102145971D01*
X185032345Y-102086032D01*
X185114985Y-102033801D01*
X185199166Y-101990507D01*
X185282513Y-101957380D01*
X185357790Y-101936648D01*
X185376291Y-101931798D01*
X185392307Y-101924589D01*
X185409114Y-101912897D01*
X185429987Y-101894597D01*
X185445892Y-101879497D01*
X185527228Y-101809614D01*
X185614681Y-101750346D01*
X185706922Y-101702256D01*
X185802621Y-101665907D01*
X185900449Y-101641862D01*
X185999075Y-101630684D01*
X186034961Y-101629921D01*
X186069485Y-101630540D01*
X186101974Y-101631979D01*
X186128195Y-101634006D01*
X186141189Y-101635770D01*
X186159550Y-101638348D01*
X186172090Y-101635689D01*
X186184804Y-101625719D01*
X186192405Y-101618064D01*
X186234955Y-101583554D01*
X186287249Y-101556705D01*
X186347638Y-101537610D01*
X186414476Y-101526367D01*
X186486113Y-101523069D01*
X186560902Y-101527813D01*
X186637196Y-101540695D01*
X186713345Y-101561809D01*
X186772489Y-101584447D01*
X186827205Y-101608159D01*
X186869833Y-101589036D01*
X186899080Y-101577174D01*
X186930270Y-101566433D01*
X186950065Y-101560827D01*
X186983961Y-101555311D01*
X187025935Y-101552372D01*
X187070875Y-101552019D01*
X187113672Y-101554263D01*
X187149213Y-101559114D01*
X187155179Y-101560441D01*
X187205026Y-101576698D01*
X187255599Y-101600434D01*
X187301599Y-101628894D01*
X187328857Y-101650713D01*
X187366932Y-101685511D01*
X187413182Y-101672951D01*
X187440307Y-101666931D01*
X187470830Y-101663113D01*
X187508251Y-101661188D01*
X187551733Y-101660828D01*
X187590188Y-101661223D01*
X187618662Y-101662343D01*
X187640847Y-101664731D01*
X187660436Y-101668925D01*
X187681119Y-101675468D01*
X187700600Y-101682629D01*
X187734560Y-101697225D01*
X187770976Y-101715639D01*
X187802411Y-101734088D01*
X187804619Y-101735540D01*
X187835504Y-101758748D01*
X187868203Y-101787743D01*
X187899239Y-101819056D01*
X187925134Y-101849221D01*
X187940074Y-101870632D01*
X187951236Y-101889435D01*
X188037914Y-101889435D01*
X188131760Y-101894690D01*
X188219466Y-101910888D01*
X188302956Y-101938678D01*
X188384151Y-101978707D01*
X188464976Y-102031625D01*
X188469550Y-102034997D01*
X188538056Y-102091252D01*
X188601089Y-102154770D01*
X188659813Y-102227027D01*
X188715386Y-102309499D01*
X188768969Y-102403661D01*
X188786914Y-102438547D01*
X188822931Y-102512518D01*
X188858567Y-102590407D01*
X188894115Y-102673046D01*
X188929867Y-102761266D01*
X188966115Y-102855899D01*
X189003152Y-102957775D01*
X189041272Y-103067728D01*
X189080765Y-103186586D01*
X189121925Y-103315183D01*
X189165045Y-103454350D01*
X189210416Y-103604917D01*
X189258331Y-103767717D01*
X189275765Y-103827766D01*
X189291634Y-103882491D01*
X189306330Y-103932943D01*
X189319416Y-103977646D01*
X189330459Y-104015122D01*
X189339022Y-104043896D01*
X189344671Y-104062491D01*
X189346971Y-104069429D01*
X189346974Y-104069432D01*
X189354178Y-104069517D01*
X189370309Y-104067080D01*
X189381123Y-104064933D01*
X189422555Y-104062486D01*
X189462173Y-104071928D01*
X189497105Y-104091956D01*
X189524481Y-104121269D01*
X189531604Y-104133207D01*
X189535044Y-104143185D01*
X189541421Y-104165145D01*
X189550393Y-104197792D01*
X189561621Y-104239831D01*
X189574764Y-104289970D01*
X189589480Y-104346912D01*
X189605429Y-104409363D01*
X189622271Y-104476031D01*
X189630597Y-104509250D01*
X189651037Y-104591325D01*
X189668237Y-104661152D01*
X189682414Y-104719715D01*
X189693786Y-104767994D01*
X189702571Y-104806973D01*
X189708985Y-104837634D01*
X189713246Y-104860960D01*
X189715571Y-104877932D01*
X189716178Y-104889533D01*
X189715803Y-104894361D01*
X189704247Y-104931955D01*
X189683255Y-104965817D01*
X189655668Y-104991640D01*
X189648847Y-104995900D01*
X189640145Y-105000504D01*
X189619819Y-105011049D01*
X189588419Y-105027252D01*
X189546496Y-105048830D01*
X189494602Y-105075501D01*
X189433288Y-105106982D01*
X189363105Y-105142991D01*
X189284604Y-105183246D01*
X189198337Y-105227463D01*
X189104855Y-105275361D01*
X189004709Y-105326656D01*
X188898451Y-105381067D01*
X188786630Y-105438311D01*
X188669800Y-105498105D01*
X188548511Y-105560167D01*
X188423313Y-105624214D01*
X188294760Y-105689964D01*
X188214432Y-105731041D01*
X188049533Y-105815333D01*
X187896452Y-105893526D01*
X187754854Y-105965788D01*
X187624404Y-106032289D01*
X187504767Y-106093197D01*
X187395607Y-106148680D01*
X187296590Y-106198907D01*
X187207381Y-106244047D01*
X187127643Y-106284268D01*
X187057043Y-106319739D01*
X186995244Y-106350628D01*
X186941912Y-106377104D01*
X186896712Y-106399335D01*
X186859308Y-106417491D01*
X186829365Y-106431739D01*
X186806549Y-106442248D01*
X186790523Y-106449188D01*
X186780954Y-106452725D01*
X186778631Y-106453256D01*
X186751852Y-106453349D01*
X186726853Y-106448668D01*
X186724439Y-106447827D01*
X186716932Y-106444198D01*
X186697907Y-106434678D01*
X186668023Y-106419601D01*
X186627935Y-106399304D01*
X186578301Y-106374121D01*
X186519778Y-106344389D01*
X186453023Y-106310442D01*
X186378692Y-106272616D01*
X186297444Y-106231247D01*
X186209934Y-106186670D01*
X186116821Y-106139219D01*
X186018760Y-106089232D01*
X185916409Y-106037042D01*
X185810425Y-105982986D01*
X185701465Y-105927398D01*
X185590186Y-105870615D01*
X185477245Y-105812971D01*
X185363299Y-105754803D01*
X185249006Y-105696445D01*
X185135021Y-105638233D01*
X185022002Y-105580502D01*
X184910606Y-105523588D01*
X184801491Y-105467826D01*
X184695312Y-105413551D01*
X184592728Y-105361100D01*
X184494395Y-105310807D01*
X184400970Y-105263007D01*
X184313110Y-105218037D01*
X184231473Y-105176231D01*
X184156715Y-105137925D01*
X184089493Y-105103454D01*
X184030464Y-105073155D01*
X183980285Y-105047361D01*
X183939614Y-105026409D01*
X183909107Y-105010634D01*
X183904794Y-105008395D01*
X183874774Y-104990924D01*
X183853903Y-104973623D01*
X183838417Y-104953618D01*
X183831067Y-104941872D01*
X183825048Y-104930988D01*
X183820520Y-104919825D01*
X183817643Y-104907240D01*
X183816575Y-104892092D01*
X183817476Y-104873240D01*
X183820504Y-104849543D01*
X183825819Y-104819858D01*
X183828516Y-104807066D01*
X184108540Y-104807066D01*
X184115160Y-104810752D01*
X184133276Y-104820286D01*
X184162214Y-104835325D01*
X184201297Y-104855522D01*
X184249849Y-104880534D01*
X184307195Y-104910015D01*
X184372659Y-104943621D01*
X184445565Y-104981007D01*
X184525238Y-105021828D01*
X184611001Y-105065740D01*
X184702180Y-105112397D01*
X184798097Y-105161454D01*
X184898078Y-105212568D01*
X185001447Y-105265392D01*
X185107528Y-105319583D01*
X185215645Y-105374795D01*
X185325123Y-105430684D01*
X185435286Y-105486904D01*
X185545457Y-105543112D01*
X185654962Y-105598962D01*
X185763125Y-105654109D01*
X185869269Y-105708209D01*
X185972719Y-105760917D01*
X186072800Y-105811888D01*
X186168835Y-105860777D01*
X186260150Y-105907240D01*
X186346067Y-105950931D01*
X186425911Y-105991506D01*
X186499008Y-106028620D01*
X186564680Y-106061928D01*
X186622252Y-106091085D01*
X186671049Y-106115747D01*
X186710394Y-106135569D01*
X186739612Y-106150206D01*
X186758028Y-106159313D01*
X186764964Y-106162545D01*
X186764987Y-106162547D01*
X186771920Y-106159486D01*
X186790466Y-106150471D01*
X186820065Y-106135786D01*
X186860162Y-106115713D01*
X186910198Y-106090535D01*
X186969617Y-106060536D01*
X187037860Y-106025999D01*
X187114370Y-105987206D01*
X187198590Y-105944441D01*
X187289963Y-105897987D01*
X187387930Y-105848127D01*
X187491936Y-105795144D01*
X187601421Y-105739321D01*
X187715829Y-105680941D01*
X187834603Y-105620287D01*
X187957185Y-105557642D01*
X188083017Y-105493290D01*
X188100024Y-105484588D01*
X188256443Y-105404533D01*
X188401052Y-105330471D01*
X188534232Y-105262204D01*
X188656364Y-105199532D01*
X188767830Y-105142257D01*
X188869012Y-105090180D01*
X188960291Y-105043103D01*
X189042048Y-105000826D01*
X189114665Y-104963151D01*
X189178523Y-104929878D01*
X189234005Y-104900810D01*
X189281491Y-104875747D01*
X189321363Y-104854491D01*
X189354002Y-104836843D01*
X189379790Y-104822604D01*
X189399109Y-104811575D01*
X189412340Y-104803557D01*
X189419864Y-104798352D01*
X189422063Y-104795762D01*
X189422059Y-104795746D01*
X189419632Y-104786562D01*
X189414347Y-104765871D01*
X189406648Y-104735436D01*
X189396980Y-104697020D01*
X189385787Y-104652386D01*
X189373514Y-104603296D01*
X189370254Y-104590236D01*
X189357862Y-104540793D01*
X189346479Y-104495815D01*
X189336537Y-104456970D01*
X189328465Y-104425923D01*
X189322695Y-104404342D01*
X189319657Y-104393892D01*
X189319351Y-104393185D01*
X189313062Y-104395885D01*
X189295044Y-104404263D01*
X189265878Y-104418039D01*
X189226144Y-104436935D01*
X189176423Y-104460672D01*
X189117295Y-104488971D01*
X189049340Y-104521553D01*
X188973138Y-104558139D01*
X188889271Y-104598450D01*
X188798318Y-104642208D01*
X188700860Y-104689134D01*
X188597476Y-104738948D01*
X188488748Y-104791372D01*
X188375256Y-104846127D01*
X188257580Y-104902934D01*
X188136300Y-104961514D01*
X188070304Y-104993405D01*
X187946929Y-105053001D01*
X187826612Y-105111062D01*
X187709949Y-105167301D01*
X187597538Y-105221432D01*
X187489975Y-105273171D01*
X187387857Y-105322231D01*
X187291780Y-105368327D01*
X187202343Y-105411174D01*
X187120141Y-105450486D01*
X187045771Y-105485976D01*
X186979831Y-105517361D01*
X186922917Y-105544354D01*
X186875626Y-105566669D01*
X186838555Y-105584022D01*
X186812301Y-105596125D01*
X186797461Y-105602695D01*
X186794519Y-105603812D01*
X186766216Y-105608256D01*
X186738211Y-105604292D01*
X186736404Y-105603812D01*
X186727443Y-105600092D01*
X186706774Y-105590696D01*
X186674991Y-105575911D01*
X186632692Y-105556020D01*
X186580475Y-105531311D01*
X186518935Y-105502068D01*
X186448671Y-105468577D01*
X186370277Y-105431124D01*
X186284352Y-105389994D01*
X186191493Y-105345473D01*
X186092296Y-105297847D01*
X185987357Y-105247401D01*
X185877275Y-105194420D01*
X185762646Y-105139190D01*
X185644066Y-105081997D01*
X185522132Y-105023126D01*
X185460619Y-104993405D01*
X185337654Y-104933993D01*
X185217982Y-104876205D01*
X185102185Y-104820320D01*
X184990842Y-104766618D01*
X184884534Y-104715376D01*
X184783842Y-104666874D01*
X184689345Y-104621391D01*
X184601624Y-104579206D01*
X184521259Y-104540597D01*
X184448831Y-104505844D01*
X184384920Y-104475225D01*
X184330106Y-104449019D01*
X184284970Y-104427505D01*
X184250092Y-104410962D01*
X184226052Y-104399669D01*
X184213432Y-104393905D01*
X184211570Y-104393187D01*
X184209262Y-104400253D01*
X184204240Y-104418570D01*
X184196990Y-104446188D01*
X184187998Y-104481157D01*
X184177750Y-104521524D01*
X184166730Y-104565341D01*
X184155425Y-104610657D01*
X184144320Y-104655520D01*
X184133900Y-104697980D01*
X184124652Y-104736087D01*
X184117061Y-104767889D01*
X184111611Y-104791437D01*
X184108790Y-104804779D01*
X184108540Y-104807066D01*
X183828516Y-104807066D01*
X183833580Y-104783044D01*
X183843946Y-104737960D01*
G37*
G36*
X186843703Y-102212449D02*
G01*
X186916561Y-102218817D01*
X186983007Y-102229012D01*
X187042011Y-102242694D01*
X187092543Y-102259520D01*
X187133574Y-102279148D01*
X187164073Y-102301239D01*
X187183013Y-102325449D01*
X187189365Y-102350869D01*
X187186684Y-102367455D01*
X187176940Y-102383030D01*
X187161467Y-102398485D01*
X187137280Y-102417528D01*
X187109304Y-102433580D01*
X187075156Y-102447600D01*
X187032455Y-102460543D01*
X186978818Y-102473365D01*
X186970576Y-102475147D01*
X186951169Y-102477965D01*
X186921296Y-102480683D01*
X186883739Y-102483199D01*
X186841280Y-102485411D01*
X186796700Y-102487216D01*
X186752782Y-102488511D01*
X186712308Y-102489193D01*
X186678060Y-102489161D01*
X186652819Y-102488312D01*
X186642393Y-102487244D01*
X186627003Y-102484721D01*
X186603321Y-102480930D01*
X186577440Y-102476845D01*
X186507083Y-102462902D01*
X186449018Y-102444923D01*
X186402375Y-102422581D01*
X186369456Y-102398485D01*
X186351825Y-102380402D01*
X186343395Y-102364959D01*
X186341559Y-102350869D01*
X186348186Y-102324915D01*
X186367381Y-102300746D01*
X186398116Y-102278705D01*
X186439359Y-102259132D01*
X186490082Y-102242369D01*
X186549254Y-102228758D01*
X186615847Y-102218641D01*
X186688830Y-102212358D01*
X186765462Y-102210251D01*
X186843703Y-102212449D01*
G37*
D14*
X235108750Y-91757500D03*
D15*
X232568750Y-96837500D03*
D16*
X227488750Y-96837500D03*
D14*
X228758750Y-94297500D03*
D16*
X237648750Y-96837500D03*
X208438750Y-96837500D03*
X218598750Y-96837500D03*
D15*
X213518750Y-96837500D03*
D14*
X216058750Y-91757500D03*
X209708750Y-94297500D03*
D16*
X51276250Y-77787500D03*
D14*
X52546250Y-75247500D03*
X58896250Y-72707500D03*
D15*
X56356250Y-77787500D03*
D16*
X61436250Y-77787500D03*
D15*
X132556250Y-77787500D03*
D16*
X127476250Y-77787500D03*
D14*
X128746250Y-75247500D03*
D16*
X137636250Y-77787500D03*
D14*
X135096250Y-72707500D03*
D17*
X74612500Y-56515000D03*
D18*
X74612500Y-64135000D03*
D17*
X230187500Y-56515000D03*
D18*
X230187500Y-64135000D03*
D17*
X39687500Y-56515000D03*
D18*
X39687500Y-64135000D03*
D19*
X232569250Y-125412500D03*
D16*
X89376250Y-77787500D03*
D14*
X90646250Y-75247500D03*
D16*
X99536250Y-77787500D03*
D15*
X94456250Y-77787500D03*
D14*
X96996250Y-72707500D03*
X256540000Y-129857500D03*
D16*
X248920000Y-134937500D03*
D15*
X254000000Y-134937500D03*
D16*
X259080000Y-134937500D03*
D14*
X250190000Y-132397500D03*
D17*
X227012500Y-56515000D03*
D18*
X227012500Y-64135000D03*
D17*
X68262500Y-56515000D03*
D18*
X68262500Y-64135000D03*
D15*
X256381250Y-96837500D03*
D16*
X261461250Y-96837500D03*
D14*
X252571250Y-94297500D03*
D16*
X251301250Y-96837500D03*
D14*
X258921250Y-91757500D03*
D17*
X58737500Y-56515000D03*
D18*
X58737500Y-64135000D03*
D19*
X32781250Y-63262500D03*
D14*
X149383750Y-129857500D03*
D16*
X151923750Y-134937500D03*
D15*
X146843750Y-134937500D03*
D14*
X143033750Y-132397500D03*
D16*
X141763750Y-134937500D03*
X191770000Y-134937500D03*
D15*
X196850000Y-134937500D03*
D14*
X193040000Y-132397500D03*
D16*
X201930000Y-134937500D03*
D14*
X199390000Y-129857500D03*
D20*
X170180000Y-45720000D03*
D21*
X162560000Y-45720000D03*
D19*
X242225250Y-87312500D03*
D22*
X153955750Y-141922500D03*
D23*
X177831750Y-126712500D03*
X153955750Y-126712500D03*
D22*
X177831750Y-141922500D03*
D15*
X80168750Y-134937500D03*
D16*
X75088750Y-134937500D03*
D14*
X76358750Y-132397500D03*
X82708750Y-129857500D03*
D16*
X85248750Y-134937500D03*
D20*
X162560000Y-53340000D03*
D21*
X170180000Y-53340000D03*
D17*
X80962500Y-56515000D03*
D18*
X80962500Y-64135000D03*
D17*
X93662500Y-56515000D03*
D18*
X93662500Y-64135000D03*
D14*
X39846250Y-72707500D03*
X33496250Y-75247500D03*
D15*
X37306250Y-77787500D03*
D16*
X42386250Y-77787500D03*
X32226250Y-77787500D03*
D15*
X125412500Y-134937500D03*
D16*
X120332500Y-134937500D03*
X130492500Y-134937500D03*
D14*
X121602500Y-132397500D03*
X127952500Y-129857500D03*
D20*
X170180000Y-58420000D03*
D21*
X162560000Y-58420000D03*
D17*
X96837500Y-56515000D03*
D18*
X96837500Y-64135000D03*
D24*
X119380000Y-46990000D03*
X119380000Y-49530000D03*
X116840000Y-46990000D03*
X116840000Y-49530000D03*
X114300000Y-46990000D03*
D25*
X114300000Y-49530000D03*
D17*
X128587500Y-56515000D03*
D18*
X128587500Y-64135000D03*
D20*
X162560000Y-60960000D03*
D21*
X170180000Y-60960000D03*
D19*
X146844250Y-87312500D03*
X59797250Y-125412500D03*
D17*
X109537500Y-56515000D03*
D18*
X109537500Y-64135000D03*
D17*
X46037500Y-56515000D03*
D18*
X46037500Y-64135000D03*
D17*
X242887500Y-56515000D03*
D18*
X242887500Y-64135000D03*
D17*
X131762500Y-56515000D03*
D18*
X131762500Y-64135000D03*
D14*
X58896250Y-129857500D03*
D16*
X61436250Y-134937500D03*
D15*
X56356250Y-134937500D03*
D14*
X52546250Y-132397500D03*
D16*
X51276250Y-134937500D03*
D17*
X90487500Y-56515000D03*
D18*
X90487500Y-64135000D03*
D15*
X108743750Y-115887500D03*
D14*
X111283750Y-110807500D03*
D16*
X113823750Y-115887500D03*
D14*
X104933750Y-113347500D03*
D16*
X103663750Y-115887500D03*
D26*
X181610000Y-60325000D03*
X186610000Y-60325000D03*
D19*
X32781250Y-48262500D03*
D16*
X179863750Y-115887500D03*
D14*
X187483750Y-110807500D03*
X181133750Y-113347500D03*
D16*
X190023750Y-115887500D03*
D15*
X184943750Y-115887500D03*
X39687500Y-96837500D03*
D14*
X35877500Y-94297500D03*
X42227500Y-91757500D03*
D16*
X44767500Y-96837500D03*
X34607500Y-96837500D03*
D17*
X42862500Y-56515000D03*
D18*
X42862500Y-64135000D03*
D17*
X122237500Y-56515000D03*
D18*
X122237500Y-64135000D03*
D14*
X225583750Y-129857500D03*
D16*
X217963750Y-134937500D03*
D15*
X223043750Y-134937500D03*
D14*
X219233750Y-132397500D03*
D16*
X228123750Y-134937500D03*
D26*
X189230000Y-61595000D03*
X189230000Y-59095000D03*
D16*
X151288750Y-96837500D03*
D14*
X152558750Y-94297500D03*
D15*
X156368750Y-96837500D03*
D16*
X161448750Y-96837500D03*
D14*
X158908750Y-91757500D03*
D16*
X60801250Y-134937500D03*
D14*
X68421250Y-129857500D03*
D15*
X65881250Y-134937500D03*
D14*
X62071250Y-132397500D03*
D16*
X70961250Y-134937500D03*
X249555000Y-134937500D03*
D14*
X247015000Y-129857500D03*
D16*
X239395000Y-134937500D03*
D15*
X244475000Y-134937500D03*
D14*
X240665000Y-132397500D03*
X168433750Y-110807500D03*
X162083750Y-113347500D03*
D16*
X160813750Y-115887500D03*
X170973750Y-115887500D03*
D15*
X165893750Y-115887500D03*
D17*
X156845000Y-59690000D03*
D18*
X149225000Y-59690000D03*
D16*
X137001250Y-134937500D03*
X147161250Y-134937500D03*
D14*
X138271250Y-132397500D03*
D15*
X142081250Y-134937500D03*
D14*
X144621250Y-129857500D03*
X73977500Y-132397500D03*
X80327500Y-129857500D03*
D15*
X77787500Y-134937500D03*
D16*
X72707500Y-134937500D03*
X82867500Y-134937500D03*
X132873750Y-115887500D03*
D14*
X123983750Y-113347500D03*
X130333750Y-110807500D03*
D15*
X127793750Y-115887500D03*
D16*
X122713750Y-115887500D03*
D17*
X249237500Y-56515000D03*
D18*
X249237500Y-64135000D03*
D26*
X195540000Y-44450000D03*
X190540000Y-44450000D03*
D17*
X106362500Y-56515000D03*
D18*
X106362500Y-64135000D03*
D14*
X244633750Y-129857500D03*
X238283750Y-132397500D03*
D15*
X242093750Y-134937500D03*
D16*
X247173750Y-134937500D03*
X237013750Y-134937500D03*
D17*
X255587500Y-56515000D03*
D18*
X255587500Y-64135000D03*
D17*
X175270000Y-54600000D03*
D18*
X177810000Y-54600000D03*
X180350000Y-54600000D03*
X182890000Y-54600000D03*
X185430000Y-54600000D03*
X187970000Y-54600000D03*
X190510000Y-54600000D03*
X193050000Y-54600000D03*
X195590000Y-54600000D03*
X198130000Y-54600000D03*
X200670000Y-54600000D03*
X203210000Y-54600000D03*
X205750000Y-54600000D03*
X208290000Y-54600000D03*
X208290000Y-46980000D03*
X205750000Y-46980000D03*
X203210000Y-46980000D03*
X200670000Y-46980000D03*
X198130000Y-46980000D03*
X195590000Y-46980000D03*
X193050000Y-46980000D03*
X190510000Y-46980000D03*
X187970000Y-46980000D03*
X185430000Y-46980000D03*
X182890000Y-46980000D03*
X180350000Y-46980000D03*
X177810000Y-46980000D03*
X175270000Y-46980000D03*
D14*
X206533750Y-110807500D03*
D16*
X209073750Y-115887500D03*
X198913750Y-115887500D03*
D14*
X200183750Y-113347500D03*
D15*
X203993750Y-115887500D03*
D14*
X63658750Y-91757500D03*
D15*
X61118750Y-96837500D03*
D16*
X66198750Y-96837500D03*
D14*
X57308750Y-94297500D03*
D16*
X56038750Y-96837500D03*
X248920000Y-77787500D03*
D14*
X250190000Y-75247500D03*
D15*
X254000000Y-77787500D03*
D16*
X259080000Y-77787500D03*
D14*
X256540000Y-72707500D03*
D22*
X103987500Y-141922500D03*
D23*
X203987500Y-126712500D03*
D22*
X203987500Y-141922500D03*
D23*
X103987500Y-126712500D03*
X165862000Y-126712500D03*
D22*
X189738000Y-141922500D03*
D23*
X189738000Y-126712500D03*
D22*
X165862000Y-141922500D03*
D17*
X112712500Y-56515000D03*
D18*
X112712500Y-64135000D03*
D16*
X213836250Y-77787500D03*
D15*
X208756250Y-77787500D03*
D14*
X211296250Y-72707500D03*
D16*
X203676250Y-77787500D03*
D14*
X204946250Y-75247500D03*
X96996250Y-129857500D03*
D16*
X99536250Y-134937500D03*
X89376250Y-134937500D03*
D15*
X94456250Y-134937500D03*
D14*
X90646250Y-132397500D03*
D17*
X115887500Y-56515000D03*
D18*
X115887500Y-64135000D03*
D17*
X55562500Y-56515000D03*
D18*
X55562500Y-64135000D03*
D16*
X80486250Y-134937500D03*
D14*
X71596250Y-132397500D03*
X77946250Y-129857500D03*
D16*
X70326250Y-134937500D03*
D15*
X75406250Y-134937500D03*
D14*
X113665000Y-129857500D03*
D16*
X106045000Y-134937500D03*
X116205000Y-134937500D03*
D14*
X107315000Y-132397500D03*
D15*
X111125000Y-134937500D03*
D27*
X152200250Y-52050000D03*
X151350250Y-52050000D03*
X150500250Y-52050000D03*
X149650250Y-52050000D03*
X148800250Y-52050000D03*
X147950250Y-52050000D03*
X147100250Y-52050000D03*
X146250250Y-52050000D03*
X146245250Y-50725000D03*
X147095250Y-50725000D03*
X147945250Y-50725000D03*
X148795250Y-50725000D03*
X149645250Y-50725000D03*
X150495250Y-50725000D03*
X151345250Y-50725000D03*
X152200250Y-50725000D03*
D28*
X153550250Y-47690000D03*
X144900250Y-47690000D03*
D29*
X144900250Y-51070000D03*
X153550250Y-51070000D03*
D16*
X217963750Y-134937500D03*
D14*
X219233750Y-132397500D03*
D15*
X223043750Y-134937500D03*
D14*
X225583750Y-129857500D03*
D16*
X228123750Y-134937500D03*
D15*
X58737500Y-134937500D03*
D14*
X54927500Y-132397500D03*
X61277500Y-129857500D03*
D16*
X63817500Y-134937500D03*
X53657500Y-134937500D03*
X34607500Y-134937500D03*
D15*
X39687500Y-134937500D03*
D16*
X44767500Y-134937500D03*
D14*
X42227500Y-129857500D03*
X35877500Y-132397500D03*
X195421250Y-132397500D03*
D16*
X194151250Y-134937500D03*
D14*
X201771250Y-129857500D03*
D16*
X204311250Y-134937500D03*
D15*
X199231250Y-134937500D03*
D17*
X84137500Y-56515000D03*
D18*
X84137500Y-64135000D03*
D17*
X223837500Y-56515000D03*
D18*
X223837500Y-64135000D03*
D16*
X123348750Y-96837500D03*
X113188750Y-96837500D03*
D14*
X120808750Y-91757500D03*
D15*
X118268750Y-96837500D03*
D14*
X114458750Y-94297500D03*
D17*
X236537500Y-56515000D03*
D18*
X236537500Y-64135000D03*
D30*
X194400000Y-60325000D03*
X199280000Y-60325000D03*
D14*
X109696250Y-75247500D03*
D16*
X108426250Y-77787500D03*
X118586250Y-77787500D03*
D15*
X113506250Y-77787500D03*
D14*
X116046250Y-72707500D03*
X40640000Y-113347500D03*
D15*
X44450000Y-115887500D03*
D16*
X49530000Y-115887500D03*
X39370000Y-115887500D03*
D14*
X46990000Y-110807500D03*
D17*
X71437500Y-56515000D03*
D18*
X71437500Y-64135000D03*
D14*
X154146250Y-72707500D03*
D16*
X156686250Y-77787500D03*
D14*
X147796250Y-75247500D03*
D15*
X151606250Y-77787500D03*
D16*
X146526250Y-77787500D03*
D19*
X50403250Y-87312500D03*
D17*
X220662500Y-56515000D03*
D18*
X220662500Y-64135000D03*
D16*
X194786250Y-77787500D03*
D15*
X189706250Y-77787500D03*
D14*
X192246250Y-72707500D03*
D16*
X184626250Y-77787500D03*
D14*
X185896250Y-75247500D03*
D17*
X65087500Y-56515000D03*
D18*
X65087500Y-64135000D03*
D17*
X156845000Y-62865000D03*
D18*
X149225000Y-62865000D03*
D22*
X99225000Y-141922500D03*
X199225000Y-141922500D03*
D23*
X99225000Y-126712500D03*
X199225000Y-126712500D03*
D14*
X190658750Y-94297500D03*
D15*
X194468750Y-96837500D03*
D16*
X199548750Y-96837500D03*
X189388750Y-96837500D03*
D14*
X197008750Y-91757500D03*
D16*
X84613750Y-115887500D03*
D14*
X85883750Y-113347500D03*
D15*
X89693750Y-115887500D03*
D14*
X92233750Y-110807500D03*
D16*
X94773750Y-115887500D03*
D14*
X263683750Y-110807500D03*
D15*
X261143750Y-115887500D03*
D16*
X266223750Y-115887500D03*
X256063750Y-115887500D03*
D14*
X257333750Y-113347500D03*
D16*
X182880000Y-134937500D03*
D14*
X173990000Y-132397500D03*
D16*
X172720000Y-134937500D03*
D14*
X180340000Y-129857500D03*
D15*
X177800000Y-134937500D03*
D17*
X217487500Y-56515000D03*
D18*
X217487500Y-64135000D03*
D26*
X204470000Y-61595000D03*
X204470000Y-59095000D03*
D23*
X99187000Y-126712500D03*
X123063000Y-126712500D03*
D22*
X123063000Y-141922500D03*
X99187000Y-141922500D03*
D20*
X162560000Y-50800000D03*
D21*
X170180000Y-50800000D03*
D17*
X119062500Y-56515000D03*
D18*
X119062500Y-64135000D03*
D17*
X239712500Y-56515000D03*
D18*
X239712500Y-64135000D03*
D17*
X61912500Y-56515000D03*
D18*
X61912500Y-64135000D03*
D22*
X137350500Y-141922500D03*
D23*
X113474500Y-126712500D03*
D22*
X113474500Y-141922500D03*
D23*
X137350500Y-126712500D03*
D15*
X82550000Y-134937500D03*
D14*
X85090000Y-129857500D03*
D16*
X77470000Y-134937500D03*
X87630000Y-134937500D03*
D14*
X78740000Y-132397500D03*
X57308750Y-132397500D03*
X63658750Y-129857500D03*
D16*
X66198750Y-134937500D03*
X56038750Y-134937500D03*
D15*
X61118750Y-134937500D03*
D14*
X56515000Y-129857500D03*
D16*
X59055000Y-134937500D03*
X48895000Y-134937500D03*
D15*
X53975000Y-134937500D03*
D14*
X50165000Y-132397500D03*
D16*
X32226250Y-134937500D03*
D14*
X39846250Y-129857500D03*
X33496250Y-132397500D03*
D15*
X37306250Y-134937500D03*
D16*
X42386250Y-134937500D03*
X97155000Y-134937500D03*
D15*
X92075000Y-134937500D03*
D16*
X86995000Y-134937500D03*
D14*
X88265000Y-132397500D03*
X94615000Y-129857500D03*
X244633750Y-110807500D03*
D16*
X247173750Y-115887500D03*
D14*
X238283750Y-113347500D03*
D15*
X242093750Y-115887500D03*
D16*
X237013750Y-115887500D03*
D17*
X87312500Y-56515000D03*
D18*
X87312500Y-64135000D03*
D20*
X170180000Y-55880000D03*
D21*
X162560000Y-55880000D03*
D14*
X66833750Y-113347500D03*
D16*
X65563750Y-115887500D03*
D14*
X73183750Y-110807500D03*
D16*
X75723750Y-115887500D03*
D15*
X70643750Y-115887500D03*
D31*
X158750000Y-53042600D03*
D32*
X158750000Y-51042600D03*
D16*
X225742500Y-134937500D03*
D15*
X220662500Y-134937500D03*
D14*
X223202500Y-129857500D03*
D16*
X215582500Y-134937500D03*
D14*
X216852500Y-132397500D03*
D19*
X265668750Y-48262500D03*
D20*
X162560000Y-48260000D03*
D21*
X170180000Y-48260000D03*
D14*
X101758750Y-91757500D03*
D15*
X99218750Y-96837500D03*
D16*
X94138750Y-96837500D03*
X104298750Y-96837500D03*
D14*
X95408750Y-94297500D03*
D16*
X256063750Y-134937500D03*
D14*
X257333750Y-132397500D03*
D16*
X266223750Y-134937500D03*
D14*
X263683750Y-129857500D03*
D15*
X261143750Y-134937500D03*
D17*
X125412500Y-56515000D03*
D18*
X125412500Y-64135000D03*
D17*
X214312500Y-56515000D03*
D18*
X214312500Y-64135000D03*
D14*
X143033750Y-113347500D03*
D16*
X141763750Y-115887500D03*
X151923750Y-115887500D03*
D14*
X149383750Y-110807500D03*
D15*
X146843750Y-115887500D03*
D16*
X85248750Y-96837500D03*
D15*
X80168750Y-96837500D03*
D16*
X75088750Y-96837500D03*
D14*
X82708750Y-91757500D03*
X76358750Y-94297500D03*
D16*
X228123750Y-115887500D03*
X217963750Y-115887500D03*
D14*
X219233750Y-113347500D03*
X225583750Y-110807500D03*
D15*
X223043750Y-115887500D03*
D17*
X49212500Y-56515000D03*
D18*
X49212500Y-64135000D03*
D17*
X77787500Y-56515000D03*
D18*
X77787500Y-64135000D03*
D33*
X139700000Y-50800000D03*
X139710000Y-45720000D03*
D17*
X103187500Y-56515000D03*
D18*
X103187500Y-64135000D03*
D14*
X162083750Y-132397500D03*
D16*
X170973750Y-134937500D03*
X160813750Y-134937500D03*
D14*
X168433750Y-129857500D03*
D15*
X165893750Y-134937500D03*
D16*
X159067500Y-134937500D03*
X148907500Y-134937500D03*
D15*
X153987500Y-134937500D03*
D14*
X150177500Y-132397500D03*
X156527500Y-129857500D03*
D16*
X170338750Y-96837500D03*
D15*
X175418750Y-96837500D03*
D14*
X177958750Y-91757500D03*
D16*
X180498750Y-96837500D03*
D14*
X171608750Y-94297500D03*
D15*
X137318750Y-96837500D03*
D14*
X133508750Y-94297500D03*
D16*
X142398750Y-96837500D03*
D14*
X139858750Y-91757500D03*
D16*
X132238750Y-96837500D03*
D23*
X203993750Y-126712500D03*
D22*
X203993750Y-141922500D03*
X89693750Y-141922500D03*
D23*
X89693750Y-126712500D03*
D19*
X265668750Y-63262500D03*
D14*
X173196250Y-72707500D03*
D15*
X170656250Y-77787500D03*
D16*
X175736250Y-77787500D03*
D14*
X166846250Y-75247500D03*
D16*
X165576250Y-77787500D03*
D34*
X157475000Y-46990000D03*
D35*
X160015000Y-46990000D03*
D33*
X90730000Y-46010000D03*
X97230000Y-46010000D03*
X97230000Y-50510000D03*
X90730000Y-50510000D03*
X102160000Y-46010000D03*
X108660000Y-46010000D03*
X102160000Y-50510000D03*
X108660000Y-50510000D03*
D14*
X71596250Y-75247500D03*
D16*
X80486250Y-77787500D03*
D14*
X77946250Y-72707500D03*
D15*
X75406250Y-77787500D03*
D16*
X70326250Y-77787500D03*
D17*
X211137500Y-56515000D03*
D18*
X211137500Y-64135000D03*
D14*
X151765000Y-129857500D03*
D16*
X154305000Y-134937500D03*
D15*
X149225000Y-134937500D03*
D16*
X144145000Y-134937500D03*
D14*
X145415000Y-132397500D03*
X223996250Y-75247500D03*
D16*
X232886250Y-77787500D03*
X222726250Y-77787500D03*
D15*
X227806250Y-77787500D03*
D14*
X230346250Y-72707500D03*
D17*
X246062500Y-56515000D03*
D18*
X246062500Y-64135000D03*
D17*
X52387500Y-56515000D03*
D18*
X52387500Y-64135000D03*
D17*
X258762500Y-56515000D03*
D18*
X258762500Y-64135000D03*
D17*
X100012500Y-56515000D03*
D18*
X100012500Y-64135000D03*
D17*
X134937500Y-56515000D03*
D18*
X134937500Y-64135000D03*
D17*
X233362500Y-56515000D03*
D18*
X233362500Y-64135000D03*
D17*
X252412500Y-56515000D03*
D18*
X252412500Y-64135000D03*
D17*
X138112500Y-56515000D03*
D18*
X138112500Y-64135000D03*
M02*
