M48
; DRILL file {KiCad (6.0.1)} date Fri Dec  2 15:23:17 2022
; FORMAT={-:-/ absolute / metric / decimal}
; #@! TF.CreationDate,2022-12-02T15:23:17+01:00
; #@! TF.GenerationSoftware,Kicad,Pcbnew,(6.0.1)
; #@! TF.FileFunction,Plated,1,2,PTH
FMAT,2
METRIC
; #@! TA.AperFunction,Plated,PTH,ViaDrill
T1C0.400
; #@! TA.AperFunction,Plated,PTH,ComponentDrill
T2C0.400
; #@! TA.AperFunction,Plated,PTH,ComponentDrill
T3C0.600
; #@! TA.AperFunction,Plated,PTH,ComponentDrill
T4C0.700
; #@! TA.AperFunction,Plated,PTH,ComponentDrill
T5C0.800
; #@! TA.AperFunction,Plated,PTH,ComponentDrill
T6C0.900
; #@! TA.AperFunction,Plated,PTH,ComponentDrill
T7C1.000
; #@! TA.AperFunction,Plated,PTH,ComponentDrill
T8C1.100
; #@! TA.AperFunction,Plated,PTH,ComponentDrill
T9C1.500
%
G90
G05
T1
X81.28Y-125.73
X120.015Y-45.085
X139.7Y-56.515
X139.7Y-60.325
X146.844Y-125.412
X148.8Y-53.594
X149.646Y-54.127
X170.18Y-64.77
X171.45Y-64.77
X172.72Y-47.625
X172.72Y-64.77
X173.979Y-48.884
X173.984Y-49.905
X173.99Y-50.927
X173.99Y-51.943
X173.99Y-64.77
X177.041Y-45.191
X177.364Y-48.696
X177.8Y-44.541
X186.69Y-49.856
X192.405Y-48.986
X193.675Y-49.713
X207.01Y-50.8
X242.094Y-106.362
X252.412Y-54.769
T2
X146.245Y-50.725
X146.25Y-52.05
X147.095Y-50.725
X147.1Y-52.05
X147.945Y-50.725
X147.95Y-52.05
X148.795Y-50.725
X148.8Y-52.05
X149.645Y-50.725
X149.65Y-52.05
X150.495Y-50.725
X150.5Y-52.05
X151.345Y-50.725
X151.35Y-52.05
X152.2Y-50.725
X152.2Y-52.05
T3
X158.75Y-51.043
X158.75Y-53.043
T4
X162.56Y-45.72
X162.56Y-48.26
X162.56Y-50.8
X162.56Y-53.34
X162.56Y-55.88
X162.56Y-58.42
X162.56Y-60.96
X170.18Y-45.72
X170.18Y-48.26
X170.18Y-50.8
X170.18Y-53.34
X170.18Y-55.88
X170.18Y-58.42
X170.18Y-60.96
T5
X39.688Y-56.515
X39.688Y-64.135
X42.862Y-56.515
X42.862Y-64.135
X46.038Y-56.515
X46.038Y-64.135
X49.212Y-56.515
X49.212Y-64.135
X52.387Y-56.515
X52.387Y-64.135
X55.562Y-56.515
X55.562Y-64.135
X58.737Y-56.515
X58.737Y-64.135
X61.912Y-56.515
X61.912Y-64.135
X65.087Y-56.515
X65.087Y-64.135
X68.263Y-56.515
X68.263Y-64.135
X71.438Y-56.515
X71.438Y-64.135
X74.612Y-56.515
X74.612Y-64.135
X77.787Y-56.515
X77.787Y-64.135
X80.962Y-56.515
X80.962Y-64.135
X84.138Y-56.515
X84.138Y-64.135
X87.312Y-56.515
X87.312Y-64.135
X90.487Y-56.515
X90.487Y-64.135
X93.662Y-56.515
X93.662Y-64.135
X96.837Y-56.515
X96.837Y-64.135
X100.012Y-56.515
X100.012Y-64.135
X103.188Y-56.515
X103.188Y-64.135
X106.362Y-56.515
X106.362Y-64.135
X109.537Y-56.515
X109.537Y-64.135
X112.712Y-56.515
X112.712Y-64.135
X115.887Y-56.515
X115.887Y-64.135
X119.062Y-56.515
X119.062Y-64.135
X122.237Y-56.515
X122.237Y-64.135
X125.412Y-56.515
X125.412Y-64.135
X128.588Y-56.515
X128.588Y-64.135
X131.762Y-56.515
X131.762Y-64.135
X134.938Y-56.515
X134.938Y-64.135
X138.112Y-56.515
X138.112Y-64.135
X149.225Y-59.69
X149.225Y-62.865
X156.845Y-59.69
X156.845Y-62.865
X175.27Y-46.98
X175.27Y-54.6
X177.81Y-46.98
X177.81Y-54.6
X180.35Y-46.98
X180.35Y-54.6
X181.61Y-60.325
X182.89Y-46.98
X182.89Y-54.6
X185.43Y-46.98
X185.43Y-54.6
X186.61Y-60.325
X187.97Y-46.98
X187.97Y-54.6
X189.23Y-59.095
X189.23Y-61.595
X190.51Y-46.98
X190.51Y-54.6
X190.54Y-44.45
X193.05Y-46.98
X193.05Y-54.6
X194.4Y-60.325
X195.54Y-44.45
X195.59Y-46.98
X195.59Y-54.6
X198.13Y-46.98
X198.13Y-54.6
X199.28Y-60.325
X200.67Y-46.98
X200.67Y-54.6
X203.21Y-46.98
X203.21Y-54.6
X204.47Y-59.095
X204.47Y-61.595
X205.75Y-46.98
X205.75Y-54.6
X208.29Y-46.98
X208.29Y-54.6
X211.137Y-56.515
X211.137Y-64.135
X214.312Y-56.515
X214.312Y-64.135
X217.487Y-56.515
X217.487Y-64.135
X220.662Y-56.515
X220.662Y-64.135
X223.837Y-56.515
X223.837Y-64.135
X227.012Y-56.515
X227.012Y-64.135
X230.188Y-56.515
X230.188Y-64.135
X233.362Y-56.515
X233.362Y-64.135
X236.537Y-56.515
X236.537Y-64.135
X239.712Y-56.515
X239.712Y-64.135
X242.887Y-56.515
X242.887Y-64.135
X246.062Y-56.515
X246.062Y-64.135
X249.237Y-56.515
X249.237Y-64.135
X252.412Y-56.515
X252.412Y-64.135
X255.587Y-56.515
X255.587Y-64.135
X258.762Y-56.515
X258.762Y-64.135
T6
X157.475Y-46.99
X160.015Y-46.99
T7
X114.3Y-46.99
X114.3Y-49.53
X116.84Y-46.99
X116.84Y-49.53
X119.38Y-46.99
X119.38Y-49.53
X139.7Y-50.8
X139.71Y-45.72
T8
X90.73Y-46.01
X90.73Y-50.51
X97.23Y-46.01
X97.23Y-50.51
X102.16Y-46.01
X102.16Y-50.51
X108.66Y-46.01
X108.66Y-50.51
T9
X33.496Y-75.248
X33.496Y-132.398
X35.877Y-94.297
X35.877Y-132.398
X39.846Y-72.707
X39.846Y-129.857
X40.64Y-113.347
X42.227Y-91.757
X42.227Y-129.857
X46.99Y-110.807
X50.165Y-132.398
X52.546Y-75.248
X52.546Y-132.398
X54.927Y-132.398
X56.515Y-129.857
X57.309Y-94.297
X57.309Y-132.398
X58.896Y-72.707
X58.896Y-129.857
X61.277Y-129.857
X62.071Y-132.398
X63.659Y-91.757
X63.659Y-129.857
X66.834Y-113.347
X68.421Y-129.857
X71.596Y-75.248
X71.596Y-132.398
X73.184Y-110.807
X73.977Y-132.398
X76.359Y-94.297
X76.359Y-132.398
X77.946Y-72.707
X77.946Y-129.857
X78.74Y-132.398
X80.328Y-129.857
X82.709Y-91.757
X82.709Y-129.857
X85.09Y-129.857
X85.884Y-113.347
X88.265Y-132.398
X90.646Y-75.248
X90.646Y-132.398
X92.234Y-110.807
X94.615Y-129.857
X95.409Y-94.297
X96.996Y-72.707
X96.996Y-129.857
X101.759Y-91.757
X104.934Y-113.347
X107.315Y-132.398
X109.696Y-75.248
X111.284Y-110.807
X113.665Y-129.857
X114.459Y-94.297
X116.046Y-72.707
X120.809Y-91.757
X121.602Y-132.398
X123.984Y-113.347
X127.953Y-129.857
X128.746Y-75.248
X130.334Y-110.807
X133.509Y-94.297
X135.096Y-72.707
X138.271Y-132.398
X139.859Y-91.757
X143.034Y-113.347
X143.034Y-132.398
X144.621Y-129.857
X145.415Y-132.398
X147.796Y-75.248
X149.384Y-110.807
X149.384Y-129.857
X150.177Y-132.398
X151.765Y-129.857
X152.559Y-94.297
X154.146Y-72.707
X156.528Y-129.857
X158.909Y-91.757
X162.084Y-113.347
X162.084Y-132.398
X166.846Y-75.248
X168.434Y-110.807
X168.434Y-129.857
X171.609Y-94.297
X173.196Y-72.707
X173.99Y-132.398
X177.959Y-91.757
X180.34Y-129.857
X181.134Y-113.347
X185.896Y-75.248
X187.484Y-110.807
X190.659Y-94.297
X192.246Y-72.707
X193.04Y-132.398
X195.421Y-132.398
X197.009Y-91.757
X199.39Y-129.857
X200.184Y-113.347
X201.771Y-129.857
X204.946Y-75.248
X206.534Y-110.807
X209.709Y-94.297
X211.296Y-72.707
X216.059Y-91.757
X216.852Y-132.398
X219.234Y-113.347
X219.234Y-132.398
X219.234Y-132.398
X223.202Y-129.857
X223.996Y-75.248
X225.584Y-110.807
X225.584Y-129.857
X225.584Y-129.857
X228.759Y-94.297
X230.346Y-72.707
X235.109Y-91.757
X238.284Y-113.347
X238.284Y-132.398
X240.665Y-132.398
X244.634Y-110.807
X244.634Y-129.857
X247.015Y-129.857
X250.19Y-75.248
X250.19Y-132.398
X252.571Y-94.297
X256.54Y-72.707
X256.54Y-129.857
X257.334Y-113.347
X257.334Y-132.398
X258.921Y-91.757
X263.684Y-110.807
X263.684Y-129.857
T3
X144.9Y-48.09G85X144.9Y-47.29
G05
X144.9Y-51.82G85X144.9Y-50.32
G05
X153.55Y-48.09G85X153.55Y-47.29
G05
X153.55Y-51.82G85X153.55Y-50.32
G05
T0
M30
