G04 #@! TF.GenerationSoftware,KiCad,Pcbnew,(6.0.1)*
G04 #@! TF.CreationDate,2022-12-02T15:22:06+01:00*
G04 #@! TF.ProjectId,pcb,7063622e-6b69-4636-9164-5f7063625858,rev?*
G04 #@! TF.SameCoordinates,Original*
G04 #@! TF.FileFunction,Soldermask,Bot*
G04 #@! TF.FilePolarity,Negative*
%FSLAX46Y46*%
G04 Gerber Fmt 4.6, Leading zero omitted, Abs format (unit mm)*
G04 Created by KiCad (PCBNEW (6.0.1)) date 2022-12-02 15:22:06*
%MOMM*%
%LPD*%
G01*
G04 APERTURE LIST*
%ADD10C,2.500000*%
%ADD11C,4.000000*%
%ADD12C,1.750000*%
%ADD13R,1.600000X1.600000*%
%ADD14O,1.600000X1.600000*%
%ADD15C,3.500000*%
%ADD16C,1.400000*%
%ADD17O,1.400000X1.400000*%
%ADD18C,3.048000*%
%ADD19C,3.987800*%
%ADD20O,1.700000X1.700000*%
%ADD21R,1.700000X1.700000*%
%ADD22C,1.600000*%
%ADD23C,0.650000*%
%ADD24O,0.900000X1.700000*%
%ADD25O,0.900000X2.400000*%
%ADD26C,1.500000*%
%ADD27R,1.200000X1.200000*%
%ADD28C,1.200000*%
%ADD29C,2.000000*%
%ADD30R,1.800000X1.800000*%
%ADD31C,1.800000*%
G04 APERTURE END LIST*
D10*
X235108750Y-91757500D03*
X228758750Y-94297500D03*
D11*
X232568750Y-96837500D03*
D12*
X227488750Y-96837500D03*
X237648750Y-96837500D03*
D10*
X216058750Y-91757500D03*
X209708750Y-94297500D03*
D12*
X208438750Y-96837500D03*
X218598750Y-96837500D03*
D11*
X213518750Y-96837500D03*
D10*
X58896250Y-72707500D03*
X52546250Y-75247500D03*
D12*
X51276250Y-77787500D03*
D11*
X56356250Y-77787500D03*
D12*
X61436250Y-77787500D03*
D10*
X135096250Y-72707500D03*
X128746250Y-75247500D03*
D11*
X132556250Y-77787500D03*
D12*
X127476250Y-77787500D03*
X137636250Y-77787500D03*
D13*
X74612500Y-56515000D03*
D14*
X74612500Y-64135000D03*
D13*
X230187500Y-56515000D03*
D14*
X230187500Y-64135000D03*
D13*
X39687500Y-56515000D03*
D14*
X39687500Y-64135000D03*
D15*
X232569250Y-125412500D03*
D10*
X96996250Y-72707500D03*
X90646250Y-75247500D03*
D12*
X89376250Y-77787500D03*
X99536250Y-77787500D03*
D11*
X94456250Y-77787500D03*
D10*
X256540000Y-129857500D03*
X250190000Y-132397500D03*
D12*
X248920000Y-134937500D03*
D11*
X254000000Y-134937500D03*
D12*
X259080000Y-134937500D03*
D13*
X227012500Y-56515000D03*
D14*
X227012500Y-64135000D03*
D13*
X68262500Y-56515000D03*
D14*
X68262500Y-64135000D03*
D10*
X258921250Y-91757500D03*
X252571250Y-94297500D03*
D11*
X256381250Y-96837500D03*
D12*
X261461250Y-96837500D03*
X251301250Y-96837500D03*
D13*
X58737500Y-56515000D03*
D14*
X58737500Y-64135000D03*
D15*
X32781250Y-63262500D03*
D10*
X149383750Y-129857500D03*
X143033750Y-132397500D03*
D12*
X151923750Y-134937500D03*
D11*
X146843750Y-134937500D03*
D12*
X141763750Y-134937500D03*
D10*
X199390000Y-129857500D03*
X193040000Y-132397500D03*
D12*
X191770000Y-134937500D03*
D11*
X196850000Y-134937500D03*
D12*
X201930000Y-134937500D03*
D16*
X170180000Y-45720000D03*
D17*
X162560000Y-45720000D03*
D15*
X242225250Y-87312500D03*
D18*
X153955750Y-141922500D03*
D19*
X177831750Y-126712500D03*
X153955750Y-126712500D03*
D18*
X177831750Y-141922500D03*
D10*
X82708750Y-129857500D03*
X76358750Y-132397500D03*
D11*
X80168750Y-134937500D03*
D12*
X75088750Y-134937500D03*
X85248750Y-134937500D03*
D16*
X162560000Y-53340000D03*
D17*
X170180000Y-53340000D03*
D13*
X80962500Y-56515000D03*
D14*
X80962500Y-64135000D03*
D13*
X93662500Y-56515000D03*
D14*
X93662500Y-64135000D03*
D10*
X39846250Y-72707500D03*
X33496250Y-75247500D03*
D11*
X37306250Y-77787500D03*
D12*
X42386250Y-77787500D03*
X32226250Y-77787500D03*
D10*
X127952500Y-129857500D03*
X121602500Y-132397500D03*
D11*
X125412500Y-134937500D03*
D12*
X120332500Y-134937500D03*
X130492500Y-134937500D03*
D16*
X170180000Y-58420000D03*
D17*
X162560000Y-58420000D03*
D13*
X96837500Y-56515000D03*
D14*
X96837500Y-64135000D03*
D20*
X119380000Y-46990000D03*
X119380000Y-49530000D03*
X116840000Y-46990000D03*
X116840000Y-49530000D03*
X114300000Y-46990000D03*
D21*
X114300000Y-49530000D03*
D13*
X128587500Y-56515000D03*
D14*
X128587500Y-64135000D03*
D16*
X162560000Y-60960000D03*
D17*
X170180000Y-60960000D03*
D15*
X146844250Y-87312500D03*
X59797250Y-125412500D03*
D13*
X109537500Y-56515000D03*
D14*
X109537500Y-64135000D03*
D13*
X46037500Y-56515000D03*
D14*
X46037500Y-64135000D03*
D13*
X242887500Y-56515000D03*
D14*
X242887500Y-64135000D03*
D13*
X131762500Y-56515000D03*
D14*
X131762500Y-64135000D03*
D10*
X58896250Y-129857500D03*
X52546250Y-132397500D03*
D12*
X61436250Y-134937500D03*
D11*
X56356250Y-134937500D03*
D12*
X51276250Y-134937500D03*
D13*
X90487500Y-56515000D03*
D14*
X90487500Y-64135000D03*
D10*
X111283750Y-110807500D03*
X104933750Y-113347500D03*
D11*
X108743750Y-115887500D03*
D12*
X113823750Y-115887500D03*
X103663750Y-115887500D03*
D22*
X181610000Y-60325000D03*
X186610000Y-60325000D03*
D15*
X32781250Y-48262500D03*
D10*
X187483750Y-110807500D03*
X181133750Y-113347500D03*
D12*
X179863750Y-115887500D03*
X190023750Y-115887500D03*
D11*
X184943750Y-115887500D03*
D10*
X42227500Y-91757500D03*
X35877500Y-94297500D03*
D11*
X39687500Y-96837500D03*
D12*
X44767500Y-96837500D03*
X34607500Y-96837500D03*
D13*
X42862500Y-56515000D03*
D14*
X42862500Y-64135000D03*
D13*
X122237500Y-56515000D03*
D14*
X122237500Y-64135000D03*
D10*
X225583750Y-129857500D03*
X219233750Y-132397500D03*
D12*
X217963750Y-134937500D03*
D11*
X223043750Y-134937500D03*
D12*
X228123750Y-134937500D03*
D22*
X189230000Y-61595000D03*
X189230000Y-59095000D03*
D10*
X158908750Y-91757500D03*
X152558750Y-94297500D03*
D12*
X151288750Y-96837500D03*
D11*
X156368750Y-96837500D03*
D12*
X161448750Y-96837500D03*
D10*
X68421250Y-129857500D03*
X62071250Y-132397500D03*
D12*
X60801250Y-134937500D03*
D11*
X65881250Y-134937500D03*
D12*
X70961250Y-134937500D03*
D10*
X247015000Y-129857500D03*
X240665000Y-132397500D03*
D12*
X249555000Y-134937500D03*
X239395000Y-134937500D03*
D11*
X244475000Y-134937500D03*
D10*
X168433750Y-110807500D03*
X162083750Y-113347500D03*
D12*
X160813750Y-115887500D03*
X170973750Y-115887500D03*
D11*
X165893750Y-115887500D03*
D13*
X156845000Y-59690000D03*
D14*
X149225000Y-59690000D03*
D10*
X144621250Y-129857500D03*
X138271250Y-132397500D03*
D12*
X137001250Y-134937500D03*
X147161250Y-134937500D03*
D11*
X142081250Y-134937500D03*
D10*
X80327500Y-129857500D03*
X73977500Y-132397500D03*
D11*
X77787500Y-134937500D03*
D12*
X72707500Y-134937500D03*
X82867500Y-134937500D03*
D10*
X130333750Y-110807500D03*
X123983750Y-113347500D03*
D12*
X132873750Y-115887500D03*
D11*
X127793750Y-115887500D03*
D12*
X122713750Y-115887500D03*
D13*
X249237500Y-56515000D03*
D14*
X249237500Y-64135000D03*
D22*
X195540000Y-44450000D03*
X190540000Y-44450000D03*
D13*
X106362500Y-56515000D03*
D14*
X106362500Y-64135000D03*
D10*
X244633750Y-129857500D03*
X238283750Y-132397500D03*
D11*
X242093750Y-134937500D03*
D12*
X247173750Y-134937500D03*
X237013750Y-134937500D03*
D13*
X255587500Y-56515000D03*
D14*
X255587500Y-64135000D03*
D13*
X175270000Y-54600000D03*
D14*
X177810000Y-54600000D03*
X180350000Y-54600000D03*
X182890000Y-54600000D03*
X185430000Y-54600000D03*
X187970000Y-54600000D03*
X190510000Y-54600000D03*
X193050000Y-54600000D03*
X195590000Y-54600000D03*
X198130000Y-54600000D03*
X200670000Y-54600000D03*
X203210000Y-54600000D03*
X205750000Y-54600000D03*
X208290000Y-54600000D03*
X208290000Y-46980000D03*
X205750000Y-46980000D03*
X203210000Y-46980000D03*
X200670000Y-46980000D03*
X198130000Y-46980000D03*
X195590000Y-46980000D03*
X193050000Y-46980000D03*
X190510000Y-46980000D03*
X187970000Y-46980000D03*
X185430000Y-46980000D03*
X182890000Y-46980000D03*
X180350000Y-46980000D03*
X177810000Y-46980000D03*
X175270000Y-46980000D03*
D10*
X206533750Y-110807500D03*
X200183750Y-113347500D03*
D12*
X209073750Y-115887500D03*
X198913750Y-115887500D03*
D11*
X203993750Y-115887500D03*
D10*
X63658750Y-91757500D03*
X57308750Y-94297500D03*
D11*
X61118750Y-96837500D03*
D12*
X66198750Y-96837500D03*
X56038750Y-96837500D03*
D10*
X256540000Y-72707500D03*
X250190000Y-75247500D03*
D12*
X248920000Y-77787500D03*
D11*
X254000000Y-77787500D03*
D12*
X259080000Y-77787500D03*
D18*
X103987500Y-141922500D03*
D19*
X203987500Y-126712500D03*
D18*
X203987500Y-141922500D03*
D19*
X103987500Y-126712500D03*
X165862000Y-126712500D03*
D18*
X189738000Y-141922500D03*
D19*
X189738000Y-126712500D03*
D18*
X165862000Y-141922500D03*
D13*
X112712500Y-56515000D03*
D14*
X112712500Y-64135000D03*
D10*
X211296250Y-72707500D03*
X204946250Y-75247500D03*
D12*
X213836250Y-77787500D03*
D11*
X208756250Y-77787500D03*
D12*
X203676250Y-77787500D03*
D10*
X96996250Y-129857500D03*
X90646250Y-132397500D03*
D12*
X99536250Y-134937500D03*
X89376250Y-134937500D03*
D11*
X94456250Y-134937500D03*
D13*
X115887500Y-56515000D03*
D14*
X115887500Y-64135000D03*
D13*
X55562500Y-56515000D03*
D14*
X55562500Y-64135000D03*
D10*
X77946250Y-129857500D03*
X71596250Y-132397500D03*
D12*
X80486250Y-134937500D03*
X70326250Y-134937500D03*
D11*
X75406250Y-134937500D03*
D10*
X113665000Y-129857500D03*
X107315000Y-132397500D03*
D12*
X106045000Y-134937500D03*
X116205000Y-134937500D03*
D11*
X111125000Y-134937500D03*
D23*
X152200250Y-52050000D03*
X151350250Y-52050000D03*
X150500250Y-52050000D03*
X149650250Y-52050000D03*
X148800250Y-52050000D03*
X147950250Y-52050000D03*
X147100250Y-52050000D03*
X146250250Y-52050000D03*
X146245250Y-50725000D03*
X147095250Y-50725000D03*
X147945250Y-50725000D03*
X148795250Y-50725000D03*
X149645250Y-50725000D03*
X150495250Y-50725000D03*
X151345250Y-50725000D03*
X152200250Y-50725000D03*
D24*
X153550250Y-47690000D03*
X144900250Y-47690000D03*
D25*
X144900250Y-51070000D03*
X153550250Y-51070000D03*
D10*
X225583750Y-129857500D03*
X219233750Y-132397500D03*
D12*
X217963750Y-134937500D03*
D11*
X223043750Y-134937500D03*
D12*
X228123750Y-134937500D03*
D10*
X61277500Y-129857500D03*
X54927500Y-132397500D03*
D11*
X58737500Y-134937500D03*
D12*
X63817500Y-134937500D03*
X53657500Y-134937500D03*
D10*
X42227500Y-129857500D03*
X35877500Y-132397500D03*
D12*
X34607500Y-134937500D03*
D11*
X39687500Y-134937500D03*
D12*
X44767500Y-134937500D03*
D10*
X201771250Y-129857500D03*
X195421250Y-132397500D03*
D12*
X194151250Y-134937500D03*
X204311250Y-134937500D03*
D11*
X199231250Y-134937500D03*
D13*
X84137500Y-56515000D03*
D14*
X84137500Y-64135000D03*
D13*
X223837500Y-56515000D03*
D14*
X223837500Y-64135000D03*
D10*
X120808750Y-91757500D03*
X114458750Y-94297500D03*
D12*
X123348750Y-96837500D03*
X113188750Y-96837500D03*
D11*
X118268750Y-96837500D03*
D13*
X236537500Y-56515000D03*
D14*
X236537500Y-64135000D03*
D26*
X194400000Y-60325000D03*
X199280000Y-60325000D03*
D10*
X116046250Y-72707500D03*
X109696250Y-75247500D03*
D12*
X108426250Y-77787500D03*
X118586250Y-77787500D03*
D11*
X113506250Y-77787500D03*
D10*
X46990000Y-110807500D03*
X40640000Y-113347500D03*
D11*
X44450000Y-115887500D03*
D12*
X49530000Y-115887500D03*
X39370000Y-115887500D03*
D13*
X71437500Y-56515000D03*
D14*
X71437500Y-64135000D03*
D10*
X154146250Y-72707500D03*
X147796250Y-75247500D03*
D12*
X156686250Y-77787500D03*
D11*
X151606250Y-77787500D03*
D12*
X146526250Y-77787500D03*
D15*
X50403250Y-87312500D03*
D13*
X220662500Y-56515000D03*
D14*
X220662500Y-64135000D03*
D10*
X192246250Y-72707500D03*
X185896250Y-75247500D03*
D12*
X194786250Y-77787500D03*
D11*
X189706250Y-77787500D03*
D12*
X184626250Y-77787500D03*
D13*
X65087500Y-56515000D03*
D14*
X65087500Y-64135000D03*
D13*
X156845000Y-62865000D03*
D14*
X149225000Y-62865000D03*
D18*
X99225000Y-141922500D03*
X199225000Y-141922500D03*
D19*
X99225000Y-126712500D03*
X199225000Y-126712500D03*
D10*
X197008750Y-91757500D03*
X190658750Y-94297500D03*
D11*
X194468750Y-96837500D03*
D12*
X199548750Y-96837500D03*
X189388750Y-96837500D03*
D10*
X92233750Y-110807500D03*
X85883750Y-113347500D03*
D12*
X84613750Y-115887500D03*
D11*
X89693750Y-115887500D03*
D12*
X94773750Y-115887500D03*
D10*
X263683750Y-110807500D03*
X257333750Y-113347500D03*
D11*
X261143750Y-115887500D03*
D12*
X266223750Y-115887500D03*
X256063750Y-115887500D03*
D10*
X180340000Y-129857500D03*
X173990000Y-132397500D03*
D12*
X182880000Y-134937500D03*
X172720000Y-134937500D03*
D11*
X177800000Y-134937500D03*
D13*
X217487500Y-56515000D03*
D14*
X217487500Y-64135000D03*
D22*
X204470000Y-61595000D03*
X204470000Y-59095000D03*
D19*
X99187000Y-126712500D03*
X123063000Y-126712500D03*
D18*
X123063000Y-141922500D03*
X99187000Y-141922500D03*
D16*
X162560000Y-50800000D03*
D17*
X170180000Y-50800000D03*
D13*
X119062500Y-56515000D03*
D14*
X119062500Y-64135000D03*
D13*
X239712500Y-56515000D03*
D14*
X239712500Y-64135000D03*
D13*
X61912500Y-56515000D03*
D14*
X61912500Y-64135000D03*
D18*
X137350500Y-141922500D03*
D19*
X113474500Y-126712500D03*
D18*
X113474500Y-141922500D03*
D19*
X137350500Y-126712500D03*
D10*
X85090000Y-129857500D03*
X78740000Y-132397500D03*
D11*
X82550000Y-134937500D03*
D12*
X77470000Y-134937500D03*
X87630000Y-134937500D03*
D10*
X63658750Y-129857500D03*
X57308750Y-132397500D03*
D12*
X66198750Y-134937500D03*
X56038750Y-134937500D03*
D11*
X61118750Y-134937500D03*
D10*
X56515000Y-129857500D03*
X50165000Y-132397500D03*
D12*
X59055000Y-134937500D03*
X48895000Y-134937500D03*
D11*
X53975000Y-134937500D03*
D10*
X39846250Y-129857500D03*
X33496250Y-132397500D03*
D12*
X32226250Y-134937500D03*
D11*
X37306250Y-134937500D03*
D12*
X42386250Y-134937500D03*
D10*
X94615000Y-129857500D03*
X88265000Y-132397500D03*
D12*
X97155000Y-134937500D03*
D11*
X92075000Y-134937500D03*
D12*
X86995000Y-134937500D03*
D10*
X244633750Y-110807500D03*
X238283750Y-113347500D03*
D12*
X247173750Y-115887500D03*
D11*
X242093750Y-115887500D03*
D12*
X237013750Y-115887500D03*
D13*
X87312500Y-56515000D03*
D14*
X87312500Y-64135000D03*
D16*
X170180000Y-55880000D03*
D17*
X162560000Y-55880000D03*
D10*
X73183750Y-110807500D03*
X66833750Y-113347500D03*
D12*
X65563750Y-115887500D03*
X75723750Y-115887500D03*
D11*
X70643750Y-115887500D03*
D27*
X158750000Y-53042600D03*
D28*
X158750000Y-51042600D03*
D10*
X223202500Y-129857500D03*
X216852500Y-132397500D03*
D12*
X225742500Y-134937500D03*
D11*
X220662500Y-134937500D03*
D12*
X215582500Y-134937500D03*
D15*
X265668750Y-48262500D03*
D16*
X162560000Y-48260000D03*
D17*
X170180000Y-48260000D03*
D10*
X101758750Y-91757500D03*
X95408750Y-94297500D03*
D11*
X99218750Y-96837500D03*
D12*
X94138750Y-96837500D03*
X104298750Y-96837500D03*
D10*
X263683750Y-129857500D03*
X257333750Y-132397500D03*
D12*
X256063750Y-134937500D03*
X266223750Y-134937500D03*
D11*
X261143750Y-134937500D03*
D13*
X125412500Y-56515000D03*
D14*
X125412500Y-64135000D03*
D13*
X214312500Y-56515000D03*
D14*
X214312500Y-64135000D03*
D10*
X149383750Y-110807500D03*
X143033750Y-113347500D03*
D12*
X141763750Y-115887500D03*
X151923750Y-115887500D03*
D11*
X146843750Y-115887500D03*
D10*
X82708750Y-91757500D03*
X76358750Y-94297500D03*
D12*
X85248750Y-96837500D03*
D11*
X80168750Y-96837500D03*
D12*
X75088750Y-96837500D03*
D10*
X225583750Y-110807500D03*
X219233750Y-113347500D03*
D12*
X228123750Y-115887500D03*
X217963750Y-115887500D03*
D11*
X223043750Y-115887500D03*
D13*
X49212500Y-56515000D03*
D14*
X49212500Y-64135000D03*
D13*
X77787500Y-56515000D03*
D14*
X77787500Y-64135000D03*
D29*
X139700000Y-50800000D03*
X139710000Y-45720000D03*
D13*
X103187500Y-56515000D03*
D14*
X103187500Y-64135000D03*
D10*
X168433750Y-129857500D03*
X162083750Y-132397500D03*
D12*
X170973750Y-134937500D03*
X160813750Y-134937500D03*
D11*
X165893750Y-134937500D03*
D10*
X156527500Y-129857500D03*
X150177500Y-132397500D03*
D12*
X159067500Y-134937500D03*
X148907500Y-134937500D03*
D11*
X153987500Y-134937500D03*
D10*
X177958750Y-91757500D03*
X171608750Y-94297500D03*
D12*
X170338750Y-96837500D03*
D11*
X175418750Y-96837500D03*
D12*
X180498750Y-96837500D03*
D10*
X139858750Y-91757500D03*
X133508750Y-94297500D03*
D11*
X137318750Y-96837500D03*
D12*
X142398750Y-96837500D03*
X132238750Y-96837500D03*
D19*
X203993750Y-126712500D03*
D18*
X203993750Y-141922500D03*
X89693750Y-141922500D03*
D19*
X89693750Y-126712500D03*
D15*
X265668750Y-63262500D03*
D10*
X173196250Y-72707500D03*
X166846250Y-75247500D03*
D11*
X170656250Y-77787500D03*
D12*
X175736250Y-77787500D03*
X165576250Y-77787500D03*
D30*
X157475000Y-46990000D03*
D31*
X160015000Y-46990000D03*
D29*
X90730000Y-46010000D03*
X97230000Y-46010000D03*
X97230000Y-50510000D03*
X90730000Y-50510000D03*
X102160000Y-46010000D03*
X108660000Y-46010000D03*
X102160000Y-50510000D03*
X108660000Y-50510000D03*
D10*
X77946250Y-72707500D03*
X71596250Y-75247500D03*
D12*
X80486250Y-77787500D03*
D11*
X75406250Y-77787500D03*
D12*
X70326250Y-77787500D03*
D13*
X211137500Y-56515000D03*
D14*
X211137500Y-64135000D03*
D10*
X151765000Y-129857500D03*
X145415000Y-132397500D03*
D12*
X154305000Y-134937500D03*
D11*
X149225000Y-134937500D03*
D12*
X144145000Y-134937500D03*
D10*
X230346250Y-72707500D03*
X223996250Y-75247500D03*
D12*
X232886250Y-77787500D03*
X222726250Y-77787500D03*
D11*
X227806250Y-77787500D03*
D13*
X246062500Y-56515000D03*
D14*
X246062500Y-64135000D03*
D13*
X52387500Y-56515000D03*
D14*
X52387500Y-64135000D03*
D13*
X258762500Y-56515000D03*
D14*
X258762500Y-64135000D03*
D13*
X100012500Y-56515000D03*
D14*
X100012500Y-64135000D03*
D13*
X134937500Y-56515000D03*
D14*
X134937500Y-64135000D03*
D13*
X233362500Y-56515000D03*
D14*
X233362500Y-64135000D03*
D13*
X252412500Y-56515000D03*
D14*
X252412500Y-64135000D03*
D13*
X138112500Y-56515000D03*
D14*
X138112500Y-64135000D03*
M02*
