G04 #@! TF.GenerationSoftware,KiCad,Pcbnew,(6.0.1)*
G04 #@! TF.CreationDate,2022-12-02T16:53:04+01:00*
G04 #@! TF.ProjectId,backPlate,6261636b-506c-4617-9465-2e6b69636164,rev?*
G04 #@! TF.SameCoordinates,Original*
G04 #@! TF.FileFunction,Copper,L2,Bot*
G04 #@! TF.FilePolarity,Positive*
%FSLAX46Y46*%
G04 Gerber Fmt 4.6, Leading zero omitted, Abs format (unit mm)*
G04 Created by KiCad (PCBNEW (6.0.1)) date 2022-12-02 16:53:04*
%MOMM*%
%LPD*%
G01*
G04 APERTURE LIST*
G04 APERTURE END LIST*
G04 #@! TA.AperFunction,NonConductor*
G36*
X270206951Y-29975785D02*
G01*
X270242221Y-29979741D01*
X270266265Y-29977722D01*
X270287787Y-29977759D01*
X270418921Y-29989232D01*
X270440544Y-29993044D01*
X270553807Y-30023393D01*
X270587623Y-30032454D01*
X270608262Y-30039966D01*
X270746260Y-30104316D01*
X270765280Y-30115298D01*
X270890011Y-30202635D01*
X270906836Y-30216753D01*
X271014497Y-30324414D01*
X271028615Y-30341239D01*
X271115952Y-30465970D01*
X271126934Y-30484990D01*
X271191284Y-30622988D01*
X271198796Y-30643627D01*
X271238205Y-30790702D01*
X271242019Y-30812332D01*
X271252387Y-30930843D01*
X271252169Y-30948678D01*
X271252282Y-30948680D01*
X271252196Y-30954844D01*
X271251509Y-30960969D01*
X271252025Y-30967113D01*
X271255808Y-31012165D01*
X271256250Y-31022708D01*
X271256250Y-128111657D01*
X271255465Y-128125701D01*
X271251509Y-128160971D01*
X271252025Y-128167114D01*
X271253528Y-128185013D01*
X271253491Y-128206538D01*
X271242019Y-128337668D01*
X271238205Y-128359298D01*
X271198796Y-128506373D01*
X271191284Y-128527012D01*
X271126934Y-128665010D01*
X271115952Y-128684030D01*
X271028615Y-128808761D01*
X271014497Y-128825586D01*
X270906836Y-128933247D01*
X270890011Y-128947365D01*
X270765280Y-129034702D01*
X270746260Y-129045684D01*
X270608262Y-129110034D01*
X270587622Y-129117546D01*
X270440544Y-129156956D01*
X270418921Y-129160768D01*
X270300407Y-129171137D01*
X270282572Y-129170919D01*
X270282570Y-129171032D01*
X270276406Y-129170946D01*
X270270281Y-129170259D01*
X270219085Y-129174558D01*
X270208542Y-129175000D01*
X31432093Y-129175000D01*
X31418048Y-129174215D01*
X31388904Y-129170946D01*
X31382779Y-129170259D01*
X31358735Y-129172278D01*
X31337213Y-129172241D01*
X31206079Y-129160768D01*
X31184456Y-129156956D01*
X31037378Y-129117546D01*
X31016738Y-129110034D01*
X30878740Y-129045684D01*
X30859720Y-129034702D01*
X30734989Y-128947365D01*
X30718164Y-128933247D01*
X30610503Y-128825586D01*
X30596385Y-128808761D01*
X30509048Y-128684030D01*
X30498066Y-128665010D01*
X30433716Y-128527012D01*
X30426204Y-128506373D01*
X30386795Y-128359298D01*
X30382981Y-128337668D01*
X30372613Y-128219157D01*
X30372831Y-128201322D01*
X30372718Y-128201320D01*
X30372804Y-128195156D01*
X30373491Y-128189031D01*
X30369192Y-128137834D01*
X30368750Y-128127292D01*
X30368750Y-111257200D01*
X59282997Y-111257200D01*
X59283556Y-111261444D01*
X59283556Y-111261448D01*
X59299949Y-111385969D01*
X59320379Y-111541149D01*
X59395952Y-111817398D01*
X59508318Y-112080835D01*
X59655396Y-112326585D01*
X59834465Y-112550100D01*
X60042212Y-112747245D01*
X60274793Y-112914371D01*
X60527903Y-113048386D01*
X60796860Y-113146810D01*
X61076686Y-113207822D01*
X61116151Y-113210928D01*
X61298847Y-113225307D01*
X61298854Y-113225307D01*
X61301303Y-113225500D01*
X61456242Y-113225500D01*
X61458378Y-113225354D01*
X61458389Y-113225354D01*
X61665710Y-113211220D01*
X61665716Y-113211219D01*
X61669987Y-113210928D01*
X61674182Y-113210059D01*
X61674184Y-113210059D01*
X61810212Y-113181889D01*
X61950436Y-113152850D01*
X62220408Y-113057248D01*
X62474908Y-112925891D01*
X62478409Y-112923430D01*
X62478413Y-112923428D01*
X62705721Y-112763673D01*
X62705727Y-112763668D01*
X62709226Y-112761209D01*
X62919026Y-112566251D01*
X62929825Y-112553058D01*
X63097711Y-112347941D01*
X63100427Y-112344623D01*
X63250070Y-112100427D01*
X63257052Y-112084522D01*
X63363464Y-111842110D01*
X63363465Y-111842106D01*
X63365188Y-111838182D01*
X63443650Y-111562739D01*
X63484004Y-111279196D01*
X63484119Y-111257200D01*
X232054997Y-111257200D01*
X232055556Y-111261444D01*
X232055556Y-111261448D01*
X232071949Y-111385969D01*
X232092379Y-111541149D01*
X232167952Y-111817398D01*
X232280318Y-112080835D01*
X232427396Y-112326585D01*
X232606465Y-112550100D01*
X232814212Y-112747245D01*
X233046793Y-112914371D01*
X233299903Y-113048386D01*
X233568860Y-113146810D01*
X233848686Y-113207822D01*
X233888151Y-113210928D01*
X234070847Y-113225307D01*
X234070854Y-113225307D01*
X234073303Y-113225500D01*
X234228242Y-113225500D01*
X234230378Y-113225354D01*
X234230389Y-113225354D01*
X234437710Y-113211220D01*
X234437716Y-113211219D01*
X234441987Y-113210928D01*
X234446182Y-113210059D01*
X234446184Y-113210059D01*
X234582212Y-113181889D01*
X234722436Y-113152850D01*
X234992408Y-113057248D01*
X235246908Y-112925891D01*
X235250409Y-112923430D01*
X235250413Y-112923428D01*
X235477721Y-112763673D01*
X235477727Y-112763668D01*
X235481226Y-112761209D01*
X235691026Y-112566251D01*
X235701825Y-112553058D01*
X235869711Y-112347941D01*
X235872427Y-112344623D01*
X236022070Y-112100427D01*
X236029052Y-112084522D01*
X236135464Y-111842110D01*
X236135465Y-111842106D01*
X236137188Y-111838182D01*
X236215650Y-111562739D01*
X236256004Y-111279196D01*
X236257503Y-110992800D01*
X236254048Y-110966552D01*
X236220681Y-110713107D01*
X236220121Y-110708851D01*
X236144548Y-110432602D01*
X236032182Y-110169165D01*
X235885104Y-109923415D01*
X235706035Y-109699900D01*
X235498288Y-109502755D01*
X235265707Y-109335629D01*
X235012597Y-109201614D01*
X234743640Y-109103190D01*
X234463814Y-109042178D01*
X234420639Y-109038780D01*
X234241653Y-109024693D01*
X234241646Y-109024693D01*
X234239197Y-109024500D01*
X234084258Y-109024500D01*
X234082122Y-109024646D01*
X234082111Y-109024646D01*
X233874790Y-109038780D01*
X233874784Y-109038781D01*
X233870513Y-109039072D01*
X233866318Y-109039941D01*
X233866316Y-109039941D01*
X233730289Y-109068111D01*
X233590064Y-109097150D01*
X233320092Y-109192752D01*
X233065592Y-109324109D01*
X233062091Y-109326570D01*
X233062087Y-109326572D01*
X232834779Y-109486327D01*
X232834773Y-109486332D01*
X232831274Y-109488791D01*
X232621474Y-109683749D01*
X232618760Y-109687065D01*
X232618757Y-109687068D01*
X232605506Y-109703258D01*
X232440073Y-109905377D01*
X232290430Y-110149573D01*
X232288703Y-110153507D01*
X232288702Y-110153509D01*
X232281830Y-110169165D01*
X232175312Y-110411818D01*
X232096850Y-110687261D01*
X232056496Y-110970804D01*
X232054997Y-111257200D01*
X63484119Y-111257200D01*
X63485503Y-110992800D01*
X63482048Y-110966552D01*
X63448681Y-110713107D01*
X63448121Y-110708851D01*
X63372548Y-110432602D01*
X63260182Y-110169165D01*
X63113104Y-109923415D01*
X62934035Y-109699900D01*
X62726288Y-109502755D01*
X62493707Y-109335629D01*
X62240597Y-109201614D01*
X61971640Y-109103190D01*
X61691814Y-109042178D01*
X61648639Y-109038780D01*
X61469653Y-109024693D01*
X61469646Y-109024693D01*
X61467197Y-109024500D01*
X61312258Y-109024500D01*
X61310122Y-109024646D01*
X61310111Y-109024646D01*
X61102790Y-109038780D01*
X61102784Y-109038781D01*
X61098513Y-109039072D01*
X61094318Y-109039941D01*
X61094316Y-109039941D01*
X60958289Y-109068111D01*
X60818064Y-109097150D01*
X60548092Y-109192752D01*
X60293592Y-109324109D01*
X60290091Y-109326570D01*
X60290087Y-109326572D01*
X60062779Y-109486327D01*
X60062773Y-109486332D01*
X60059274Y-109488791D01*
X59849474Y-109683749D01*
X59846760Y-109687065D01*
X59846757Y-109687068D01*
X59833506Y-109703258D01*
X59668073Y-109905377D01*
X59518430Y-110149573D01*
X59516703Y-110153507D01*
X59516702Y-110153509D01*
X59509830Y-110169165D01*
X59403312Y-110411818D01*
X59324850Y-110687261D01*
X59284496Y-110970804D01*
X59282997Y-111257200D01*
X30368750Y-111257200D01*
X30368750Y-73157200D01*
X49888997Y-73157200D01*
X49889556Y-73161444D01*
X49889556Y-73161448D01*
X49905949Y-73285969D01*
X49926379Y-73441149D01*
X50001952Y-73717398D01*
X50114318Y-73980835D01*
X50261396Y-74226585D01*
X50440465Y-74450100D01*
X50648212Y-74647245D01*
X50880793Y-74814371D01*
X51133903Y-74948386D01*
X51402860Y-75046810D01*
X51682686Y-75107822D01*
X51722151Y-75110928D01*
X51904847Y-75125307D01*
X51904854Y-75125307D01*
X51907303Y-75125500D01*
X52062242Y-75125500D01*
X52064378Y-75125354D01*
X52064389Y-75125354D01*
X52271710Y-75111220D01*
X52271716Y-75111219D01*
X52275987Y-75110928D01*
X52280182Y-75110059D01*
X52280184Y-75110059D01*
X52416212Y-75081889D01*
X52556436Y-75052850D01*
X52826408Y-74957248D01*
X53080908Y-74825891D01*
X53084409Y-74823430D01*
X53084413Y-74823428D01*
X53311721Y-74663673D01*
X53311727Y-74663668D01*
X53315226Y-74661209D01*
X53525026Y-74466251D01*
X53535825Y-74453058D01*
X53703711Y-74247941D01*
X53706427Y-74244623D01*
X53856070Y-74000427D01*
X53863052Y-73984522D01*
X53969464Y-73742110D01*
X53969465Y-73742106D01*
X53971188Y-73738182D01*
X54049650Y-73462739D01*
X54090004Y-73179196D01*
X54090119Y-73157200D01*
X146329997Y-73157200D01*
X146330556Y-73161444D01*
X146330556Y-73161448D01*
X146346949Y-73285969D01*
X146367379Y-73441149D01*
X146442952Y-73717398D01*
X146555318Y-73980835D01*
X146702396Y-74226585D01*
X146881465Y-74450100D01*
X147089212Y-74647245D01*
X147321793Y-74814371D01*
X147574903Y-74948386D01*
X147843860Y-75046810D01*
X148123686Y-75107822D01*
X148163151Y-75110928D01*
X148345847Y-75125307D01*
X148345854Y-75125307D01*
X148348303Y-75125500D01*
X148503242Y-75125500D01*
X148505378Y-75125354D01*
X148505389Y-75125354D01*
X148712710Y-75111220D01*
X148712716Y-75111219D01*
X148716987Y-75110928D01*
X148721182Y-75110059D01*
X148721184Y-75110059D01*
X148857212Y-75081889D01*
X148997436Y-75052850D01*
X149267408Y-74957248D01*
X149521908Y-74825891D01*
X149525409Y-74823430D01*
X149525413Y-74823428D01*
X149752721Y-74663673D01*
X149752727Y-74663668D01*
X149756226Y-74661209D01*
X149966026Y-74466251D01*
X149976825Y-74453058D01*
X150144711Y-74247941D01*
X150147427Y-74244623D01*
X150297070Y-74000427D01*
X150304052Y-73984522D01*
X150410464Y-73742110D01*
X150410465Y-73742106D01*
X150412188Y-73738182D01*
X150490650Y-73462739D01*
X150531004Y-73179196D01*
X150531119Y-73157200D01*
X241710997Y-73157200D01*
X241711556Y-73161444D01*
X241711556Y-73161448D01*
X241727949Y-73285969D01*
X241748379Y-73441149D01*
X241823952Y-73717398D01*
X241936318Y-73980835D01*
X242083396Y-74226585D01*
X242262465Y-74450100D01*
X242470212Y-74647245D01*
X242702793Y-74814371D01*
X242955903Y-74948386D01*
X243224860Y-75046810D01*
X243504686Y-75107822D01*
X243544151Y-75110928D01*
X243726847Y-75125307D01*
X243726854Y-75125307D01*
X243729303Y-75125500D01*
X243884242Y-75125500D01*
X243886378Y-75125354D01*
X243886389Y-75125354D01*
X244093710Y-75111220D01*
X244093716Y-75111219D01*
X244097987Y-75110928D01*
X244102182Y-75110059D01*
X244102184Y-75110059D01*
X244238211Y-75081889D01*
X244378436Y-75052850D01*
X244648408Y-74957248D01*
X244902908Y-74825891D01*
X244906409Y-74823430D01*
X244906413Y-74823428D01*
X245133721Y-74663673D01*
X245133727Y-74663668D01*
X245137226Y-74661209D01*
X245347026Y-74466251D01*
X245357825Y-74453058D01*
X245525711Y-74247941D01*
X245528427Y-74244623D01*
X245678070Y-74000427D01*
X245685052Y-73984522D01*
X245791464Y-73742110D01*
X245791465Y-73742106D01*
X245793188Y-73738182D01*
X245871650Y-73462739D01*
X245912004Y-73179196D01*
X245913503Y-72892800D01*
X245910048Y-72866552D01*
X245876681Y-72613107D01*
X245876121Y-72608851D01*
X245800548Y-72332602D01*
X245688182Y-72069165D01*
X245541104Y-71823415D01*
X245362035Y-71599900D01*
X245154288Y-71402755D01*
X244921707Y-71235629D01*
X244668597Y-71101614D01*
X244399640Y-71003190D01*
X244119814Y-70942178D01*
X244076639Y-70938780D01*
X243897653Y-70924693D01*
X243897646Y-70924693D01*
X243895197Y-70924500D01*
X243740258Y-70924500D01*
X243738122Y-70924646D01*
X243738111Y-70924646D01*
X243530790Y-70938780D01*
X243530784Y-70938781D01*
X243526513Y-70939072D01*
X243522318Y-70939941D01*
X243522316Y-70939941D01*
X243386288Y-70968111D01*
X243246064Y-70997150D01*
X242976092Y-71092752D01*
X242721592Y-71224109D01*
X242718091Y-71226570D01*
X242718087Y-71226572D01*
X242490779Y-71386327D01*
X242490773Y-71386332D01*
X242487274Y-71388791D01*
X242277474Y-71583749D01*
X242274760Y-71587065D01*
X242274757Y-71587068D01*
X242261506Y-71603258D01*
X242096073Y-71805377D01*
X241946430Y-72049573D01*
X241944703Y-72053507D01*
X241944702Y-72053509D01*
X241937830Y-72069165D01*
X241831312Y-72311818D01*
X241752850Y-72587261D01*
X241712496Y-72870804D01*
X241710997Y-73157200D01*
X150531119Y-73157200D01*
X150532503Y-72892800D01*
X150529048Y-72866552D01*
X150495681Y-72613107D01*
X150495121Y-72608851D01*
X150419548Y-72332602D01*
X150307182Y-72069165D01*
X150160104Y-71823415D01*
X149981035Y-71599900D01*
X149773288Y-71402755D01*
X149540707Y-71235629D01*
X149287597Y-71101614D01*
X149018640Y-71003190D01*
X148738814Y-70942178D01*
X148695639Y-70938780D01*
X148516653Y-70924693D01*
X148516646Y-70924693D01*
X148514197Y-70924500D01*
X148359258Y-70924500D01*
X148357122Y-70924646D01*
X148357111Y-70924646D01*
X148149790Y-70938780D01*
X148149784Y-70938781D01*
X148145513Y-70939072D01*
X148141318Y-70939941D01*
X148141316Y-70939941D01*
X148005288Y-70968111D01*
X147865064Y-70997150D01*
X147595092Y-71092752D01*
X147340592Y-71224109D01*
X147337091Y-71226570D01*
X147337087Y-71226572D01*
X147109779Y-71386327D01*
X147109773Y-71386332D01*
X147106274Y-71388791D01*
X146896474Y-71583749D01*
X146893760Y-71587065D01*
X146893757Y-71587068D01*
X146880506Y-71603258D01*
X146715073Y-71805377D01*
X146565430Y-72049573D01*
X146563703Y-72053507D01*
X146563702Y-72053509D01*
X146556830Y-72069165D01*
X146450312Y-72311818D01*
X146371850Y-72587261D01*
X146331496Y-72870804D01*
X146329997Y-73157200D01*
X54090119Y-73157200D01*
X54091503Y-72892800D01*
X54088048Y-72866552D01*
X54054681Y-72613107D01*
X54054121Y-72608851D01*
X53978548Y-72332602D01*
X53866182Y-72069165D01*
X53719104Y-71823415D01*
X53540035Y-71599900D01*
X53332288Y-71402755D01*
X53099707Y-71235629D01*
X52846597Y-71101614D01*
X52577640Y-71003190D01*
X52297814Y-70942178D01*
X52254639Y-70938780D01*
X52075653Y-70924693D01*
X52075646Y-70924693D01*
X52073197Y-70924500D01*
X51918258Y-70924500D01*
X51916122Y-70924646D01*
X51916111Y-70924646D01*
X51708790Y-70938780D01*
X51708784Y-70938781D01*
X51704513Y-70939072D01*
X51700318Y-70939941D01*
X51700316Y-70939941D01*
X51564288Y-70968111D01*
X51424064Y-70997150D01*
X51154092Y-71092752D01*
X50899592Y-71224109D01*
X50896091Y-71226570D01*
X50896087Y-71226572D01*
X50668779Y-71386327D01*
X50668773Y-71386332D01*
X50665274Y-71388791D01*
X50455474Y-71583749D01*
X50452760Y-71587065D01*
X50452757Y-71587068D01*
X50439506Y-71603258D01*
X50274073Y-71805377D01*
X50124430Y-72049573D01*
X50122703Y-72053507D01*
X50122702Y-72053509D01*
X50115830Y-72069165D01*
X50009312Y-72311818D01*
X49930850Y-72587261D01*
X49890496Y-72870804D01*
X49888997Y-73157200D01*
X30368750Y-73157200D01*
X30368750Y-53952971D01*
X56213363Y-53952971D01*
X56230572Y-54304836D01*
X56231134Y-54308304D01*
X56231134Y-54308307D01*
X56237663Y-54348619D01*
X56286896Y-54652590D01*
X56381632Y-54991898D01*
X56513601Y-55318531D01*
X56681156Y-55628419D01*
X56882210Y-55917698D01*
X57114257Y-56182762D01*
X57374404Y-56420309D01*
X57659409Y-56627378D01*
X57965720Y-56801386D01*
X57968955Y-56802773D01*
X57968960Y-56802775D01*
X58286286Y-56938781D01*
X58286290Y-56938782D01*
X58289518Y-56940166D01*
X58334037Y-56953607D01*
X58623392Y-57040969D01*
X58623397Y-57040970D01*
X58626768Y-57041988D01*
X58776358Y-57069443D01*
X58969792Y-57104945D01*
X58969799Y-57104946D01*
X58973265Y-57105582D01*
X59163605Y-57118892D01*
X59255918Y-57125347D01*
X59255922Y-57125347D01*
X59258108Y-57125500D01*
X59457538Y-57125500D01*
X59459267Y-57125403D01*
X59459279Y-57125403D01*
X59646515Y-57114935D01*
X59720486Y-57110799D01*
X59824057Y-57093281D01*
X60064369Y-57052636D01*
X60064374Y-57052635D01*
X60067838Y-57052049D01*
X60406477Y-56954946D01*
X60520215Y-56908066D01*
X60728936Y-56822038D01*
X60728943Y-56822034D01*
X60732181Y-56820700D01*
X60879056Y-56739955D01*
X61037807Y-56652681D01*
X61037814Y-56652676D01*
X61040891Y-56650985D01*
X61077291Y-56625308D01*
X61325887Y-56449942D01*
X61328759Y-56447916D01*
X61592198Y-56214025D01*
X61827923Y-55952226D01*
X61829965Y-55949373D01*
X61829972Y-55949365D01*
X62030944Y-55668649D01*
X62030948Y-55668642D01*
X62032996Y-55665782D01*
X62204862Y-55358264D01*
X62341378Y-55033505D01*
X62352666Y-54995154D01*
X62439852Y-54698919D01*
X62440843Y-54695553D01*
X62502017Y-54348619D01*
X62524137Y-53997029D01*
X62521982Y-53952971D01*
X239100863Y-53952971D01*
X239118072Y-54304836D01*
X239118634Y-54308304D01*
X239118634Y-54308307D01*
X239125163Y-54348619D01*
X239174396Y-54652590D01*
X239269132Y-54991898D01*
X239401101Y-55318531D01*
X239568656Y-55628419D01*
X239769710Y-55917698D01*
X240001757Y-56182762D01*
X240261904Y-56420309D01*
X240546909Y-56627378D01*
X240853220Y-56801386D01*
X240856455Y-56802773D01*
X240856460Y-56802775D01*
X241173786Y-56938781D01*
X241173790Y-56938782D01*
X241177018Y-56940166D01*
X241221537Y-56953607D01*
X241510892Y-57040969D01*
X241510897Y-57040970D01*
X241514268Y-57041988D01*
X241663858Y-57069443D01*
X241857292Y-57104945D01*
X241857299Y-57104946D01*
X241860765Y-57105582D01*
X242051105Y-57118892D01*
X242143418Y-57125347D01*
X242143422Y-57125347D01*
X242145608Y-57125500D01*
X242345038Y-57125500D01*
X242346767Y-57125403D01*
X242346779Y-57125403D01*
X242534015Y-57114935D01*
X242607986Y-57110799D01*
X242711557Y-57093281D01*
X242951869Y-57052636D01*
X242951874Y-57052635D01*
X242955338Y-57052049D01*
X243293977Y-56954946D01*
X243407715Y-56908066D01*
X243616436Y-56822038D01*
X243616443Y-56822034D01*
X243619681Y-56820700D01*
X243766556Y-56739955D01*
X243925307Y-56652681D01*
X243925314Y-56652676D01*
X243928391Y-56650985D01*
X243964791Y-56625308D01*
X244213387Y-56449942D01*
X244216259Y-56447916D01*
X244479698Y-56214025D01*
X244715423Y-55952226D01*
X244717465Y-55949373D01*
X244717472Y-55949365D01*
X244918444Y-55668649D01*
X244918448Y-55668642D01*
X244920496Y-55665782D01*
X245092362Y-55358264D01*
X245228878Y-55033505D01*
X245240166Y-54995154D01*
X245327352Y-54698919D01*
X245328343Y-54695553D01*
X245389517Y-54348619D01*
X245411637Y-53997029D01*
X245394428Y-53645164D01*
X245387906Y-53604892D01*
X245338667Y-53300885D01*
X245338666Y-53300882D01*
X245338104Y-53297410D01*
X245243368Y-52958102D01*
X245111399Y-52631469D01*
X244943844Y-52321581D01*
X244742790Y-52032302D01*
X244510743Y-51767238D01*
X244250596Y-51529691D01*
X243965591Y-51322622D01*
X243659280Y-51148614D01*
X243656045Y-51147227D01*
X243656040Y-51147225D01*
X243338714Y-51011219D01*
X243338710Y-51011218D01*
X243335482Y-51009834D01*
X243209462Y-50971786D01*
X243001608Y-50909031D01*
X243001603Y-50909030D01*
X242998232Y-50908012D01*
X242848642Y-50880557D01*
X242655208Y-50845055D01*
X242655201Y-50845054D01*
X242651735Y-50844418D01*
X242461395Y-50831108D01*
X242369082Y-50824653D01*
X242369078Y-50824653D01*
X242366892Y-50824500D01*
X242167462Y-50824500D01*
X242165733Y-50824597D01*
X242165721Y-50824597D01*
X241978485Y-50835065D01*
X241904514Y-50839201D01*
X241869903Y-50845055D01*
X241560631Y-50897364D01*
X241560626Y-50897365D01*
X241557162Y-50897951D01*
X241218523Y-50995054D01*
X241179304Y-51011219D01*
X240896064Y-51127962D01*
X240896057Y-51127966D01*
X240892819Y-51129300D01*
X240745944Y-51210045D01*
X240587193Y-51297319D01*
X240587186Y-51297324D01*
X240584109Y-51299015D01*
X240581234Y-51301043D01*
X240581231Y-51301045D01*
X240299113Y-51500058D01*
X240296241Y-51502084D01*
X240032802Y-51735975D01*
X239797077Y-51997774D01*
X239795035Y-52000627D01*
X239795028Y-52000635D01*
X239594056Y-52281351D01*
X239594052Y-52281358D01*
X239592004Y-52284218D01*
X239420138Y-52591736D01*
X239283622Y-52916495D01*
X239282631Y-52919864D01*
X239282629Y-52919868D01*
X239271376Y-52958102D01*
X239184157Y-53254447D01*
X239122983Y-53601381D01*
X239100863Y-53952971D01*
X62521982Y-53952971D01*
X62506928Y-53645164D01*
X62500406Y-53604892D01*
X62451167Y-53300885D01*
X62451166Y-53300882D01*
X62450604Y-53297410D01*
X62355868Y-52958102D01*
X62223899Y-52631469D01*
X62056344Y-52321581D01*
X61855290Y-52032302D01*
X61623243Y-51767238D01*
X61363096Y-51529691D01*
X61078091Y-51322622D01*
X60771780Y-51148614D01*
X60768545Y-51147227D01*
X60768540Y-51147225D01*
X60451214Y-51011219D01*
X60451210Y-51011218D01*
X60447982Y-51009834D01*
X60321962Y-50971786D01*
X60114108Y-50909031D01*
X60114103Y-50909030D01*
X60110732Y-50908012D01*
X59961142Y-50880557D01*
X59767708Y-50845055D01*
X59767701Y-50845054D01*
X59764235Y-50844418D01*
X59573895Y-50831108D01*
X59481582Y-50824653D01*
X59481578Y-50824653D01*
X59479392Y-50824500D01*
X59279962Y-50824500D01*
X59278233Y-50824597D01*
X59278221Y-50824597D01*
X59090985Y-50835065D01*
X59017014Y-50839201D01*
X58982403Y-50845055D01*
X58673131Y-50897364D01*
X58673126Y-50897365D01*
X58669662Y-50897951D01*
X58331023Y-50995054D01*
X58291804Y-51011219D01*
X58008564Y-51127962D01*
X58008557Y-51127966D01*
X58005319Y-51129300D01*
X57858444Y-51210045D01*
X57699693Y-51297319D01*
X57699686Y-51297324D01*
X57696609Y-51299015D01*
X57693734Y-51301043D01*
X57693731Y-51301045D01*
X57411613Y-51500058D01*
X57408741Y-51502084D01*
X57145302Y-51735975D01*
X56909577Y-51997774D01*
X56907535Y-52000627D01*
X56907528Y-52000635D01*
X56706556Y-52281351D01*
X56706552Y-52281358D01*
X56704504Y-52284218D01*
X56532638Y-52591736D01*
X56396122Y-52916495D01*
X56395131Y-52919864D01*
X56395129Y-52919868D01*
X56383876Y-52958102D01*
X56296657Y-53254447D01*
X56235483Y-53601381D01*
X56213363Y-53952971D01*
X30368750Y-53952971D01*
X30368750Y-49107200D01*
X32267497Y-49107200D01*
X32268056Y-49111444D01*
X32268056Y-49111448D01*
X32284449Y-49235969D01*
X32304879Y-49391149D01*
X32380452Y-49667398D01*
X32492818Y-49930835D01*
X32639896Y-50176585D01*
X32818965Y-50400100D01*
X33026712Y-50597245D01*
X33259293Y-50764371D01*
X33512403Y-50898386D01*
X33540530Y-50908679D01*
X33773914Y-50994085D01*
X33781360Y-50996810D01*
X34061186Y-51057822D01*
X34100651Y-51060928D01*
X34283347Y-51075307D01*
X34283354Y-51075307D01*
X34285803Y-51075500D01*
X34440742Y-51075500D01*
X34442878Y-51075354D01*
X34442889Y-51075354D01*
X34650210Y-51061220D01*
X34650216Y-51061219D01*
X34654487Y-51060928D01*
X34658682Y-51060059D01*
X34658684Y-51060059D01*
X34906122Y-51008817D01*
X34934936Y-51002850D01*
X35204908Y-50907248D01*
X35459408Y-50775891D01*
X35462909Y-50773430D01*
X35462913Y-50773428D01*
X35690221Y-50613673D01*
X35690227Y-50613668D01*
X35693726Y-50611209D01*
X35903526Y-50416251D01*
X35914325Y-50403058D01*
X36082211Y-50197941D01*
X36084927Y-50194623D01*
X36234570Y-49950427D01*
X36241552Y-49934522D01*
X36347964Y-49692110D01*
X36347965Y-49692106D01*
X36349688Y-49688182D01*
X36428150Y-49412739D01*
X36468504Y-49129196D01*
X36468619Y-49107200D01*
X265154997Y-49107200D01*
X265155556Y-49111444D01*
X265155556Y-49111448D01*
X265171949Y-49235969D01*
X265192379Y-49391149D01*
X265267952Y-49667398D01*
X265380318Y-49930835D01*
X265527396Y-50176585D01*
X265706465Y-50400100D01*
X265914212Y-50597245D01*
X266146793Y-50764371D01*
X266399903Y-50898386D01*
X266428030Y-50908679D01*
X266661414Y-50994085D01*
X266668860Y-50996810D01*
X266948686Y-51057822D01*
X266988151Y-51060928D01*
X267170847Y-51075307D01*
X267170854Y-51075307D01*
X267173303Y-51075500D01*
X267328242Y-51075500D01*
X267330378Y-51075354D01*
X267330389Y-51075354D01*
X267537710Y-51061220D01*
X267537716Y-51061219D01*
X267541987Y-51060928D01*
X267546182Y-51060059D01*
X267546184Y-51060059D01*
X267793622Y-51008817D01*
X267822436Y-51002850D01*
X268092408Y-50907248D01*
X268346908Y-50775891D01*
X268350409Y-50773430D01*
X268350413Y-50773428D01*
X268577721Y-50613673D01*
X268577727Y-50613668D01*
X268581226Y-50611209D01*
X268791026Y-50416251D01*
X268801825Y-50403058D01*
X268969711Y-50197941D01*
X268972427Y-50194623D01*
X269122070Y-49950427D01*
X269129052Y-49934522D01*
X269235464Y-49692110D01*
X269235465Y-49692106D01*
X269237188Y-49688182D01*
X269315650Y-49412739D01*
X269356004Y-49129196D01*
X269357503Y-48842800D01*
X269354048Y-48816552D01*
X269320681Y-48563107D01*
X269320121Y-48558851D01*
X269244548Y-48282602D01*
X269132182Y-48019165D01*
X268985104Y-47773415D01*
X268806035Y-47549900D01*
X268598288Y-47352755D01*
X268365707Y-47185629D01*
X268112597Y-47051614D01*
X267843640Y-46953190D01*
X267563814Y-46892178D01*
X267520639Y-46888780D01*
X267341653Y-46874693D01*
X267341646Y-46874693D01*
X267339197Y-46874500D01*
X267184258Y-46874500D01*
X267182122Y-46874646D01*
X267182111Y-46874646D01*
X266974790Y-46888780D01*
X266974784Y-46888781D01*
X266970513Y-46889072D01*
X266966318Y-46889941D01*
X266966316Y-46889941D01*
X266830288Y-46918111D01*
X266690064Y-46947150D01*
X266420092Y-47042752D01*
X266165592Y-47174109D01*
X266162091Y-47176570D01*
X266162087Y-47176572D01*
X265934779Y-47336327D01*
X265934773Y-47336332D01*
X265931274Y-47338791D01*
X265721474Y-47533749D01*
X265718760Y-47537065D01*
X265718757Y-47537068D01*
X265705506Y-47553258D01*
X265540073Y-47755377D01*
X265390430Y-47999573D01*
X265388703Y-48003507D01*
X265388702Y-48003509D01*
X265381830Y-48019165D01*
X265275312Y-48261818D01*
X265196850Y-48537261D01*
X265156496Y-48820804D01*
X265154997Y-49107200D01*
X36468619Y-49107200D01*
X36470003Y-48842800D01*
X36466548Y-48816552D01*
X36433181Y-48563107D01*
X36432621Y-48558851D01*
X36357048Y-48282602D01*
X36244682Y-48019165D01*
X36097604Y-47773415D01*
X35918535Y-47549900D01*
X35710788Y-47352755D01*
X35478207Y-47185629D01*
X35225097Y-47051614D01*
X34956140Y-46953190D01*
X34676314Y-46892178D01*
X34633139Y-46888780D01*
X34454153Y-46874693D01*
X34454146Y-46874693D01*
X34451697Y-46874500D01*
X34296758Y-46874500D01*
X34294622Y-46874646D01*
X34294611Y-46874646D01*
X34087290Y-46888780D01*
X34087284Y-46888781D01*
X34083013Y-46889072D01*
X34078818Y-46889941D01*
X34078816Y-46889941D01*
X33942788Y-46918111D01*
X33802564Y-46947150D01*
X33532592Y-47042752D01*
X33278092Y-47174109D01*
X33274591Y-47176570D01*
X33274587Y-47176572D01*
X33047279Y-47336327D01*
X33047273Y-47336332D01*
X33043774Y-47338791D01*
X32833974Y-47533749D01*
X32831260Y-47537065D01*
X32831257Y-47537068D01*
X32818006Y-47553258D01*
X32652573Y-47755377D01*
X32502930Y-47999573D01*
X32501203Y-48003507D01*
X32501202Y-48003509D01*
X32494330Y-48019165D01*
X32387812Y-48261818D01*
X32309350Y-48537261D01*
X32268996Y-48820804D01*
X32267497Y-49107200D01*
X30368750Y-49107200D01*
X30368750Y-34107200D01*
X32267497Y-34107200D01*
X32268056Y-34111444D01*
X32268056Y-34111448D01*
X32284449Y-34235969D01*
X32304879Y-34391149D01*
X32380452Y-34667398D01*
X32492818Y-34930835D01*
X32639896Y-35176585D01*
X32818965Y-35400100D01*
X33026712Y-35597245D01*
X33259293Y-35764371D01*
X33512403Y-35898386D01*
X33781360Y-35996810D01*
X34061186Y-36057822D01*
X34100651Y-36060928D01*
X34283347Y-36075307D01*
X34283354Y-36075307D01*
X34285803Y-36075500D01*
X34440742Y-36075500D01*
X34442878Y-36075354D01*
X34442889Y-36075354D01*
X34650210Y-36061220D01*
X34650216Y-36061219D01*
X34654487Y-36060928D01*
X34658682Y-36060059D01*
X34658684Y-36060059D01*
X34794712Y-36031889D01*
X34934936Y-36002850D01*
X35204908Y-35907248D01*
X35459408Y-35775891D01*
X35462909Y-35773430D01*
X35462913Y-35773428D01*
X35690221Y-35613673D01*
X35690227Y-35613668D01*
X35693726Y-35611209D01*
X35903526Y-35416251D01*
X35914325Y-35403058D01*
X36082211Y-35197941D01*
X36084927Y-35194623D01*
X36234570Y-34950427D01*
X36241552Y-34934522D01*
X36347964Y-34692110D01*
X36347965Y-34692106D01*
X36349688Y-34688182D01*
X36428150Y-34412739D01*
X36468504Y-34129196D01*
X36468619Y-34107200D01*
X265154997Y-34107200D01*
X265155556Y-34111444D01*
X265155556Y-34111448D01*
X265171949Y-34235969D01*
X265192379Y-34391149D01*
X265267952Y-34667398D01*
X265380318Y-34930835D01*
X265527396Y-35176585D01*
X265706465Y-35400100D01*
X265914212Y-35597245D01*
X266146793Y-35764371D01*
X266399903Y-35898386D01*
X266668860Y-35996810D01*
X266948686Y-36057822D01*
X266988151Y-36060928D01*
X267170847Y-36075307D01*
X267170854Y-36075307D01*
X267173303Y-36075500D01*
X267328242Y-36075500D01*
X267330378Y-36075354D01*
X267330389Y-36075354D01*
X267537710Y-36061220D01*
X267537716Y-36061219D01*
X267541987Y-36060928D01*
X267546182Y-36060059D01*
X267546184Y-36060059D01*
X267682212Y-36031889D01*
X267822436Y-36002850D01*
X268092408Y-35907248D01*
X268346908Y-35775891D01*
X268350409Y-35773430D01*
X268350413Y-35773428D01*
X268577721Y-35613673D01*
X268577727Y-35613668D01*
X268581226Y-35611209D01*
X268791026Y-35416251D01*
X268801825Y-35403058D01*
X268969711Y-35197941D01*
X268972427Y-35194623D01*
X269122070Y-34950427D01*
X269129052Y-34934522D01*
X269235464Y-34692110D01*
X269235465Y-34692106D01*
X269237188Y-34688182D01*
X269315650Y-34412739D01*
X269356004Y-34129196D01*
X269357503Y-33842800D01*
X269354048Y-33816552D01*
X269320681Y-33563107D01*
X269320121Y-33558851D01*
X269244548Y-33282602D01*
X269132182Y-33019165D01*
X268985104Y-32773415D01*
X268806035Y-32549900D01*
X268598288Y-32352755D01*
X268365707Y-32185629D01*
X268112597Y-32051614D01*
X267843640Y-31953190D01*
X267563814Y-31892178D01*
X267520639Y-31888780D01*
X267341653Y-31874693D01*
X267341646Y-31874693D01*
X267339197Y-31874500D01*
X267184258Y-31874500D01*
X267182122Y-31874646D01*
X267182111Y-31874646D01*
X266974790Y-31888780D01*
X266974784Y-31888781D01*
X266970513Y-31889072D01*
X266966318Y-31889941D01*
X266966316Y-31889941D01*
X266830289Y-31918111D01*
X266690064Y-31947150D01*
X266420092Y-32042752D01*
X266165592Y-32174109D01*
X266162091Y-32176570D01*
X266162087Y-32176572D01*
X265934779Y-32336327D01*
X265934773Y-32336332D01*
X265931274Y-32338791D01*
X265721474Y-32533749D01*
X265718760Y-32537065D01*
X265718757Y-32537068D01*
X265705506Y-32553258D01*
X265540073Y-32755377D01*
X265390430Y-32999573D01*
X265388703Y-33003507D01*
X265388702Y-33003509D01*
X265381830Y-33019165D01*
X265275312Y-33261818D01*
X265196850Y-33537261D01*
X265156496Y-33820804D01*
X265154997Y-34107200D01*
X36468619Y-34107200D01*
X36470003Y-33842800D01*
X36466548Y-33816552D01*
X36433181Y-33563107D01*
X36432621Y-33558851D01*
X36357048Y-33282602D01*
X36244682Y-33019165D01*
X36097604Y-32773415D01*
X35918535Y-32549900D01*
X35710788Y-32352755D01*
X35478207Y-32185629D01*
X35225097Y-32051614D01*
X34956140Y-31953190D01*
X34676314Y-31892178D01*
X34633139Y-31888780D01*
X34454153Y-31874693D01*
X34454146Y-31874693D01*
X34451697Y-31874500D01*
X34296758Y-31874500D01*
X34294622Y-31874646D01*
X34294611Y-31874646D01*
X34087290Y-31888780D01*
X34087284Y-31888781D01*
X34083013Y-31889072D01*
X34078818Y-31889941D01*
X34078816Y-31889941D01*
X33942788Y-31918111D01*
X33802564Y-31947150D01*
X33532592Y-32042752D01*
X33278092Y-32174109D01*
X33274591Y-32176570D01*
X33274587Y-32176572D01*
X33047279Y-32336327D01*
X33047273Y-32336332D01*
X33043774Y-32338791D01*
X32833974Y-32533749D01*
X32831260Y-32537065D01*
X32831257Y-32537068D01*
X32818006Y-32553258D01*
X32652573Y-32755377D01*
X32502930Y-32999573D01*
X32501203Y-33003507D01*
X32501202Y-33003509D01*
X32494330Y-33019165D01*
X32387812Y-33261818D01*
X32309350Y-33537261D01*
X32268996Y-33820804D01*
X32267497Y-34107200D01*
X30368750Y-34107200D01*
X30368750Y-31038343D01*
X30369535Y-31024298D01*
X30370306Y-31017429D01*
X30373491Y-30989029D01*
X30371472Y-30964985D01*
X30371509Y-30943462D01*
X30382981Y-30812332D01*
X30386795Y-30790702D01*
X30426204Y-30643627D01*
X30433716Y-30622988D01*
X30498066Y-30484990D01*
X30509048Y-30465970D01*
X30596385Y-30341239D01*
X30610503Y-30324414D01*
X30718164Y-30216753D01*
X30734989Y-30202635D01*
X30859720Y-30115298D01*
X30878740Y-30104316D01*
X31016738Y-30039966D01*
X31037377Y-30032454D01*
X31071193Y-30023393D01*
X31184456Y-29993044D01*
X31206079Y-29989232D01*
X31324593Y-29978863D01*
X31342428Y-29979081D01*
X31342430Y-29978968D01*
X31348594Y-29979054D01*
X31354719Y-29979741D01*
X31405916Y-29975442D01*
X31416458Y-29975000D01*
X270192907Y-29975000D01*
X270206951Y-29975785D01*
G37*
G04 #@! TD.AperFunction*
M02*
