%FSLAX45Y45*%
G04 Gerber Fmt 4.5, Leading zero omitted, Abs format (unit mm)*
G04 Created by KiCad (PCBNEW (6.0.1)) date 2022-12-02 16:12:17*
%MOMM*%
%LPD*%
G01*
G04 APERTURE LIST*
%TA.AperFunction,Profile*%
%ADD10C,0.200000*%
%TD*%
%ADD11C,0.200000*%
G04 APERTURE END LIST*
D10*
X8349375Y-11365000D02*
X5144375Y-11365000D01*
X8399375Y-11415000D02*
G75*
G03*
X8349375Y-11365000I-50000J0D01*
G01*
X8399375Y-12715000D02*
X8399375Y-11415000D01*
X8349375Y-12765000D02*
G75*
G03*
X8399375Y-12715000I0J50000D01*
G01*
X5144375Y-12765000D02*
X8349375Y-12765000D01*
X5094375Y-12715000D02*
G75*
G03*
X5144375Y-12765000I50000J0D01*
G01*
X5094375Y-11415000D02*
X5094375Y-12715000D01*
X5144375Y-11365000D02*
G75*
G03*
X5094375Y-11415000I0J-50000D01*
G01*
X26923125Y-9460000D02*
X25623125Y-9460000D01*
X26973125Y-9510000D02*
G75*
G03*
X26923125Y-9460000I-50000J0D01*
G01*
X26973125Y-10810000D02*
X26973125Y-9510000D01*
X26923125Y-10860000D02*
G75*
G03*
X26973125Y-10810000I0J50000D01*
G01*
X25623125Y-10860000D02*
X26923125Y-10860000D01*
X25573125Y-10810000D02*
G75*
G03*
X25623125Y-10860000I50000J0D01*
G01*
X25573125Y-9510000D02*
X25573125Y-10810000D01*
X25623125Y-9460000D02*
G75*
G03*
X25573125Y-9510000I0J-50000D01*
G01*
X25018125Y-9460000D02*
X23718125Y-9460000D01*
X25068125Y-9510000D02*
G75*
G03*
X25018125Y-9460000I-50000J0D01*
G01*
X25068125Y-10810000D02*
X25068125Y-9510000D01*
X25018125Y-10860000D02*
G75*
G03*
X25068125Y-10810000I0J50000D01*
G01*
X23718125Y-10860000D02*
X25018125Y-10860000D01*
X23668125Y-10810000D02*
G75*
G03*
X23718125Y-10860000I50000J0D01*
G01*
X23668125Y-9510000D02*
X23668125Y-10810000D01*
X23718125Y-9460000D02*
G75*
G03*
X23668125Y-9510000I0J-50000D01*
G01*
X23113125Y-9460000D02*
X21813125Y-9460000D01*
X23163125Y-9510000D02*
G75*
G03*
X23113125Y-9460000I-50000J0D01*
G01*
X23163125Y-10810000D02*
X23163125Y-9510000D01*
X23113125Y-10860000D02*
G75*
G03*
X23163125Y-10810000I0J50000D01*
G01*
X21813125Y-10860000D02*
X23113125Y-10860000D01*
X21763125Y-10810000D02*
G75*
G03*
X21813125Y-10860000I50000J0D01*
G01*
X21763125Y-9510000D02*
X21763125Y-10810000D01*
X21813125Y-9460000D02*
G75*
G03*
X21763125Y-9510000I0J-50000D01*
G01*
X8428125Y-10810000D02*
G75*
G03*
X8478125Y-10860000I50000J0D01*
G01*
X9778125Y-10860000D02*
X8478125Y-10860000D01*
X9778125Y-10860000D02*
G75*
G03*
X9828125Y-10810000I0J50000D01*
G01*
X9828125Y-9510000D02*
X9828125Y-10810000D01*
X9828125Y-9510000D02*
G75*
G03*
X9778125Y-9460000I-50000J0D01*
G01*
X8478125Y-9460000D02*
X9778125Y-9460000D01*
X8478125Y-9460000D02*
G75*
G03*
X8428125Y-9510000I0J-50000D01*
G01*
X8428125Y-10810000D02*
X8428125Y-9510000D01*
X17398125Y-9460000D02*
X16098125Y-9460000D01*
X17448125Y-9510000D02*
G75*
G03*
X17398125Y-9460000I-50000J0D01*
G01*
X17448125Y-10810000D02*
X17448125Y-9510000D01*
X17398125Y-10860000D02*
G75*
G03*
X17448125Y-10810000I0J50000D01*
G01*
X16098125Y-10860000D02*
X17398125Y-10860000D01*
X16048125Y-10810000D02*
G75*
G03*
X16098125Y-10860000I50000J0D01*
G01*
X16048125Y-9510000D02*
X16048125Y-10810000D01*
X16098125Y-9460000D02*
G75*
G03*
X16048125Y-9510000I0J-50000D01*
G01*
X11683125Y-9460000D02*
X10383125Y-9460000D01*
X11733125Y-9510000D02*
G75*
G03*
X11683125Y-9460000I-50000J0D01*
G01*
X11733125Y-10810000D02*
X11733125Y-9510000D01*
X11683125Y-10860000D02*
G75*
G03*
X11733125Y-10810000I0J50000D01*
G01*
X10383125Y-10860000D02*
X11683125Y-10860000D01*
X10333125Y-10810000D02*
G75*
G03*
X10383125Y-10860000I50000J0D01*
G01*
X10333125Y-9510000D02*
X10333125Y-10810000D01*
X10383125Y-9460000D02*
G75*
G03*
X10333125Y-9510000I0J-50000D01*
G01*
X15493125Y-9460000D02*
X14193125Y-9460000D01*
X15543125Y-9510000D02*
G75*
G03*
X15493125Y-9460000I-50000J0D01*
G01*
X15543125Y-10810000D02*
X15543125Y-9510000D01*
X15493125Y-10860000D02*
G75*
G03*
X15543125Y-10810000I0J50000D01*
G01*
X14193125Y-10860000D02*
X15493125Y-10860000D01*
X14143125Y-10810000D02*
G75*
G03*
X14193125Y-10860000I50000J0D01*
G01*
X14143125Y-9510000D02*
X14143125Y-10810000D01*
X14193125Y-9460000D02*
G75*
G03*
X14143125Y-9510000I0J-50000D01*
G01*
X19303125Y-9460000D02*
X18003125Y-9460000D01*
X19353125Y-9510000D02*
G75*
G03*
X19303125Y-9460000I-50000J0D01*
G01*
X19353125Y-10810000D02*
X19353125Y-9510000D01*
X19303125Y-10860000D02*
G75*
G03*
X19353125Y-10810000I0J50000D01*
G01*
X18003125Y-10860000D02*
X19303125Y-10860000D01*
X17953125Y-10810000D02*
G75*
G03*
X18003125Y-10860000I50000J0D01*
G01*
X17953125Y-9510000D02*
X17953125Y-10810000D01*
X18003125Y-9460000D02*
G75*
G03*
X17953125Y-9510000I0J-50000D01*
G01*
X12238125Y-10810000D02*
G75*
G03*
X12288125Y-10860000I50000J0D01*
G01*
X13588125Y-10860000D02*
X12288125Y-10860000D01*
X13588125Y-10860000D02*
G75*
G03*
X13638125Y-10810000I0J50000D01*
G01*
X13638125Y-9510000D02*
X13638125Y-10810000D01*
X13638125Y-9510000D02*
G75*
G03*
X13588125Y-9460000I-50000J0D01*
G01*
X12288125Y-9460000D02*
X13588125Y-9460000D01*
X12288125Y-9460000D02*
G75*
G03*
X12238125Y-9510000I0J-50000D01*
G01*
X12238125Y-10810000D02*
X12238125Y-9510000D01*
X21208125Y-9460000D02*
X19908125Y-9460000D01*
X21258125Y-9510000D02*
G75*
G03*
X21208125Y-9460000I-50000J0D01*
G01*
X21258125Y-10810000D02*
X21258125Y-9510000D01*
X21208125Y-10860000D02*
G75*
G03*
X21258125Y-10810000I0J50000D01*
G01*
X19908125Y-10860000D02*
X21208125Y-10860000D01*
X19858125Y-10810000D02*
G75*
G03*
X19908125Y-10860000I50000J0D01*
G01*
X19858125Y-9510000D02*
X19858125Y-10810000D01*
X19908125Y-9460000D02*
G75*
G03*
X19858125Y-9510000I0J-50000D01*
G01*
X7873125Y-9460000D02*
X6573125Y-9460000D01*
X7923125Y-9510000D02*
G75*
G03*
X7873125Y-9460000I-50000J0D01*
G01*
X7923125Y-10810000D02*
X7923125Y-9510000D01*
X7873125Y-10860000D02*
G75*
G03*
X7923125Y-10810000I0J50000D01*
G01*
X6573125Y-10860000D02*
X7873125Y-10860000D01*
X6523125Y-10810000D02*
G75*
G03*
X6573125Y-10860000I50000J0D01*
G01*
X6523125Y-9510000D02*
X6523125Y-10810000D01*
X6573125Y-9460000D02*
G75*
G03*
X6523125Y-9510000I0J-50000D01*
G01*
X5253750Y-9460000D02*
X3953750Y-9460000D01*
X5303750Y-9510000D02*
G75*
G03*
X5253750Y-9460000I-50000J0D01*
G01*
X5303750Y-10810000D02*
X5303750Y-9510000D01*
X5253750Y-10860000D02*
G75*
G03*
X5303750Y-10810000I0J50000D01*
G01*
X3953750Y-10860000D02*
X5253750Y-10860000D01*
X3903750Y-10810000D02*
G75*
G03*
X3953750Y-10860000I50000J0D01*
G01*
X3903750Y-9510000D02*
X3903750Y-10810000D01*
X3953750Y-9460000D02*
G75*
G03*
X3903750Y-9510000I0J-50000D01*
G01*
X25096875Y-8905000D02*
G75*
G03*
X25146875Y-8955000I50000J0D01*
G01*
X26446875Y-8955000D02*
X25146875Y-8955000D01*
X26446875Y-8955000D02*
G75*
G03*
X26496875Y-8905000I0J50000D01*
G01*
X26496875Y-7605000D02*
X26496875Y-8905000D01*
X26496875Y-7605000D02*
G75*
G03*
X26446875Y-7555000I-50000J0D01*
G01*
X25146875Y-7555000D02*
X26446875Y-7555000D01*
X25146875Y-7555000D02*
G75*
G03*
X25096875Y-7605000I0J-50000D01*
G01*
X25096875Y-8905000D02*
X25096875Y-7605000D01*
X24065625Y-7555000D02*
X22765625Y-7555000D01*
X24115625Y-7605000D02*
G75*
G03*
X24065625Y-7555000I-50000J0D01*
G01*
X24115625Y-8905000D02*
X24115625Y-7605000D01*
X24065625Y-8955000D02*
G75*
G03*
X24115625Y-8905000I0J50000D01*
G01*
X22765625Y-8955000D02*
X24065625Y-8955000D01*
X22715625Y-8905000D02*
G75*
G03*
X22765625Y-8955000I50000J0D01*
G01*
X22715625Y-7605000D02*
X22715625Y-8905000D01*
X22765625Y-7555000D02*
G75*
G03*
X22715625Y-7605000I0J-50000D01*
G01*
X3553750Y-9460000D02*
X3503750Y-9460000D01*
X3603750Y-9510000D02*
G75*
G03*
X3553750Y-9460000I-50000J0D01*
G01*
X3603750Y-10810000D02*
X3603750Y-9510000D01*
X3553750Y-10860000D02*
G75*
G03*
X3603750Y-10810000I0J50000D01*
G01*
X3503750Y-10860000D02*
X3553750Y-10860000D01*
X3453750Y-10810000D02*
G75*
G03*
X3503750Y-10860000I50000J0D01*
G01*
X3453750Y-9510000D02*
X3453750Y-10810000D01*
X3503750Y-9460000D02*
G75*
G03*
X3453750Y-9510000I0J-50000D01*
G01*
X5753750Y-10810000D02*
X5753750Y-9510000D01*
X5703750Y-10860000D02*
G75*
G03*
X5753750Y-10810000I0J50000D01*
G01*
X5653750Y-10860000D02*
X5703750Y-10860000D01*
X5603750Y-10810000D02*
G75*
G03*
X5653750Y-10860000I50000J0D01*
G01*
X5603750Y-9510000D02*
X5603750Y-10810000D01*
X5653750Y-9460000D02*
G75*
G03*
X5603750Y-9510000I0J-50000D01*
G01*
X5703750Y-9460000D02*
X5653750Y-9460000D01*
X5753750Y-9510000D02*
G75*
G03*
X5703750Y-9460000I-50000J0D01*
G01*
X26896875Y-7555000D02*
X26846875Y-7555000D01*
X26946875Y-7605000D02*
G75*
G03*
X26896875Y-7555000I-50000J0D01*
G01*
X26946875Y-8905000D02*
X26946875Y-7605000D01*
X26896875Y-8955000D02*
G75*
G03*
X26946875Y-8905000I0J50000D01*
G01*
X26846875Y-8955000D02*
X26896875Y-8955000D01*
X26796875Y-8905000D02*
G75*
G03*
X26846875Y-8955000I50000J0D01*
G01*
X26796875Y-7605000D02*
X26796875Y-8905000D01*
X26846875Y-7555000D02*
G75*
G03*
X26796875Y-7605000I0J-50000D01*
G01*
X24796875Y-8905000D02*
X24796875Y-7605000D01*
X24746875Y-8955000D02*
G75*
G03*
X24796875Y-8905000I0J50000D01*
G01*
X24696875Y-8955000D02*
X24746875Y-8955000D01*
X24646875Y-8905000D02*
G75*
G03*
X24696875Y-8955000I50000J0D01*
G01*
X24646875Y-7605000D02*
X24646875Y-8905000D01*
X24696875Y-7555000D02*
G75*
G03*
X24646875Y-7605000I0J-50000D01*
G01*
X24746875Y-7555000D02*
X24696875Y-7555000D01*
X24796875Y-7605000D02*
G75*
G03*
X24746875Y-7555000I-50000J0D01*
G01*
X22160625Y-7555000D02*
X20860625Y-7555000D01*
X22210625Y-7605000D02*
G75*
G03*
X22160625Y-7555000I-50000J0D01*
G01*
X22210625Y-8905000D02*
X22210625Y-7605000D01*
X22160625Y-8955000D02*
G75*
G03*
X22210625Y-8905000I0J50000D01*
G01*
X20860625Y-8955000D02*
X22160625Y-8955000D01*
X20810625Y-8905000D02*
G75*
G03*
X20860625Y-8955000I50000J0D01*
G01*
X20810625Y-7605000D02*
X20810625Y-8905000D01*
X20860625Y-7555000D02*
G75*
G03*
X20810625Y-7605000I0J-50000D01*
G01*
X14540625Y-7555000D02*
X13240625Y-7555000D01*
X14590625Y-7605000D02*
G75*
G03*
X14540625Y-7555000I-50000J0D01*
G01*
X14590625Y-8905000D02*
X14590625Y-7605000D01*
X14540625Y-8955000D02*
G75*
G03*
X14590625Y-8905000I0J50000D01*
G01*
X13240625Y-8955000D02*
X14540625Y-8955000D01*
X13190625Y-8905000D02*
G75*
G03*
X13240625Y-8955000I50000J0D01*
G01*
X13190625Y-7605000D02*
X13190625Y-8905000D01*
X13240625Y-7555000D02*
G75*
G03*
X13190625Y-7605000I0J-50000D01*
G01*
X18350625Y-7555000D02*
X17050625Y-7555000D01*
X18400625Y-7605000D02*
G75*
G03*
X18350625Y-7555000I-50000J0D01*
G01*
X18400625Y-8905000D02*
X18400625Y-7605000D01*
X18350625Y-8955000D02*
G75*
G03*
X18400625Y-8905000I0J50000D01*
G01*
X17050625Y-8955000D02*
X18350625Y-8955000D01*
X17000625Y-8905000D02*
G75*
G03*
X17050625Y-8955000I50000J0D01*
G01*
X17000625Y-7605000D02*
X17000625Y-8905000D01*
X17050625Y-7555000D02*
G75*
G03*
X17000625Y-7605000I0J-50000D01*
G01*
X8825625Y-7555000D02*
X7525625Y-7555000D01*
X8875625Y-7605000D02*
G75*
G03*
X8825625Y-7555000I-50000J0D01*
G01*
X8875625Y-8905000D02*
X8875625Y-7605000D01*
X8825625Y-8955000D02*
G75*
G03*
X8875625Y-8905000I0J50000D01*
G01*
X7525625Y-8955000D02*
X8825625Y-8955000D01*
X7475625Y-8905000D02*
G75*
G03*
X7525625Y-8955000I50000J0D01*
G01*
X7475625Y-7605000D02*
X7475625Y-8905000D01*
X7525625Y-7555000D02*
G75*
G03*
X7475625Y-7605000I0J-50000D01*
G01*
X20255625Y-7555000D02*
X18955625Y-7555000D01*
X20305625Y-7605000D02*
G75*
G03*
X20255625Y-7555000I-50000J0D01*
G01*
X20305625Y-8905000D02*
X20305625Y-7605000D01*
X20255625Y-8955000D02*
G75*
G03*
X20305625Y-8905000I0J50000D01*
G01*
X18955625Y-8955000D02*
X20255625Y-8955000D01*
X18905625Y-8905000D02*
G75*
G03*
X18955625Y-8955000I50000J0D01*
G01*
X18905625Y-7605000D02*
X18905625Y-8905000D01*
X18955625Y-7555000D02*
G75*
G03*
X18905625Y-7605000I0J-50000D01*
G01*
X12635625Y-7555000D02*
X11335625Y-7555000D01*
X12685625Y-7605000D02*
G75*
G03*
X12635625Y-7555000I-50000J0D01*
G01*
X12685625Y-8905000D02*
X12685625Y-7605000D01*
X12635625Y-8955000D02*
G75*
G03*
X12685625Y-8905000I0J50000D01*
G01*
X11335625Y-8955000D02*
X12635625Y-8955000D01*
X11285625Y-8905000D02*
G75*
G03*
X11335625Y-8955000I50000J0D01*
G01*
X11285625Y-7605000D02*
X11285625Y-8905000D01*
X11335625Y-7555000D02*
G75*
G03*
X11285625Y-7605000I0J-50000D01*
G01*
X6920625Y-7555000D02*
X5620625Y-7555000D01*
X6970625Y-7605000D02*
G75*
G03*
X6920625Y-7555000I-50000J0D01*
G01*
X6970625Y-8905000D02*
X6970625Y-7605000D01*
X6920625Y-8955000D02*
G75*
G03*
X6970625Y-8905000I0J50000D01*
G01*
X5620625Y-8955000D02*
X6920625Y-8955000D01*
X5570625Y-8905000D02*
G75*
G03*
X5620625Y-8955000I50000J0D01*
G01*
X5570625Y-7605000D02*
X5570625Y-8905000D01*
X5620625Y-7555000D02*
G75*
G03*
X5570625Y-7605000I0J-50000D01*
G01*
X16445625Y-7555000D02*
X15145625Y-7555000D01*
X16495625Y-7605000D02*
G75*
G03*
X16445625Y-7555000I-50000J0D01*
G01*
X16495625Y-8905000D02*
X16495625Y-7605000D01*
X16445625Y-8955000D02*
G75*
G03*
X16495625Y-8905000I0J50000D01*
G01*
X15145625Y-8955000D02*
X16445625Y-8955000D01*
X15095625Y-8905000D02*
G75*
G03*
X15145625Y-8955000I50000J0D01*
G01*
X15095625Y-7605000D02*
X15095625Y-8905000D01*
X15145625Y-7555000D02*
G75*
G03*
X15095625Y-7605000I0J-50000D01*
G01*
X10730625Y-7555000D02*
X9430625Y-7555000D01*
X10780625Y-7605000D02*
G75*
G03*
X10730625Y-7555000I-50000J0D01*
G01*
X10780625Y-8905000D02*
X10780625Y-7605000D01*
X10730625Y-8955000D02*
G75*
G03*
X10780625Y-8905000I0J50000D01*
G01*
X9430625Y-8955000D02*
X10730625Y-8955000D01*
X9380625Y-8905000D02*
G75*
G03*
X9430625Y-8955000I50000J0D01*
G01*
X9380625Y-7605000D02*
X9380625Y-8905000D01*
X9430625Y-7555000D02*
G75*
G03*
X9380625Y-7605000I0J-50000D01*
G01*
X4777500Y-7555000D02*
X3477500Y-7555000D01*
X4827500Y-7605000D02*
G75*
G03*
X4777500Y-7555000I-50000J0D01*
G01*
X4827500Y-8905000D02*
X4827500Y-7605000D01*
X4777500Y-8955000D02*
G75*
G03*
X4827500Y-8905000I0J50000D01*
G01*
X3477500Y-8955000D02*
X4777500Y-8955000D01*
X3427500Y-8905000D02*
G75*
G03*
X3477500Y-8955000I50000J0D01*
G01*
X3427500Y-7605000D02*
X3427500Y-8905000D01*
X3477500Y-7555000D02*
G75*
G03*
X3427500Y-7605000I0J-50000D01*
G01*
X26658750Y-5650000D02*
X26608750Y-5650000D01*
X26708750Y-5700000D02*
G75*
G03*
X26658750Y-5650000I-50000J0D01*
G01*
X26708750Y-7000000D02*
X26708750Y-5700000D01*
X26658750Y-7050000D02*
G75*
G03*
X26708750Y-7000000I0J50000D01*
G01*
X26608750Y-7050000D02*
X26658750Y-7050000D01*
X26558750Y-7000000D02*
G75*
G03*
X26608750Y-7050000I50000J0D01*
G01*
X26558750Y-5700000D02*
X26558750Y-7000000D01*
X26608750Y-5650000D02*
G75*
G03*
X26558750Y-5700000I0J-50000D01*
G01*
X24508750Y-5650000D02*
X24458750Y-5650000D01*
X24558750Y-5700000D02*
G75*
G03*
X24508750Y-5650000I-50000J0D01*
G01*
X24558750Y-7000000D02*
X24558750Y-5700000D01*
X24508750Y-7050000D02*
G75*
G03*
X24558750Y-7000000I0J50000D01*
G01*
X24458750Y-7050000D02*
X24508750Y-7050000D01*
X24408750Y-7000000D02*
G75*
G03*
X24458750Y-7050000I50000J0D01*
G01*
X24408750Y-5700000D02*
X24408750Y-7000000D01*
X24458750Y-5650000D02*
G75*
G03*
X24408750Y-5700000I0J-50000D01*
G01*
X20334375Y-7000000D02*
G75*
G03*
X20384375Y-7050000I50000J0D01*
G01*
X21684375Y-7050000D02*
X20384375Y-7050000D01*
X21684375Y-7050000D02*
G75*
G03*
X21734375Y-7000000I0J50000D01*
G01*
X21734375Y-5700000D02*
X21734375Y-7000000D01*
X21734375Y-5700000D02*
G75*
G03*
X21684375Y-5650000I-50000J0D01*
G01*
X20384375Y-5650000D02*
X21684375Y-5650000D01*
X20384375Y-5650000D02*
G75*
G03*
X20334375Y-5700000I0J-50000D01*
G01*
X20334375Y-7000000D02*
X20334375Y-5700000D01*
X17874375Y-5650000D02*
X16574375Y-5650000D01*
X17924375Y-5700000D02*
G75*
G03*
X17874375Y-5650000I-50000J0D01*
G01*
X17924375Y-7000000D02*
X17924375Y-5700000D01*
X17874375Y-7050000D02*
G75*
G03*
X17924375Y-7000000I0J50000D01*
G01*
X16574375Y-7050000D02*
X17874375Y-7050000D01*
X16524375Y-7000000D02*
G75*
G03*
X16574375Y-7050000I50000J0D01*
G01*
X16524375Y-5700000D02*
X16524375Y-7000000D01*
X16574375Y-5650000D02*
G75*
G03*
X16524375Y-5700000I0J-50000D01*
G01*
X21131875Y-12765000D02*
X21413125Y-12765000D01*
X21081875Y-12715000D02*
G75*
G03*
X21131875Y-12765000I50000J0D01*
G01*
X21081875Y-11415000D02*
X21081875Y-12715000D01*
X21131875Y-11365000D02*
G75*
G03*
X21081875Y-11415000I0J-50000D01*
G01*
X21413125Y-11365000D02*
X21131875Y-11365000D01*
X21463125Y-11415000D02*
G75*
G03*
X21413125Y-11365000I-50000J0D01*
G01*
X21463125Y-12715000D02*
X21463125Y-11415000D01*
X21413125Y-12765000D02*
G75*
G03*
X21463125Y-12715000I0J50000D01*
G01*
X4777500Y-11365000D02*
X3239375Y-11365000D01*
X4827500Y-11415000D02*
G75*
G03*
X4777500Y-11365000I-50000J0D01*
G01*
X4827500Y-12715000D02*
X4827500Y-11415000D01*
X4777500Y-12765000D02*
G75*
G03*
X4827500Y-12715000I0J50000D01*
G01*
X3239375Y-12765000D02*
X4777500Y-12765000D01*
X3189375Y-12715000D02*
G75*
G03*
X3239375Y-12765000I50000J0D01*
G01*
X3189375Y-11415000D02*
X3189375Y-12715000D01*
X3239375Y-11365000D02*
G75*
G03*
X3189375Y-11415000I0J-50000D01*
G01*
X19779375Y-5650000D02*
X18479375Y-5650000D01*
X19829375Y-5700000D02*
G75*
G03*
X19779375Y-5650000I-50000J0D01*
G01*
X19829375Y-7000000D02*
X19829375Y-5700000D01*
X19779375Y-7050000D02*
G75*
G03*
X19829375Y-7000000I0J50000D01*
G01*
X18479375Y-7050000D02*
X19779375Y-7050000D01*
X18429375Y-7000000D02*
G75*
G03*
X18479375Y-7050000I50000J0D01*
G01*
X18429375Y-5700000D02*
X18429375Y-7000000D01*
X18479375Y-5650000D02*
G75*
G03*
X18429375Y-5700000I0J-50000D01*
G01*
X8716250Y-11365000D02*
G75*
G03*
X8666250Y-11415000I0J-50000D01*
G01*
X8666250Y-12715000D02*
X8666250Y-11415000D01*
X8666250Y-12715000D02*
G75*
G03*
X8716250Y-12765000I50000J0D01*
G01*
X10254375Y-12765000D02*
X8716250Y-12765000D01*
X10254375Y-12765000D02*
G75*
G03*
X10304375Y-12715000I0J50000D01*
G01*
X10304375Y-11415000D02*
X10304375Y-12715000D01*
X10304375Y-11415000D02*
G75*
G03*
X10254375Y-11365000I-50000J0D01*
G01*
X8716250Y-11365000D02*
X10254375Y-11365000D01*
X26208750Y-5650000D02*
X24908750Y-5650000D01*
X26258750Y-5700000D02*
G75*
G03*
X26208750Y-5650000I-50000J0D01*
G01*
X26258750Y-7000000D02*
X26258750Y-5700000D01*
X26208750Y-7050000D02*
G75*
G03*
X26258750Y-7000000I0J50000D01*
G01*
X24908750Y-7050000D02*
X26208750Y-7050000D01*
X24858750Y-7000000D02*
G75*
G03*
X24908750Y-7050000I50000J0D01*
G01*
X24858750Y-5700000D02*
X24858750Y-7000000D01*
X24908750Y-5650000D02*
G75*
G03*
X24858750Y-5700000I0J-50000D01*
G01*
X20731875Y-11365000D02*
X19193750Y-11365000D01*
X20781875Y-11415000D02*
G75*
G03*
X20731875Y-11365000I-50000J0D01*
G01*
X20781875Y-12715000D02*
X20781875Y-11415000D01*
X20731875Y-12765000D02*
G75*
G03*
X20781875Y-12715000I0J50000D01*
G01*
X19193750Y-12765000D02*
X20731875Y-12765000D01*
X19143750Y-12715000D02*
G75*
G03*
X19193750Y-12765000I50000J0D01*
G01*
X19143750Y-11415000D02*
X19143750Y-12715000D01*
X19193750Y-11365000D02*
G75*
G03*
X19143750Y-11415000I0J-50000D01*
G01*
X26923125Y-11365000D02*
X23718125Y-11365000D01*
X26973125Y-11415000D02*
G75*
G03*
X26923125Y-11365000I-50000J0D01*
G01*
X26973125Y-12715000D02*
X26973125Y-11415000D01*
X26923125Y-12765000D02*
G75*
G03*
X26973125Y-12715000I0J50000D01*
G01*
X23718125Y-12765000D02*
X26923125Y-12765000D01*
X23668125Y-12715000D02*
G75*
G03*
X23718125Y-12765000I50000J0D01*
G01*
X23668125Y-11415000D02*
X23668125Y-12715000D01*
X23718125Y-11365000D02*
G75*
G03*
X23668125Y-11415000I0J-50000D01*
G01*
X23589375Y-5650000D02*
X22289375Y-5650000D01*
X23639375Y-5700000D02*
G75*
G03*
X23589375Y-5650000I-50000J0D01*
G01*
X23639375Y-7000000D02*
X23639375Y-5700000D01*
X23589375Y-7050000D02*
G75*
G03*
X23639375Y-7000000I0J50000D01*
G01*
X22289375Y-7050000D02*
X23589375Y-7050000D01*
X22239375Y-7000000D02*
G75*
G03*
X22289375Y-7050000I50000J0D01*
G01*
X22239375Y-5700000D02*
X22239375Y-7000000D01*
X22289375Y-5650000D02*
G75*
G03*
X22239375Y-5700000I0J-50000D01*
G01*
X14114375Y-7000000D02*
X14114375Y-5700000D01*
X14064375Y-7050000D02*
G75*
G03*
X14114375Y-7000000I0J50000D01*
G01*
X12764375Y-7050000D02*
X14064375Y-7050000D01*
X12714375Y-7000000D02*
G75*
G03*
X12764375Y-7050000I50000J0D01*
G01*
X12714375Y-5700000D02*
X12714375Y-7000000D01*
X12764375Y-5650000D02*
G75*
G03*
X12714375Y-5700000I0J-50000D01*
G01*
X14064375Y-5650000D02*
X12764375Y-5650000D01*
X14114375Y-5700000D02*
G75*
G03*
X14064375Y-5650000I-50000J0D01*
G01*
X15969375Y-5650000D02*
X14669375Y-5650000D01*
X16019375Y-5700000D02*
G75*
G03*
X15969375Y-5650000I-50000J0D01*
G01*
X16019375Y-7000000D02*
X16019375Y-5700000D01*
X15969375Y-7050000D02*
G75*
G03*
X16019375Y-7000000I0J50000D01*
G01*
X14669375Y-7050000D02*
X15969375Y-7050000D01*
X14619375Y-7000000D02*
G75*
G03*
X14669375Y-7050000I50000J0D01*
G01*
X14619375Y-5700000D02*
X14619375Y-7000000D01*
X14669375Y-5650000D02*
G75*
G03*
X14619375Y-5700000I0J-50000D01*
G01*
X4539375Y-5650000D02*
X3239375Y-5650000D01*
X4589375Y-5700000D02*
G75*
G03*
X4539375Y-5650000I-50000J0D01*
G01*
X4589375Y-7000000D02*
X4589375Y-5700000D01*
X4539375Y-7050000D02*
G75*
G03*
X4589375Y-7000000I0J50000D01*
G01*
X3239375Y-7050000D02*
X4539375Y-7050000D01*
X3189375Y-7000000D02*
G75*
G03*
X3239375Y-7050000I50000J0D01*
G01*
X3189375Y-5700000D02*
X3189375Y-7000000D01*
X3239375Y-5650000D02*
G75*
G03*
X3189375Y-5700000I0J-50000D01*
G01*
X12159375Y-5650000D02*
X10859375Y-5650000D01*
X12209375Y-5700000D02*
G75*
G03*
X12159375Y-5650000I-50000J0D01*
G01*
X12209375Y-7000000D02*
X12209375Y-5700000D01*
X12159375Y-7050000D02*
G75*
G03*
X12209375Y-7000000I0J50000D01*
G01*
X10859375Y-7050000D02*
X12159375Y-7050000D01*
X10809375Y-7000000D02*
G75*
G03*
X10859375Y-7050000I50000J0D01*
G01*
X10809375Y-5700000D02*
X10809375Y-7000000D01*
X10859375Y-5650000D02*
G75*
G03*
X10809375Y-5700000I0J-50000D01*
G01*
X21763125Y-12715000D02*
G75*
G03*
X21813125Y-12765000I50000J0D01*
G01*
X23113125Y-12765000D02*
X21813125Y-12765000D01*
X23113125Y-12765000D02*
G75*
G03*
X23163125Y-12715000I0J50000D01*
G01*
X23163125Y-11415000D02*
X23163125Y-12715000D01*
X23163125Y-11415000D02*
G75*
G03*
X23113125Y-11365000I-50000J0D01*
G01*
X21813125Y-11365000D02*
X23113125Y-11365000D01*
X21813125Y-11365000D02*
G75*
G03*
X21763125Y-11415000I0J-50000D01*
G01*
X21763125Y-12715000D02*
X21763125Y-11415000D01*
X8349375Y-5650000D02*
X7049375Y-5650000D01*
X8399375Y-5700000D02*
G75*
G03*
X8349375Y-5650000I-50000J0D01*
G01*
X8399375Y-7000000D02*
X8399375Y-5700000D01*
X8349375Y-7050000D02*
G75*
G03*
X8399375Y-7000000I0J50000D01*
G01*
X7049375Y-7050000D02*
X8349375Y-7050000D01*
X6999375Y-7000000D02*
G75*
G03*
X7049375Y-7050000I50000J0D01*
G01*
X6999375Y-5700000D02*
X6999375Y-7000000D01*
X7049375Y-5650000D02*
G75*
G03*
X6999375Y-5700000I0J-50000D01*
G01*
X6444375Y-5650000D02*
X5144375Y-5650000D01*
X6494375Y-5700000D02*
G75*
G03*
X6444375Y-5650000I-50000J0D01*
G01*
X6494375Y-7000000D02*
X6494375Y-5700000D01*
X6444375Y-7050000D02*
G75*
G03*
X6494375Y-7000000I0J50000D01*
G01*
X5144375Y-7050000D02*
X6444375Y-7050000D01*
X5094375Y-7000000D02*
G75*
G03*
X5144375Y-7050000I50000J0D01*
G01*
X5094375Y-5700000D02*
X5094375Y-7000000D01*
X5144375Y-5650000D02*
G75*
G03*
X5094375Y-5700000I0J-50000D01*
G01*
X10254375Y-5650000D02*
X8954375Y-5650000D01*
X10304375Y-5700000D02*
G75*
G03*
X10254375Y-5650000I-50000J0D01*
G01*
X10304375Y-7000000D02*
X10304375Y-5700000D01*
X10254375Y-7050000D02*
G75*
G03*
X10304375Y-7000000I0J50000D01*
G01*
X8954375Y-7050000D02*
X10254375Y-7050000D01*
X8904375Y-7000000D02*
G75*
G03*
X8954375Y-7050000I50000J0D01*
G01*
X8904375Y-5700000D02*
X8904375Y-7000000D01*
X8954375Y-5650000D02*
G75*
G03*
X8904375Y-5700000I0J-50000D01*
G01*
X14193800Y-12665000D02*
X13450000Y-12665000D01*
X14193800Y-12665000D02*
G75*
G03*
X14243800Y-12615000I0J50000D01*
G01*
X14243800Y-11215000D02*
X14243800Y-12615000D01*
X14243800Y-11215000D02*
G75*
G03*
X14193800Y-11165000I-50000J0D01*
G01*
X13593800Y-11165000D02*
X14193800Y-11165000D01*
X13593800Y-11165000D02*
G75*
G03*
X13543800Y-11215000I0J-50000D01*
G01*
X13543800Y-11315000D02*
X13543800Y-11215000D01*
X13493800Y-11365000D02*
G75*
G03*
X13543800Y-11315000I0J50000D01*
G01*
X11906200Y-11365000D02*
X13493800Y-11365000D01*
X11856200Y-11315000D02*
G75*
G03*
X11906200Y-11365000I50000J0D01*
G01*
X11856200Y-11215000D02*
X11856200Y-11315000D01*
X11856200Y-11215000D02*
G75*
G03*
X11806200Y-11165000I-50000J0D01*
G01*
X11206200Y-11165000D02*
X11806200Y-11165000D01*
X11206200Y-11165000D02*
G75*
G03*
X11156200Y-11215000I0J-50000D01*
G01*
X11156200Y-12615000D02*
X11156200Y-11215000D01*
X11156200Y-12615000D02*
G75*
G03*
X11206200Y-12665000I50000J0D01*
G01*
X11950000Y-12665000D02*
X11206200Y-12665000D01*
X12000000Y-12715000D02*
G75*
G03*
X11950000Y-12665000I-50000J0D01*
G01*
X12000000Y-12715000D02*
G75*
G03*
X12050000Y-12765000I50000J0D01*
G01*
X13350000Y-12765000D02*
X12050000Y-12765000D01*
X13350000Y-12765000D02*
G75*
G03*
X13400000Y-12715000I0J50000D01*
G01*
X13450000Y-12665000D02*
G75*
G03*
X13400000Y-12715000I0J-50000D01*
G01*
X18241925Y-12665000D02*
X17498125Y-12665000D01*
X18241925Y-12665000D02*
G75*
G03*
X18291925Y-12615000I0J50000D01*
G01*
X18291925Y-11215000D02*
X18291925Y-12615000D01*
X18291925Y-11215000D02*
G75*
G03*
X18241925Y-11165000I-50000J0D01*
G01*
X17641925Y-11165000D02*
X18241925Y-11165000D01*
X17641925Y-11165000D02*
G75*
G03*
X17591925Y-11215000I0J-50000D01*
G01*
X17591925Y-11315000D02*
X17591925Y-11215000D01*
X17541925Y-11365000D02*
G75*
G03*
X17591925Y-11315000I0J50000D01*
G01*
X15954325Y-11365000D02*
X17541925Y-11365000D01*
X15904325Y-11315000D02*
G75*
G03*
X15954325Y-11365000I50000J0D01*
G01*
X15904325Y-11215000D02*
X15904325Y-11315000D01*
X15904325Y-11215000D02*
G75*
G03*
X15854325Y-11165000I-50000J0D01*
G01*
X15254325Y-11165000D02*
X15854325Y-11165000D01*
X15254325Y-11165000D02*
G75*
G03*
X15204325Y-11215000I0J-50000D01*
G01*
X15204325Y-12615000D02*
X15204325Y-11215000D01*
X15204325Y-12615000D02*
G75*
G03*
X15254325Y-12665000I50000J0D01*
G01*
X15998125Y-12665000D02*
X15254325Y-12665000D01*
X16048125Y-12715000D02*
G75*
G03*
X15998125Y-12665000I-50000J0D01*
G01*
X16048125Y-12715000D02*
G75*
G03*
X16098125Y-12765000I50000J0D01*
G01*
X17398125Y-12765000D02*
X16098125Y-12765000D01*
X17398125Y-12765000D02*
G75*
G03*
X17448125Y-12715000I0J50000D01*
G01*
X17498125Y-12665000D02*
G75*
G03*
X17448125Y-12715000I0J-50000D01*
G01*
X3136875Y-13017500D02*
X27025625Y-13017500D01*
X2936875Y-12817500D02*
G75*
G03*
X3136875Y-13017500I200000J0D01*
G01*
X2936875Y-5597500D02*
X2936875Y-12817500D01*
X3136875Y-5397500D02*
G75*
G03*
X2936875Y-5597500I0J-200000D01*
G01*
X27025625Y-5397500D02*
X3136875Y-5397500D01*
X27225625Y-5597500D02*
G75*
G03*
X27025625Y-5397500I-200000J0D01*
G01*
X27225625Y-12817500D02*
X27225625Y-5597500D01*
X27025625Y-13017500D02*
G75*
G03*
X27225625Y-12817500I0J200000D01*
G01*
D11*
X3184494Y-13337976D02*
X3184494Y-13137976D01*
X3232113Y-13137976D01*
X3260684Y-13147500D01*
X3279732Y-13166548D01*
X3289256Y-13185595D01*
X3298780Y-13223690D01*
X3298780Y-13252262D01*
X3289256Y-13290357D01*
X3279732Y-13309405D01*
X3260684Y-13328452D01*
X3232113Y-13337976D01*
X3184494Y-13337976D01*
X3384494Y-13337976D02*
X3384494Y-13204643D01*
X3384494Y-13242738D02*
X3394018Y-13223690D01*
X3403542Y-13214167D01*
X3422589Y-13204643D01*
X3441637Y-13204643D01*
X3508303Y-13337976D02*
X3508303Y-13204643D01*
X3508303Y-13137976D02*
X3498780Y-13147500D01*
X3508303Y-13157024D01*
X3517827Y-13147500D01*
X3508303Y-13137976D01*
X3508303Y-13157024D01*
X3632113Y-13337976D02*
X3613065Y-13328452D01*
X3603542Y-13309405D01*
X3603542Y-13137976D01*
X3736875Y-13337976D02*
X3717827Y-13328452D01*
X3708303Y-13309405D01*
X3708303Y-13137976D01*
X3965446Y-13337976D02*
X3965446Y-13137976D01*
X4032113Y-13280833D01*
X4098780Y-13137976D01*
X4098780Y-13337976D01*
X4279732Y-13337976D02*
X4279732Y-13233214D01*
X4270208Y-13214167D01*
X4251161Y-13204643D01*
X4213065Y-13204643D01*
X4194018Y-13214167D01*
X4279732Y-13328452D02*
X4260685Y-13337976D01*
X4213065Y-13337976D01*
X4194018Y-13328452D01*
X4184494Y-13309405D01*
X4184494Y-13290357D01*
X4194018Y-13271309D01*
X4213065Y-13261786D01*
X4260685Y-13261786D01*
X4279732Y-13252262D01*
X4374970Y-13204643D02*
X4374970Y-13404643D01*
X4374970Y-13214167D02*
X4394018Y-13204643D01*
X4432113Y-13204643D01*
X4451161Y-13214167D01*
X4460685Y-13223690D01*
X4470208Y-13242738D01*
X4470208Y-13299881D01*
X4460685Y-13318928D01*
X4451161Y-13328452D01*
X4432113Y-13337976D01*
X4394018Y-13337976D01*
X4374970Y-13328452D01*
X4555923Y-13318928D02*
X4565446Y-13328452D01*
X4555923Y-13337976D01*
X4546399Y-13328452D01*
X4555923Y-13318928D01*
X4555923Y-13337976D01*
X4555923Y-13214167D02*
X4565446Y-13223690D01*
X4555923Y-13233214D01*
X4546399Y-13223690D01*
X4555923Y-13214167D01*
X4555923Y-13233214D01*
M02*
