%FSLAX45Y45*%
G04 Gerber Fmt 4.5, Leading zero omitted, Abs format (unit mm)*
G04 Created by KiCad (PCBNEW (6.0.1)) date 2022-12-02 16:12:17*
%MOMM*%
%LPD*%
G01*
G04 APERTURE LIST*
%TA.AperFunction,Profile*%
%ADD10C,0.200000*%
%TD*%
%ADD11C,0.200000*%
%ADD12C,0.220000*%
G04 APERTURE END LIST*
D10*
X8349375Y-11365000D02*
X5144375Y-11365000D01*
X8399375Y-11415000D02*
G75*
G03*
X8349375Y-11365000I-50000J0D01*
G01*
X8399375Y-12715000D02*
X8399375Y-11415000D01*
X8349375Y-12765000D02*
G75*
G03*
X8399375Y-12715000I0J50000D01*
G01*
X5144375Y-12765000D02*
X8349375Y-12765000D01*
X5094375Y-12715000D02*
G75*
G03*
X5144375Y-12765000I50000J0D01*
G01*
X5094375Y-11415000D02*
X5094375Y-12715000D01*
X5144375Y-11365000D02*
G75*
G03*
X5094375Y-11415000I0J-50000D01*
G01*
X26923125Y-9460000D02*
X25623125Y-9460000D01*
X26973125Y-9510000D02*
G75*
G03*
X26923125Y-9460000I-50000J0D01*
G01*
X26973125Y-10810000D02*
X26973125Y-9510000D01*
X26923125Y-10860000D02*
G75*
G03*
X26973125Y-10810000I0J50000D01*
G01*
X25623125Y-10860000D02*
X26923125Y-10860000D01*
X25573125Y-10810000D02*
G75*
G03*
X25623125Y-10860000I50000J0D01*
G01*
X25573125Y-9510000D02*
X25573125Y-10810000D01*
X25623125Y-9460000D02*
G75*
G03*
X25573125Y-9510000I0J-50000D01*
G01*
X25018125Y-9460000D02*
X23718125Y-9460000D01*
X25068125Y-9510000D02*
G75*
G03*
X25018125Y-9460000I-50000J0D01*
G01*
X25068125Y-10810000D02*
X25068125Y-9510000D01*
X25018125Y-10860000D02*
G75*
G03*
X25068125Y-10810000I0J50000D01*
G01*
X23718125Y-10860000D02*
X25018125Y-10860000D01*
X23668125Y-10810000D02*
G75*
G03*
X23718125Y-10860000I50000J0D01*
G01*
X23668125Y-9510000D02*
X23668125Y-10810000D01*
X23718125Y-9460000D02*
G75*
G03*
X23668125Y-9510000I0J-50000D01*
G01*
X23113125Y-9460000D02*
X21813125Y-9460000D01*
X23163125Y-9510000D02*
G75*
G03*
X23113125Y-9460000I-50000J0D01*
G01*
X23163125Y-10810000D02*
X23163125Y-9510000D01*
X23113125Y-10860000D02*
G75*
G03*
X23163125Y-10810000I0J50000D01*
G01*
X21813125Y-10860000D02*
X23113125Y-10860000D01*
X21763125Y-10810000D02*
G75*
G03*
X21813125Y-10860000I50000J0D01*
G01*
X21763125Y-9510000D02*
X21763125Y-10810000D01*
X21813125Y-9460000D02*
G75*
G03*
X21763125Y-9510000I0J-50000D01*
G01*
X8428125Y-10810000D02*
G75*
G03*
X8478125Y-10860000I50000J0D01*
G01*
X9778125Y-10860000D02*
X8478125Y-10860000D01*
X9778125Y-10860000D02*
G75*
G03*
X9828125Y-10810000I0J50000D01*
G01*
X9828125Y-9510000D02*
X9828125Y-10810000D01*
X9828125Y-9510000D02*
G75*
G03*
X9778125Y-9460000I-50000J0D01*
G01*
X8478125Y-9460000D02*
X9778125Y-9460000D01*
X8478125Y-9460000D02*
G75*
G03*
X8428125Y-9510000I0J-50000D01*
G01*
X8428125Y-10810000D02*
X8428125Y-9510000D01*
X17398125Y-9460000D02*
X16098125Y-9460000D01*
X17448125Y-9510000D02*
G75*
G03*
X17398125Y-9460000I-50000J0D01*
G01*
X17448125Y-10810000D02*
X17448125Y-9510000D01*
X17398125Y-10860000D02*
G75*
G03*
X17448125Y-10810000I0J50000D01*
G01*
X16098125Y-10860000D02*
X17398125Y-10860000D01*
X16048125Y-10810000D02*
G75*
G03*
X16098125Y-10860000I50000J0D01*
G01*
X16048125Y-9510000D02*
X16048125Y-10810000D01*
X16098125Y-9460000D02*
G75*
G03*
X16048125Y-9510000I0J-50000D01*
G01*
X11683125Y-9460000D02*
X10383125Y-9460000D01*
X11733125Y-9510000D02*
G75*
G03*
X11683125Y-9460000I-50000J0D01*
G01*
X11733125Y-10810000D02*
X11733125Y-9510000D01*
X11683125Y-10860000D02*
G75*
G03*
X11733125Y-10810000I0J50000D01*
G01*
X10383125Y-10860000D02*
X11683125Y-10860000D01*
X10333125Y-10810000D02*
G75*
G03*
X10383125Y-10860000I50000J0D01*
G01*
X10333125Y-9510000D02*
X10333125Y-10810000D01*
X10383125Y-9460000D02*
G75*
G03*
X10333125Y-9510000I0J-50000D01*
G01*
X15493125Y-9460000D02*
X14193125Y-9460000D01*
X15543125Y-9510000D02*
G75*
G03*
X15493125Y-9460000I-50000J0D01*
G01*
X15543125Y-10810000D02*
X15543125Y-9510000D01*
X15493125Y-10860000D02*
G75*
G03*
X15543125Y-10810000I0J50000D01*
G01*
X14193125Y-10860000D02*
X15493125Y-10860000D01*
X14143125Y-10810000D02*
G75*
G03*
X14193125Y-10860000I50000J0D01*
G01*
X14143125Y-9510000D02*
X14143125Y-10810000D01*
X14193125Y-9460000D02*
G75*
G03*
X14143125Y-9510000I0J-50000D01*
G01*
X19303125Y-9460000D02*
X18003125Y-9460000D01*
X19353125Y-9510000D02*
G75*
G03*
X19303125Y-9460000I-50000J0D01*
G01*
X19353125Y-10810000D02*
X19353125Y-9510000D01*
X19303125Y-10860000D02*
G75*
G03*
X19353125Y-10810000I0J50000D01*
G01*
X18003125Y-10860000D02*
X19303125Y-10860000D01*
X17953125Y-10810000D02*
G75*
G03*
X18003125Y-10860000I50000J0D01*
G01*
X17953125Y-9510000D02*
X17953125Y-10810000D01*
X18003125Y-9460000D02*
G75*
G03*
X17953125Y-9510000I0J-50000D01*
G01*
X12238125Y-10810000D02*
G75*
G03*
X12288125Y-10860000I50000J0D01*
G01*
X13588125Y-10860000D02*
X12288125Y-10860000D01*
X13588125Y-10860000D02*
G75*
G03*
X13638125Y-10810000I0J50000D01*
G01*
X13638125Y-9510000D02*
X13638125Y-10810000D01*
X13638125Y-9510000D02*
G75*
G03*
X13588125Y-9460000I-50000J0D01*
G01*
X12288125Y-9460000D02*
X13588125Y-9460000D01*
X12288125Y-9460000D02*
G75*
G03*
X12238125Y-9510000I0J-50000D01*
G01*
X12238125Y-10810000D02*
X12238125Y-9510000D01*
X21208125Y-9460000D02*
X19908125Y-9460000D01*
X21258125Y-9510000D02*
G75*
G03*
X21208125Y-9460000I-50000J0D01*
G01*
X21258125Y-10810000D02*
X21258125Y-9510000D01*
X21208125Y-10860000D02*
G75*
G03*
X21258125Y-10810000I0J50000D01*
G01*
X19908125Y-10860000D02*
X21208125Y-10860000D01*
X19858125Y-10810000D02*
G75*
G03*
X19908125Y-10860000I50000J0D01*
G01*
X19858125Y-9510000D02*
X19858125Y-10810000D01*
X19908125Y-9460000D02*
G75*
G03*
X19858125Y-9510000I0J-50000D01*
G01*
X7873125Y-9460000D02*
X6573125Y-9460000D01*
X7923125Y-9510000D02*
G75*
G03*
X7873125Y-9460000I-50000J0D01*
G01*
X7923125Y-10810000D02*
X7923125Y-9510000D01*
X7873125Y-10860000D02*
G75*
G03*
X7923125Y-10810000I0J50000D01*
G01*
X6573125Y-10860000D02*
X7873125Y-10860000D01*
X6523125Y-10810000D02*
G75*
G03*
X6573125Y-10860000I50000J0D01*
G01*
X6523125Y-9510000D02*
X6523125Y-10810000D01*
X6573125Y-9460000D02*
G75*
G03*
X6523125Y-9510000I0J-50000D01*
G01*
X5253750Y-9460000D02*
X3953750Y-9460000D01*
X5303750Y-9510000D02*
G75*
G03*
X5253750Y-9460000I-50000J0D01*
G01*
X5303750Y-10810000D02*
X5303750Y-9510000D01*
X5253750Y-10860000D02*
G75*
G03*
X5303750Y-10810000I0J50000D01*
G01*
X3953750Y-10860000D02*
X5253750Y-10860000D01*
X3903750Y-10810000D02*
G75*
G03*
X3953750Y-10860000I50000J0D01*
G01*
X3903750Y-9510000D02*
X3903750Y-10810000D01*
X3953750Y-9460000D02*
G75*
G03*
X3903750Y-9510000I0J-50000D01*
G01*
X25096875Y-8905000D02*
G75*
G03*
X25146875Y-8955000I50000J0D01*
G01*
X26446875Y-8955000D02*
X25146875Y-8955000D01*
X26446875Y-8955000D02*
G75*
G03*
X26496875Y-8905000I0J50000D01*
G01*
X26496875Y-7605000D02*
X26496875Y-8905000D01*
X26496875Y-7605000D02*
G75*
G03*
X26446875Y-7555000I-50000J0D01*
G01*
X25146875Y-7555000D02*
X26446875Y-7555000D01*
X25146875Y-7555000D02*
G75*
G03*
X25096875Y-7605000I0J-50000D01*
G01*
X25096875Y-8905000D02*
X25096875Y-7605000D01*
X24065625Y-7555000D02*
X22765625Y-7555000D01*
X24115625Y-7605000D02*
G75*
G03*
X24065625Y-7555000I-50000J0D01*
G01*
X24115625Y-8905000D02*
X24115625Y-7605000D01*
X24065625Y-8955000D02*
G75*
G03*
X24115625Y-8905000I0J50000D01*
G01*
X22765625Y-8955000D02*
X24065625Y-8955000D01*
X22715625Y-8905000D02*
G75*
G03*
X22765625Y-8955000I50000J0D01*
G01*
X22715625Y-7605000D02*
X22715625Y-8905000D01*
X22765625Y-7555000D02*
G75*
G03*
X22715625Y-7605000I0J-50000D01*
G01*
X3553750Y-9460000D02*
X3503750Y-9460000D01*
X3603750Y-9510000D02*
G75*
G03*
X3553750Y-9460000I-50000J0D01*
G01*
X3603750Y-10810000D02*
X3603750Y-9510000D01*
X3553750Y-10860000D02*
G75*
G03*
X3603750Y-10810000I0J50000D01*
G01*
X3503750Y-10860000D02*
X3553750Y-10860000D01*
X3453750Y-10810000D02*
G75*
G03*
X3503750Y-10860000I50000J0D01*
G01*
X3453750Y-9510000D02*
X3453750Y-10810000D01*
X3503750Y-9460000D02*
G75*
G03*
X3453750Y-9510000I0J-50000D01*
G01*
X5753750Y-10810000D02*
X5753750Y-9510000D01*
X5703750Y-10860000D02*
G75*
G03*
X5753750Y-10810000I0J50000D01*
G01*
X5653750Y-10860000D02*
X5703750Y-10860000D01*
X5603750Y-10810000D02*
G75*
G03*
X5653750Y-10860000I50000J0D01*
G01*
X5603750Y-9510000D02*
X5603750Y-10810000D01*
X5653750Y-9460000D02*
G75*
G03*
X5603750Y-9510000I0J-50000D01*
G01*
X5703750Y-9460000D02*
X5653750Y-9460000D01*
X5753750Y-9510000D02*
G75*
G03*
X5703750Y-9460000I-50000J0D01*
G01*
X26896875Y-7555000D02*
X26846875Y-7555000D01*
X26946875Y-7605000D02*
G75*
G03*
X26896875Y-7555000I-50000J0D01*
G01*
X26946875Y-8905000D02*
X26946875Y-7605000D01*
X26896875Y-8955000D02*
G75*
G03*
X26946875Y-8905000I0J50000D01*
G01*
X26846875Y-8955000D02*
X26896875Y-8955000D01*
X26796875Y-8905000D02*
G75*
G03*
X26846875Y-8955000I50000J0D01*
G01*
X26796875Y-7605000D02*
X26796875Y-8905000D01*
X26846875Y-7555000D02*
G75*
G03*
X26796875Y-7605000I0J-50000D01*
G01*
X24796875Y-8905000D02*
X24796875Y-7605000D01*
X24746875Y-8955000D02*
G75*
G03*
X24796875Y-8905000I0J50000D01*
G01*
X24696875Y-8955000D02*
X24746875Y-8955000D01*
X24646875Y-8905000D02*
G75*
G03*
X24696875Y-8955000I50000J0D01*
G01*
X24646875Y-7605000D02*
X24646875Y-8905000D01*
X24696875Y-7555000D02*
G75*
G03*
X24646875Y-7605000I0J-50000D01*
G01*
X24746875Y-7555000D02*
X24696875Y-7555000D01*
X24796875Y-7605000D02*
G75*
G03*
X24746875Y-7555000I-50000J0D01*
G01*
X22160625Y-7555000D02*
X20860625Y-7555000D01*
X22210625Y-7605000D02*
G75*
G03*
X22160625Y-7555000I-50000J0D01*
G01*
X22210625Y-8905000D02*
X22210625Y-7605000D01*
X22160625Y-8955000D02*
G75*
G03*
X22210625Y-8905000I0J50000D01*
G01*
X20860625Y-8955000D02*
X22160625Y-8955000D01*
X20810625Y-8905000D02*
G75*
G03*
X20860625Y-8955000I50000J0D01*
G01*
X20810625Y-7605000D02*
X20810625Y-8905000D01*
X20860625Y-7555000D02*
G75*
G03*
X20810625Y-7605000I0J-50000D01*
G01*
X14540625Y-7555000D02*
X13240625Y-7555000D01*
X14590625Y-7605000D02*
G75*
G03*
X14540625Y-7555000I-50000J0D01*
G01*
X14590625Y-8905000D02*
X14590625Y-7605000D01*
X14540625Y-8955000D02*
G75*
G03*
X14590625Y-8905000I0J50000D01*
G01*
X13240625Y-8955000D02*
X14540625Y-8955000D01*
X13190625Y-8905000D02*
G75*
G03*
X13240625Y-8955000I50000J0D01*
G01*
X13190625Y-7605000D02*
X13190625Y-8905000D01*
X13240625Y-7555000D02*
G75*
G03*
X13190625Y-7605000I0J-50000D01*
G01*
X18350625Y-7555000D02*
X17050625Y-7555000D01*
X18400625Y-7605000D02*
G75*
G03*
X18350625Y-7555000I-50000J0D01*
G01*
X18400625Y-8905000D02*
X18400625Y-7605000D01*
X18350625Y-8955000D02*
G75*
G03*
X18400625Y-8905000I0J50000D01*
G01*
X17050625Y-8955000D02*
X18350625Y-8955000D01*
X17000625Y-8905000D02*
G75*
G03*
X17050625Y-8955000I50000J0D01*
G01*
X17000625Y-7605000D02*
X17000625Y-8905000D01*
X17050625Y-7555000D02*
G75*
G03*
X17000625Y-7605000I0J-50000D01*
G01*
X8825625Y-7555000D02*
X7525625Y-7555000D01*
X8875625Y-7605000D02*
G75*
G03*
X8825625Y-7555000I-50000J0D01*
G01*
X8875625Y-8905000D02*
X8875625Y-7605000D01*
X8825625Y-8955000D02*
G75*
G03*
X8875625Y-8905000I0J50000D01*
G01*
X7525625Y-8955000D02*
X8825625Y-8955000D01*
X7475625Y-8905000D02*
G75*
G03*
X7525625Y-8955000I50000J0D01*
G01*
X7475625Y-7605000D02*
X7475625Y-8905000D01*
X7525625Y-7555000D02*
G75*
G03*
X7475625Y-7605000I0J-50000D01*
G01*
X20255625Y-7555000D02*
X18955625Y-7555000D01*
X20305625Y-7605000D02*
G75*
G03*
X20255625Y-7555000I-50000J0D01*
G01*
X20305625Y-8905000D02*
X20305625Y-7605000D01*
X20255625Y-8955000D02*
G75*
G03*
X20305625Y-8905000I0J50000D01*
G01*
X18955625Y-8955000D02*
X20255625Y-8955000D01*
X18905625Y-8905000D02*
G75*
G03*
X18955625Y-8955000I50000J0D01*
G01*
X18905625Y-7605000D02*
X18905625Y-8905000D01*
X18955625Y-7555000D02*
G75*
G03*
X18905625Y-7605000I0J-50000D01*
G01*
X12635625Y-7555000D02*
X11335625Y-7555000D01*
X12685625Y-7605000D02*
G75*
G03*
X12635625Y-7555000I-50000J0D01*
G01*
X12685625Y-8905000D02*
X12685625Y-7605000D01*
X12635625Y-8955000D02*
G75*
G03*
X12685625Y-8905000I0J50000D01*
G01*
X11335625Y-8955000D02*
X12635625Y-8955000D01*
X11285625Y-8905000D02*
G75*
G03*
X11335625Y-8955000I50000J0D01*
G01*
X11285625Y-7605000D02*
X11285625Y-8905000D01*
X11335625Y-7555000D02*
G75*
G03*
X11285625Y-7605000I0J-50000D01*
G01*
X6920625Y-7555000D02*
X5620625Y-7555000D01*
X6970625Y-7605000D02*
G75*
G03*
X6920625Y-7555000I-50000J0D01*
G01*
X6970625Y-8905000D02*
X6970625Y-7605000D01*
X6920625Y-8955000D02*
G75*
G03*
X6970625Y-8905000I0J50000D01*
G01*
X5620625Y-8955000D02*
X6920625Y-8955000D01*
X5570625Y-8905000D02*
G75*
G03*
X5620625Y-8955000I50000J0D01*
G01*
X5570625Y-7605000D02*
X5570625Y-8905000D01*
X5620625Y-7555000D02*
G75*
G03*
X5570625Y-7605000I0J-50000D01*
G01*
X16445625Y-7555000D02*
X15145625Y-7555000D01*
X16495625Y-7605000D02*
G75*
G03*
X16445625Y-7555000I-50000J0D01*
G01*
X16495625Y-8905000D02*
X16495625Y-7605000D01*
X16445625Y-8955000D02*
G75*
G03*
X16495625Y-8905000I0J50000D01*
G01*
X15145625Y-8955000D02*
X16445625Y-8955000D01*
X15095625Y-8905000D02*
G75*
G03*
X15145625Y-8955000I50000J0D01*
G01*
X15095625Y-7605000D02*
X15095625Y-8905000D01*
X15145625Y-7555000D02*
G75*
G03*
X15095625Y-7605000I0J-50000D01*
G01*
X10730625Y-7555000D02*
X9430625Y-7555000D01*
X10780625Y-7605000D02*
G75*
G03*
X10730625Y-7555000I-50000J0D01*
G01*
X10780625Y-8905000D02*
X10780625Y-7605000D01*
X10730625Y-8955000D02*
G75*
G03*
X10780625Y-8905000I0J50000D01*
G01*
X9430625Y-8955000D02*
X10730625Y-8955000D01*
X9380625Y-8905000D02*
G75*
G03*
X9430625Y-8955000I50000J0D01*
G01*
X9380625Y-7605000D02*
X9380625Y-8905000D01*
X9430625Y-7555000D02*
G75*
G03*
X9380625Y-7605000I0J-50000D01*
G01*
X4777500Y-7555000D02*
X3477500Y-7555000D01*
X4827500Y-7605000D02*
G75*
G03*
X4777500Y-7555000I-50000J0D01*
G01*
X4827500Y-8905000D02*
X4827500Y-7605000D01*
X4777500Y-8955000D02*
G75*
G03*
X4827500Y-8905000I0J50000D01*
G01*
X3477500Y-8955000D02*
X4777500Y-8955000D01*
X3427500Y-8905000D02*
G75*
G03*
X3477500Y-8955000I50000J0D01*
G01*
X3427500Y-7605000D02*
X3427500Y-8905000D01*
X3477500Y-7555000D02*
G75*
G03*
X3427500Y-7605000I0J-50000D01*
G01*
X26658750Y-5650000D02*
X26608750Y-5650000D01*
X26708750Y-5700000D02*
G75*
G03*
X26658750Y-5650000I-50000J0D01*
G01*
X26708750Y-7000000D02*
X26708750Y-5700000D01*
X26658750Y-7050000D02*
G75*
G03*
X26708750Y-7000000I0J50000D01*
G01*
X26608750Y-7050000D02*
X26658750Y-7050000D01*
X26558750Y-7000000D02*
G75*
G03*
X26608750Y-7050000I50000J0D01*
G01*
X26558750Y-5700000D02*
X26558750Y-7000000D01*
X26608750Y-5650000D02*
G75*
G03*
X26558750Y-5700000I0J-50000D01*
G01*
X24508750Y-5650000D02*
X24458750Y-5650000D01*
X24558750Y-5700000D02*
G75*
G03*
X24508750Y-5650000I-50000J0D01*
G01*
X24558750Y-7000000D02*
X24558750Y-5700000D01*
X24508750Y-7050000D02*
G75*
G03*
X24558750Y-7000000I0J50000D01*
G01*
X24458750Y-7050000D02*
X24508750Y-7050000D01*
X24408750Y-7000000D02*
G75*
G03*
X24458750Y-7050000I50000J0D01*
G01*
X24408750Y-5700000D02*
X24408750Y-7000000D01*
X24458750Y-5650000D02*
G75*
G03*
X24408750Y-5700000I0J-50000D01*
G01*
X20334375Y-7000000D02*
G75*
G03*
X20384375Y-7050000I50000J0D01*
G01*
X21684375Y-7050000D02*
X20384375Y-7050000D01*
X21684375Y-7050000D02*
G75*
G03*
X21734375Y-7000000I0J50000D01*
G01*
X21734375Y-5700000D02*
X21734375Y-7000000D01*
X21734375Y-5700000D02*
G75*
G03*
X21684375Y-5650000I-50000J0D01*
G01*
X20384375Y-5650000D02*
X21684375Y-5650000D01*
X20384375Y-5650000D02*
G75*
G03*
X20334375Y-5700000I0J-50000D01*
G01*
X20334375Y-7000000D02*
X20334375Y-5700000D01*
X17874375Y-5650000D02*
X16574375Y-5650000D01*
X17924375Y-5700000D02*
G75*
G03*
X17874375Y-5650000I-50000J0D01*
G01*
X17924375Y-7000000D02*
X17924375Y-5700000D01*
X17874375Y-7050000D02*
G75*
G03*
X17924375Y-7000000I0J50000D01*
G01*
X16574375Y-7050000D02*
X17874375Y-7050000D01*
X16524375Y-7000000D02*
G75*
G03*
X16574375Y-7050000I50000J0D01*
G01*
X16524375Y-5700000D02*
X16524375Y-7000000D01*
X16574375Y-5650000D02*
G75*
G03*
X16524375Y-5700000I0J-50000D01*
G01*
X21131875Y-12765000D02*
X21413125Y-12765000D01*
X21081875Y-12715000D02*
G75*
G03*
X21131875Y-12765000I50000J0D01*
G01*
X21081875Y-11415000D02*
X21081875Y-12715000D01*
X21131875Y-11365000D02*
G75*
G03*
X21081875Y-11415000I0J-50000D01*
G01*
X21413125Y-11365000D02*
X21131875Y-11365000D01*
X21463125Y-11415000D02*
G75*
G03*
X21413125Y-11365000I-50000J0D01*
G01*
X21463125Y-12715000D02*
X21463125Y-11415000D01*
X21413125Y-12765000D02*
G75*
G03*
X21463125Y-12715000I0J50000D01*
G01*
X4777500Y-11365000D02*
X3239375Y-11365000D01*
X4827500Y-11415000D02*
G75*
G03*
X4777500Y-11365000I-50000J0D01*
G01*
X4827500Y-12715000D02*
X4827500Y-11415000D01*
X4777500Y-12765000D02*
G75*
G03*
X4827500Y-12715000I0J50000D01*
G01*
X3239375Y-12765000D02*
X4777500Y-12765000D01*
X3189375Y-12715000D02*
G75*
G03*
X3239375Y-12765000I50000J0D01*
G01*
X3189375Y-11415000D02*
X3189375Y-12715000D01*
X3239375Y-11365000D02*
G75*
G03*
X3189375Y-11415000I0J-50000D01*
G01*
X19779375Y-5650000D02*
X18479375Y-5650000D01*
X19829375Y-5700000D02*
G75*
G03*
X19779375Y-5650000I-50000J0D01*
G01*
X19829375Y-7000000D02*
X19829375Y-5700000D01*
X19779375Y-7050000D02*
G75*
G03*
X19829375Y-7000000I0J50000D01*
G01*
X18479375Y-7050000D02*
X19779375Y-7050000D01*
X18429375Y-7000000D02*
G75*
G03*
X18479375Y-7050000I50000J0D01*
G01*
X18429375Y-5700000D02*
X18429375Y-7000000D01*
X18479375Y-5650000D02*
G75*
G03*
X18429375Y-5700000I0J-50000D01*
G01*
X8716250Y-11365000D02*
G75*
G03*
X8666250Y-11415000I0J-50000D01*
G01*
X8666250Y-12715000D02*
X8666250Y-11415000D01*
X8666250Y-12715000D02*
G75*
G03*
X8716250Y-12765000I50000J0D01*
G01*
X10254375Y-12765000D02*
X8716250Y-12765000D01*
X10254375Y-12765000D02*
G75*
G03*
X10304375Y-12715000I0J50000D01*
G01*
X10304375Y-11415000D02*
X10304375Y-12715000D01*
X10304375Y-11415000D02*
G75*
G03*
X10254375Y-11365000I-50000J0D01*
G01*
X8716250Y-11365000D02*
X10254375Y-11365000D01*
X26208750Y-5650000D02*
X24908750Y-5650000D01*
X26258750Y-5700000D02*
G75*
G03*
X26208750Y-5650000I-50000J0D01*
G01*
X26258750Y-7000000D02*
X26258750Y-5700000D01*
X26208750Y-7050000D02*
G75*
G03*
X26258750Y-7000000I0J50000D01*
G01*
X24908750Y-7050000D02*
X26208750Y-7050000D01*
X24858750Y-7000000D02*
G75*
G03*
X24908750Y-7050000I50000J0D01*
G01*
X24858750Y-5700000D02*
X24858750Y-7000000D01*
X24908750Y-5650000D02*
G75*
G03*
X24858750Y-5700000I0J-50000D01*
G01*
X20731875Y-11365000D02*
X19193750Y-11365000D01*
X20781875Y-11415000D02*
G75*
G03*
X20731875Y-11365000I-50000J0D01*
G01*
X20781875Y-12715000D02*
X20781875Y-11415000D01*
X20731875Y-12765000D02*
G75*
G03*
X20781875Y-12715000I0J50000D01*
G01*
X19193750Y-12765000D02*
X20731875Y-12765000D01*
X19143750Y-12715000D02*
G75*
G03*
X19193750Y-12765000I50000J0D01*
G01*
X19143750Y-11415000D02*
X19143750Y-12715000D01*
X19193750Y-11365000D02*
G75*
G03*
X19143750Y-11415000I0J-50000D01*
G01*
X26923125Y-11365000D02*
X23718125Y-11365000D01*
X26973125Y-11415000D02*
G75*
G03*
X26923125Y-11365000I-50000J0D01*
G01*
X26973125Y-12715000D02*
X26973125Y-11415000D01*
X26923125Y-12765000D02*
G75*
G03*
X26973125Y-12715000I0J50000D01*
G01*
X23718125Y-12765000D02*
X26923125Y-12765000D01*
X23668125Y-12715000D02*
G75*
G03*
X23718125Y-12765000I50000J0D01*
G01*
X23668125Y-11415000D02*
X23668125Y-12715000D01*
X23718125Y-11365000D02*
G75*
G03*
X23668125Y-11415000I0J-50000D01*
G01*
X23589375Y-5650000D02*
X22289375Y-5650000D01*
X23639375Y-5700000D02*
G75*
G03*
X23589375Y-5650000I-50000J0D01*
G01*
X23639375Y-7000000D02*
X23639375Y-5700000D01*
X23589375Y-7050000D02*
G75*
G03*
X23639375Y-7000000I0J50000D01*
G01*
X22289375Y-7050000D02*
X23589375Y-7050000D01*
X22239375Y-7000000D02*
G75*
G03*
X22289375Y-7050000I50000J0D01*
G01*
X22239375Y-5700000D02*
X22239375Y-7000000D01*
X22289375Y-5650000D02*
G75*
G03*
X22239375Y-5700000I0J-50000D01*
G01*
X14114375Y-7000000D02*
X14114375Y-5700000D01*
X14064375Y-7050000D02*
G75*
G03*
X14114375Y-7000000I0J50000D01*
G01*
X12764375Y-7050000D02*
X14064375Y-7050000D01*
X12714375Y-7000000D02*
G75*
G03*
X12764375Y-7050000I50000J0D01*
G01*
X12714375Y-5700000D02*
X12714375Y-7000000D01*
X12764375Y-5650000D02*
G75*
G03*
X12714375Y-5700000I0J-50000D01*
G01*
X14064375Y-5650000D02*
X12764375Y-5650000D01*
X14114375Y-5700000D02*
G75*
G03*
X14064375Y-5650000I-50000J0D01*
G01*
X15969375Y-5650000D02*
X14669375Y-5650000D01*
X16019375Y-5700000D02*
G75*
G03*
X15969375Y-5650000I-50000J0D01*
G01*
X16019375Y-7000000D02*
X16019375Y-5700000D01*
X15969375Y-7050000D02*
G75*
G03*
X16019375Y-7000000I0J50000D01*
G01*
X14669375Y-7050000D02*
X15969375Y-7050000D01*
X14619375Y-7000000D02*
G75*
G03*
X14669375Y-7050000I50000J0D01*
G01*
X14619375Y-5700000D02*
X14619375Y-7000000D01*
X14669375Y-5650000D02*
G75*
G03*
X14619375Y-5700000I0J-50000D01*
G01*
X4539375Y-5650000D02*
X3239375Y-5650000D01*
X4589375Y-5700000D02*
G75*
G03*
X4539375Y-5650000I-50000J0D01*
G01*
X4589375Y-7000000D02*
X4589375Y-5700000D01*
X4539375Y-7050000D02*
G75*
G03*
X4589375Y-7000000I0J50000D01*
G01*
X3239375Y-7050000D02*
X4539375Y-7050000D01*
X3189375Y-7000000D02*
G75*
G03*
X3239375Y-7050000I50000J0D01*
G01*
X3189375Y-5700000D02*
X3189375Y-7000000D01*
X3239375Y-5650000D02*
G75*
G03*
X3189375Y-5700000I0J-50000D01*
G01*
X12159375Y-5650000D02*
X10859375Y-5650000D01*
X12209375Y-5700000D02*
G75*
G03*
X12159375Y-5650000I-50000J0D01*
G01*
X12209375Y-7000000D02*
X12209375Y-5700000D01*
X12159375Y-7050000D02*
G75*
G03*
X12209375Y-7000000I0J50000D01*
G01*
X10859375Y-7050000D02*
X12159375Y-7050000D01*
X10809375Y-7000000D02*
G75*
G03*
X10859375Y-7050000I50000J0D01*
G01*
X10809375Y-5700000D02*
X10809375Y-7000000D01*
X10859375Y-5650000D02*
G75*
G03*
X10809375Y-5700000I0J-50000D01*
G01*
X21763125Y-12715000D02*
G75*
G03*
X21813125Y-12765000I50000J0D01*
G01*
X23113125Y-12765000D02*
X21813125Y-12765000D01*
X23113125Y-12765000D02*
G75*
G03*
X23163125Y-12715000I0J50000D01*
G01*
X23163125Y-11415000D02*
X23163125Y-12715000D01*
X23163125Y-11415000D02*
G75*
G03*
X23113125Y-11365000I-50000J0D01*
G01*
X21813125Y-11365000D02*
X23113125Y-11365000D01*
X21813125Y-11365000D02*
G75*
G03*
X21763125Y-11415000I0J-50000D01*
G01*
X21763125Y-12715000D02*
X21763125Y-11415000D01*
X8349375Y-5650000D02*
X7049375Y-5650000D01*
X8399375Y-5700000D02*
G75*
G03*
X8349375Y-5650000I-50000J0D01*
G01*
X8399375Y-7000000D02*
X8399375Y-5700000D01*
X8349375Y-7050000D02*
G75*
G03*
X8399375Y-7000000I0J50000D01*
G01*
X7049375Y-7050000D02*
X8349375Y-7050000D01*
X6999375Y-7000000D02*
G75*
G03*
X7049375Y-7050000I50000J0D01*
G01*
X6999375Y-5700000D02*
X6999375Y-7000000D01*
X7049375Y-5650000D02*
G75*
G03*
X6999375Y-5700000I0J-50000D01*
G01*
X6444375Y-5650000D02*
X5144375Y-5650000D01*
X6494375Y-5700000D02*
G75*
G03*
X6444375Y-5650000I-50000J0D01*
G01*
X6494375Y-7000000D02*
X6494375Y-5700000D01*
X6444375Y-7050000D02*
G75*
G03*
X6494375Y-7000000I0J50000D01*
G01*
X5144375Y-7050000D02*
X6444375Y-7050000D01*
X5094375Y-7000000D02*
G75*
G03*
X5144375Y-7050000I50000J0D01*
G01*
X5094375Y-5700000D02*
X5094375Y-7000000D01*
X5144375Y-5650000D02*
G75*
G03*
X5094375Y-5700000I0J-50000D01*
G01*
X10254375Y-5650000D02*
X8954375Y-5650000D01*
X10304375Y-5700000D02*
G75*
G03*
X10254375Y-5650000I-50000J0D01*
G01*
X10304375Y-7000000D02*
X10304375Y-5700000D01*
X10254375Y-7050000D02*
G75*
G03*
X10304375Y-7000000I0J50000D01*
G01*
X8954375Y-7050000D02*
X10254375Y-7050000D01*
X8904375Y-7000000D02*
G75*
G03*
X8954375Y-7050000I50000J0D01*
G01*
X8904375Y-5700000D02*
X8904375Y-7000000D01*
X8954375Y-5650000D02*
G75*
G03*
X8904375Y-5700000I0J-50000D01*
G01*
X14193800Y-12665000D02*
X13450000Y-12665000D01*
X14193800Y-12665000D02*
G75*
G03*
X14243800Y-12615000I0J50000D01*
G01*
X14243800Y-11215000D02*
X14243800Y-12615000D01*
X14243800Y-11215000D02*
G75*
G03*
X14193800Y-11165000I-50000J0D01*
G01*
X13593800Y-11165000D02*
X14193800Y-11165000D01*
X13593800Y-11165000D02*
G75*
G03*
X13543800Y-11215000I0J-50000D01*
G01*
X13543800Y-11315000D02*
X13543800Y-11215000D01*
X13493800Y-11365000D02*
G75*
G03*
X13543800Y-11315000I0J50000D01*
G01*
X11906200Y-11365000D02*
X13493800Y-11365000D01*
X11856200Y-11315000D02*
G75*
G03*
X11906200Y-11365000I50000J0D01*
G01*
X11856200Y-11215000D02*
X11856200Y-11315000D01*
X11856200Y-11215000D02*
G75*
G03*
X11806200Y-11165000I-50000J0D01*
G01*
X11206200Y-11165000D02*
X11806200Y-11165000D01*
X11206200Y-11165000D02*
G75*
G03*
X11156200Y-11215000I0J-50000D01*
G01*
X11156200Y-12615000D02*
X11156200Y-11215000D01*
X11156200Y-12615000D02*
G75*
G03*
X11206200Y-12665000I50000J0D01*
G01*
X11950000Y-12665000D02*
X11206200Y-12665000D01*
X12000000Y-12715000D02*
G75*
G03*
X11950000Y-12665000I-50000J0D01*
G01*
X12000000Y-12715000D02*
G75*
G03*
X12050000Y-12765000I50000J0D01*
G01*
X13350000Y-12765000D02*
X12050000Y-12765000D01*
X13350000Y-12765000D02*
G75*
G03*
X13400000Y-12715000I0J50000D01*
G01*
X13450000Y-12665000D02*
G75*
G03*
X13400000Y-12715000I0J-50000D01*
G01*
X18241925Y-12665000D02*
X17498125Y-12665000D01*
X18241925Y-12665000D02*
G75*
G03*
X18291925Y-12615000I0J50000D01*
G01*
X18291925Y-11215000D02*
X18291925Y-12615000D01*
X18291925Y-11215000D02*
G75*
G03*
X18241925Y-11165000I-50000J0D01*
G01*
X17641925Y-11165000D02*
X18241925Y-11165000D01*
X17641925Y-11165000D02*
G75*
G03*
X17591925Y-11215000I0J-50000D01*
G01*
X17591925Y-11315000D02*
X17591925Y-11215000D01*
X17541925Y-11365000D02*
G75*
G03*
X17591925Y-11315000I0J50000D01*
G01*
X15954325Y-11365000D02*
X17541925Y-11365000D01*
X15904325Y-11315000D02*
G75*
G03*
X15954325Y-11365000I50000J0D01*
G01*
X15904325Y-11215000D02*
X15904325Y-11315000D01*
X15904325Y-11215000D02*
G75*
G03*
X15854325Y-11165000I-50000J0D01*
G01*
X15254325Y-11165000D02*
X15854325Y-11165000D01*
X15254325Y-11165000D02*
G75*
G03*
X15204325Y-11215000I0J-50000D01*
G01*
X15204325Y-12615000D02*
X15204325Y-11215000D01*
X15204325Y-12615000D02*
G75*
G03*
X15254325Y-12665000I50000J0D01*
G01*
X15998125Y-12665000D02*
X15254325Y-12665000D01*
X16048125Y-12715000D02*
G75*
G03*
X15998125Y-12665000I-50000J0D01*
G01*
X16048125Y-12715000D02*
G75*
G03*
X16098125Y-12765000I50000J0D01*
G01*
X17398125Y-12765000D02*
X16098125Y-12765000D01*
X17398125Y-12765000D02*
G75*
G03*
X17448125Y-12715000I0J50000D01*
G01*
X17498125Y-12665000D02*
G75*
G03*
X17448125Y-12715000I0J-50000D01*
G01*
X3136875Y-13017500D02*
X27025625Y-13017500D01*
X2936875Y-12817500D02*
G75*
G03*
X3136875Y-13017500I200000J0D01*
G01*
X2936875Y-5597500D02*
X2936875Y-12817500D01*
X3136875Y-5397500D02*
G75*
G03*
X2936875Y-5597500I0J-200000D01*
G01*
X27025625Y-5397500D02*
X3136875Y-5397500D01*
X27225625Y-5597500D02*
G75*
G03*
X27025625Y-5397500I-200000J0D01*
G01*
X27225625Y-12817500D02*
X27225625Y-5597500D01*
X27025625Y-13017500D02*
G75*
G03*
X27225625Y-12817500I0J200000D01*
G01*
D11*
D12*
X5089025Y-7192500D02*
X5309025Y-7412500D01*
X5309025Y-7192500D02*
X5089025Y-7412500D01*
X6028425Y-11002500D02*
X6248425Y-11222500D01*
X6248425Y-11002500D02*
X6028425Y-11222500D01*
X14733125Y-7192500D02*
X14953125Y-7412500D01*
X14953125Y-7192500D02*
X14733125Y-7412500D01*
X23305625Y-11002500D02*
X23525625Y-11222500D01*
X23525625Y-11002500D02*
X23305625Y-11222500D01*
X24271225Y-7192500D02*
X24491225Y-7412500D01*
X24491225Y-7192500D02*
X24271225Y-7412500D01*
D11*
X3184494Y-13337976D02*
X3184494Y-13137976D01*
X3232113Y-13137976D01*
X3260684Y-13147500D01*
X3279732Y-13166548D01*
X3289256Y-13185595D01*
X3298780Y-13223690D01*
X3298780Y-13252262D01*
X3289256Y-13290357D01*
X3279732Y-13309405D01*
X3260684Y-13328452D01*
X3232113Y-13337976D01*
X3184494Y-13337976D01*
X3384494Y-13337976D02*
X3384494Y-13204643D01*
X3384494Y-13242738D02*
X3394018Y-13223690D01*
X3403542Y-13214167D01*
X3422589Y-13204643D01*
X3441637Y-13204643D01*
X3508303Y-13337976D02*
X3508303Y-13204643D01*
X3508303Y-13137976D02*
X3498780Y-13147500D01*
X3508303Y-13157024D01*
X3517827Y-13147500D01*
X3508303Y-13137976D01*
X3508303Y-13157024D01*
X3632113Y-13337976D02*
X3613065Y-13328452D01*
X3603542Y-13309405D01*
X3603542Y-13137976D01*
X3736875Y-13337976D02*
X3717827Y-13328452D01*
X3708303Y-13309405D01*
X3708303Y-13137976D01*
X3965446Y-13337976D02*
X3965446Y-13137976D01*
X4032113Y-13280833D01*
X4098780Y-13137976D01*
X4098780Y-13337976D01*
X4279732Y-13337976D02*
X4279732Y-13233214D01*
X4270208Y-13214167D01*
X4251161Y-13204643D01*
X4213065Y-13204643D01*
X4194018Y-13214167D01*
X4279732Y-13328452D02*
X4260685Y-13337976D01*
X4213065Y-13337976D01*
X4194018Y-13328452D01*
X4184494Y-13309405D01*
X4184494Y-13290357D01*
X4194018Y-13271309D01*
X4213065Y-13261786D01*
X4260685Y-13261786D01*
X4279732Y-13252262D01*
X4374970Y-13204643D02*
X4374970Y-13404643D01*
X4374970Y-13214167D02*
X4394018Y-13204643D01*
X4432113Y-13204643D01*
X4451161Y-13214167D01*
X4460685Y-13223690D01*
X4470208Y-13242738D01*
X4470208Y-13299881D01*
X4460685Y-13318928D01*
X4451161Y-13328452D01*
X4432113Y-13337976D01*
X4394018Y-13337976D01*
X4374970Y-13328452D01*
X4555923Y-13318928D02*
X4565446Y-13328452D01*
X4555923Y-13337976D01*
X4546399Y-13328452D01*
X4555923Y-13318928D01*
X4555923Y-13337976D01*
X4555923Y-13214167D02*
X4565446Y-13223690D01*
X4555923Y-13233214D01*
X4546399Y-13223690D01*
X4555923Y-13214167D01*
X4555923Y-13233214D01*
X2726875Y-13567500D02*
X2926875Y-13767500D01*
X2926875Y-13567500D02*
X2726875Y-13767500D01*
X3174970Y-13577024D02*
X3184494Y-13567500D01*
X3203542Y-13557976D01*
X3251161Y-13557976D01*
X3270208Y-13567500D01*
X3279732Y-13577024D01*
X3289256Y-13596071D01*
X3289256Y-13615119D01*
X3279732Y-13643690D01*
X3165446Y-13757976D01*
X3289256Y-13757976D01*
X3374970Y-13738928D02*
X3384494Y-13748452D01*
X3374970Y-13757976D01*
X3365446Y-13748452D01*
X3374970Y-13738928D01*
X3374970Y-13757976D01*
X3460684Y-13577024D02*
X3470208Y-13567500D01*
X3489256Y-13557976D01*
X3536875Y-13557976D01*
X3555923Y-13567500D01*
X3565446Y-13577024D01*
X3574970Y-13596071D01*
X3574970Y-13615119D01*
X3565446Y-13643690D01*
X3451161Y-13757976D01*
X3574970Y-13757976D01*
X3698780Y-13557976D02*
X3717827Y-13557976D01*
X3736875Y-13567500D01*
X3746399Y-13577024D01*
X3755923Y-13596071D01*
X3765446Y-13634167D01*
X3765446Y-13681786D01*
X3755923Y-13719881D01*
X3746399Y-13738928D01*
X3736875Y-13748452D01*
X3717827Y-13757976D01*
X3698780Y-13757976D01*
X3679732Y-13748452D01*
X3670208Y-13738928D01*
X3660684Y-13719881D01*
X3651161Y-13681786D01*
X3651161Y-13634167D01*
X3660684Y-13596071D01*
X3670208Y-13577024D01*
X3679732Y-13567500D01*
X3698780Y-13557976D01*
X3889256Y-13557976D02*
X3908303Y-13557976D01*
X3927351Y-13567500D01*
X3936875Y-13577024D01*
X3946399Y-13596071D01*
X3955923Y-13634167D01*
X3955923Y-13681786D01*
X3946399Y-13719881D01*
X3936875Y-13738928D01*
X3927351Y-13748452D01*
X3908303Y-13757976D01*
X3889256Y-13757976D01*
X3870208Y-13748452D01*
X3860684Y-13738928D01*
X3851161Y-13719881D01*
X3841637Y-13681786D01*
X3841637Y-13634167D01*
X3851161Y-13596071D01*
X3860684Y-13577024D01*
X3870208Y-13567500D01*
X3889256Y-13557976D01*
X4041637Y-13757976D02*
X4041637Y-13624643D01*
X4041637Y-13643690D02*
X4051161Y-13634167D01*
X4070208Y-13624643D01*
X4098780Y-13624643D01*
X4117827Y-13634167D01*
X4127351Y-13653214D01*
X4127351Y-13757976D01*
X4127351Y-13653214D02*
X4136875Y-13634167D01*
X4155923Y-13624643D01*
X4184494Y-13624643D01*
X4203542Y-13634167D01*
X4213065Y-13653214D01*
X4213065Y-13757976D01*
X4308304Y-13757976D02*
X4308304Y-13624643D01*
X4308304Y-13643690D02*
X4317827Y-13634167D01*
X4336875Y-13624643D01*
X4365446Y-13624643D01*
X4384494Y-13634167D01*
X4394018Y-13653214D01*
X4394018Y-13757976D01*
X4394018Y-13653214D02*
X4403542Y-13634167D01*
X4422589Y-13624643D01*
X4451161Y-13624643D01*
X4470208Y-13634167D01*
X4479732Y-13653214D01*
X4479732Y-13757976D01*
X4870208Y-13548452D02*
X4698780Y-13805595D01*
X5127351Y-13557976D02*
X5146399Y-13557976D01*
X5165446Y-13567500D01*
X5174970Y-13577024D01*
X5184494Y-13596071D01*
X5194018Y-13634167D01*
X5194018Y-13681786D01*
X5184494Y-13719881D01*
X5174970Y-13738928D01*
X5165446Y-13748452D01*
X5146399Y-13757976D01*
X5127351Y-13757976D01*
X5108304Y-13748452D01*
X5098780Y-13738928D01*
X5089256Y-13719881D01*
X5079732Y-13681786D01*
X5079732Y-13634167D01*
X5089256Y-13596071D01*
X5098780Y-13577024D01*
X5108304Y-13567500D01*
X5127351Y-13557976D01*
X5279732Y-13738928D02*
X5289256Y-13748452D01*
X5279732Y-13757976D01*
X5270208Y-13748452D01*
X5279732Y-13738928D01*
X5279732Y-13757976D01*
X5413065Y-13557976D02*
X5432113Y-13557976D01*
X5451161Y-13567500D01*
X5460685Y-13577024D01*
X5470208Y-13596071D01*
X5479732Y-13634167D01*
X5479732Y-13681786D01*
X5470208Y-13719881D01*
X5460685Y-13738928D01*
X5451161Y-13748452D01*
X5432113Y-13757976D01*
X5413065Y-13757976D01*
X5394018Y-13748452D01*
X5384494Y-13738928D01*
X5374970Y-13719881D01*
X5365446Y-13681786D01*
X5365446Y-13634167D01*
X5374970Y-13596071D01*
X5384494Y-13577024D01*
X5394018Y-13567500D01*
X5413065Y-13557976D01*
X5594018Y-13643690D02*
X5574970Y-13634167D01*
X5565446Y-13624643D01*
X5555923Y-13605595D01*
X5555923Y-13596071D01*
X5565446Y-13577024D01*
X5574970Y-13567500D01*
X5594018Y-13557976D01*
X5632113Y-13557976D01*
X5651161Y-13567500D01*
X5660684Y-13577024D01*
X5670208Y-13596071D01*
X5670208Y-13605595D01*
X5660684Y-13624643D01*
X5651161Y-13634167D01*
X5632113Y-13643690D01*
X5594018Y-13643690D01*
X5574970Y-13653214D01*
X5565446Y-13662738D01*
X5555923Y-13681786D01*
X5555923Y-13719881D01*
X5565446Y-13738928D01*
X5574970Y-13748452D01*
X5594018Y-13757976D01*
X5632113Y-13757976D01*
X5651161Y-13748452D01*
X5660684Y-13738928D01*
X5670208Y-13719881D01*
X5670208Y-13681786D01*
X5660684Y-13662738D01*
X5651161Y-13653214D01*
X5632113Y-13643690D01*
X5841637Y-13557976D02*
X5803542Y-13557976D01*
X5784494Y-13567500D01*
X5774970Y-13577024D01*
X5755923Y-13605595D01*
X5746399Y-13643690D01*
X5746399Y-13719881D01*
X5755923Y-13738928D01*
X5765446Y-13748452D01*
X5784494Y-13757976D01*
X5822589Y-13757976D01*
X5841637Y-13748452D01*
X5851161Y-13738928D01*
X5860684Y-13719881D01*
X5860684Y-13672262D01*
X5851161Y-13653214D01*
X5841637Y-13643690D01*
X5822589Y-13634167D01*
X5784494Y-13634167D01*
X5765446Y-13643690D01*
X5755923Y-13653214D01*
X5746399Y-13672262D01*
X6032113Y-13557976D02*
X5994018Y-13557976D01*
X5974970Y-13567500D01*
X5965446Y-13577024D01*
X5946399Y-13605595D01*
X5936875Y-13643690D01*
X5936875Y-13719881D01*
X5946399Y-13738928D01*
X5955923Y-13748452D01*
X5974970Y-13757976D01*
X6013065Y-13757976D01*
X6032113Y-13748452D01*
X6041637Y-13738928D01*
X6051161Y-13719881D01*
X6051161Y-13672262D01*
X6041637Y-13653214D01*
X6032113Y-13643690D01*
X6013065Y-13634167D01*
X5974970Y-13634167D01*
X5955923Y-13643690D01*
X5946399Y-13653214D01*
X5936875Y-13672262D01*
X6127351Y-13557976D02*
X6127351Y-13596071D01*
X6203542Y-13557976D02*
X6203542Y-13596071D01*
X6498780Y-13834167D02*
X6489256Y-13824643D01*
X6470208Y-13796071D01*
X6460684Y-13777024D01*
X6451161Y-13748452D01*
X6441637Y-13700833D01*
X6441637Y-13662738D01*
X6451161Y-13615119D01*
X6460684Y-13586548D01*
X6470208Y-13567500D01*
X6489256Y-13538928D01*
X6498780Y-13529405D01*
X6670208Y-13557976D02*
X6574970Y-13557976D01*
X6565446Y-13653214D01*
X6574970Y-13643690D01*
X6594018Y-13634167D01*
X6641637Y-13634167D01*
X6660684Y-13643690D01*
X6670208Y-13653214D01*
X6679732Y-13672262D01*
X6679732Y-13719881D01*
X6670208Y-13738928D01*
X6660684Y-13748452D01*
X6641637Y-13757976D01*
X6594018Y-13757976D01*
X6574970Y-13748452D01*
X6565446Y-13738928D01*
X6917827Y-13757976D02*
X6917827Y-13557976D01*
X7003542Y-13757976D02*
X7003542Y-13653214D01*
X6994018Y-13634167D01*
X6974970Y-13624643D01*
X6946399Y-13624643D01*
X6927351Y-13634167D01*
X6917827Y-13643690D01*
X7127351Y-13757976D02*
X7108303Y-13748452D01*
X7098780Y-13738928D01*
X7089256Y-13719881D01*
X7089256Y-13662738D01*
X7098780Y-13643690D01*
X7108303Y-13634167D01*
X7127351Y-13624643D01*
X7155923Y-13624643D01*
X7174970Y-13634167D01*
X7184494Y-13643690D01*
X7194018Y-13662738D01*
X7194018Y-13719881D01*
X7184494Y-13738928D01*
X7174970Y-13748452D01*
X7155923Y-13757976D01*
X7127351Y-13757976D01*
X7308303Y-13757976D02*
X7289256Y-13748452D01*
X7279732Y-13729405D01*
X7279732Y-13557976D01*
X7460684Y-13748452D02*
X7441637Y-13757976D01*
X7403542Y-13757976D01*
X7384494Y-13748452D01*
X7374970Y-13729405D01*
X7374970Y-13653214D01*
X7384494Y-13634167D01*
X7403542Y-13624643D01*
X7441637Y-13624643D01*
X7460684Y-13634167D01*
X7470208Y-13653214D01*
X7470208Y-13672262D01*
X7374970Y-13691309D01*
X7546399Y-13748452D02*
X7565446Y-13757976D01*
X7603542Y-13757976D01*
X7622589Y-13748452D01*
X7632113Y-13729405D01*
X7632113Y-13719881D01*
X7622589Y-13700833D01*
X7603542Y-13691309D01*
X7574970Y-13691309D01*
X7555923Y-13681786D01*
X7546399Y-13662738D01*
X7546399Y-13653214D01*
X7555923Y-13634167D01*
X7574970Y-13624643D01*
X7603542Y-13624643D01*
X7622589Y-13634167D01*
X7698780Y-13834167D02*
X7708303Y-13824643D01*
X7727351Y-13796071D01*
X7736875Y-13777024D01*
X7746399Y-13748452D01*
X7755923Y-13700833D01*
X7755923Y-13662738D01*
X7746399Y-13615119D01*
X7736875Y-13586548D01*
X7727351Y-13567500D01*
X7708303Y-13538928D01*
X7698780Y-13529405D01*
X8060684Y-13834167D02*
X8051161Y-13824643D01*
X8032113Y-13796071D01*
X8022589Y-13777024D01*
X8013065Y-13748452D01*
X8003542Y-13700833D01*
X8003542Y-13662738D01*
X8013065Y-13615119D01*
X8022589Y-13586548D01*
X8032113Y-13567500D01*
X8051161Y-13538928D01*
X8060684Y-13529405D01*
X8136875Y-13624643D02*
X8136875Y-13757976D01*
X8136875Y-13643690D02*
X8146399Y-13634167D01*
X8165446Y-13624643D01*
X8194018Y-13624643D01*
X8213065Y-13634167D01*
X8222589Y-13653214D01*
X8222589Y-13757976D01*
X8346399Y-13757976D02*
X8327351Y-13748452D01*
X8317827Y-13738928D01*
X8308303Y-13719881D01*
X8308303Y-13662738D01*
X8317827Y-13643690D01*
X8327351Y-13634167D01*
X8346399Y-13624643D01*
X8374970Y-13624643D01*
X8394018Y-13634167D01*
X8403542Y-13643690D01*
X8413065Y-13662738D01*
X8413065Y-13719881D01*
X8403542Y-13738928D01*
X8394018Y-13748452D01*
X8374970Y-13757976D01*
X8346399Y-13757976D01*
X8470208Y-13624643D02*
X8546399Y-13624643D01*
X8498780Y-13557976D02*
X8498780Y-13729405D01*
X8508304Y-13748452D01*
X8527351Y-13757976D01*
X8546399Y-13757976D01*
X8765446Y-13624643D02*
X8765446Y-13824643D01*
X8765446Y-13634167D02*
X8784494Y-13624643D01*
X8822589Y-13624643D01*
X8841637Y-13634167D01*
X8851161Y-13643690D01*
X8860685Y-13662738D01*
X8860685Y-13719881D01*
X8851161Y-13738928D01*
X8841637Y-13748452D01*
X8822589Y-13757976D01*
X8784494Y-13757976D01*
X8765446Y-13748452D01*
X8974970Y-13757976D02*
X8955923Y-13748452D01*
X8946399Y-13729405D01*
X8946399Y-13557976D01*
X9136875Y-13757976D02*
X9136875Y-13653214D01*
X9127351Y-13634167D01*
X9108304Y-13624643D01*
X9070208Y-13624643D01*
X9051161Y-13634167D01*
X9136875Y-13748452D02*
X9117827Y-13757976D01*
X9070208Y-13757976D01*
X9051161Y-13748452D01*
X9041637Y-13729405D01*
X9041637Y-13710357D01*
X9051161Y-13691309D01*
X9070208Y-13681786D01*
X9117827Y-13681786D01*
X9136875Y-13672262D01*
X9203542Y-13624643D02*
X9279732Y-13624643D01*
X9232113Y-13557976D02*
X9232113Y-13729405D01*
X9241637Y-13748452D01*
X9260685Y-13757976D01*
X9279732Y-13757976D01*
X9422589Y-13748452D02*
X9403542Y-13757976D01*
X9365446Y-13757976D01*
X9346399Y-13748452D01*
X9336875Y-13729405D01*
X9336875Y-13653214D01*
X9346399Y-13634167D01*
X9365446Y-13624643D01*
X9403542Y-13624643D01*
X9422589Y-13634167D01*
X9432113Y-13653214D01*
X9432113Y-13672262D01*
X9336875Y-13691309D01*
X9603542Y-13757976D02*
X9603542Y-13557976D01*
X9603542Y-13748452D02*
X9584494Y-13757976D01*
X9546399Y-13757976D01*
X9527351Y-13748452D01*
X9517827Y-13738928D01*
X9508304Y-13719881D01*
X9508304Y-13662738D01*
X9517827Y-13643690D01*
X9527351Y-13634167D01*
X9546399Y-13624643D01*
X9584494Y-13624643D01*
X9603542Y-13634167D01*
X9679732Y-13834167D02*
X9689256Y-13824643D01*
X9708304Y-13796071D01*
X9717827Y-13777024D01*
X9727351Y-13748452D01*
X9736875Y-13700833D01*
X9736875Y-13662738D01*
X9727351Y-13615119D01*
X9717827Y-13586548D01*
X9708304Y-13567500D01*
X9689256Y-13538928D01*
X9679732Y-13529405D01*
M02*
