G04 #@! TF.GenerationSoftware,KiCad,Pcbnew,(6.0.1)*
G04 #@! TF.CreationDate,2022-12-02T16:12:10+01:00*
G04 #@! TF.ProjectId,plateA,706c6174-6541-42e6-9b69-6361645f7063,rev?*
G04 #@! TF.SameCoordinates,Original*
G04 #@! TF.FileFunction,Profile,NP*
%FSLAX46Y46*%
G04 Gerber Fmt 4.6, Leading zero omitted, Abs format (unit mm)*
G04 Created by KiCad (PCBNEW (6.0.1)) date 2022-12-02 16:12:10*
%MOMM*%
%LPD*%
G01*
G04 APERTURE LIST*
G04 #@! TA.AperFunction,Profile*
%ADD10C,0.200000*%
G04 #@! TD*
G04 APERTURE END LIST*
D10*
X83493750Y-113650000D02*
X51443750Y-113650000D01*
X83993750Y-114150000D02*
G75*
G03*
X83493750Y-113650000I-500001J-1D01*
G01*
X83993750Y-127150000D02*
X83993750Y-114150000D01*
X83493750Y-127650000D02*
G75*
G03*
X83993750Y-127150000I-1J500001D01*
G01*
X51443750Y-127650000D02*
X83493750Y-127650000D01*
X50943750Y-127150000D02*
G75*
G03*
X51443750Y-127650000I500001J1D01*
G01*
X50943750Y-114150000D02*
X50943750Y-127150000D01*
X51443750Y-113650000D02*
G75*
G03*
X50943750Y-114150000I1J-500001D01*
G01*
X269231250Y-94600000D02*
X256231250Y-94600000D01*
X269731250Y-95100000D02*
G75*
G03*
X269231250Y-94600000I-500001J-1D01*
G01*
X269731250Y-108100000D02*
X269731250Y-95100000D01*
X269231250Y-108600000D02*
G75*
G03*
X269731250Y-108100000I-1J500001D01*
G01*
X256231250Y-108600000D02*
X269231250Y-108600000D01*
X255731250Y-108100000D02*
G75*
G03*
X256231250Y-108600000I500001J1D01*
G01*
X255731250Y-95100000D02*
X255731250Y-108100000D01*
X256231250Y-94600000D02*
G75*
G03*
X255731250Y-95100000I1J-500001D01*
G01*
X250181250Y-94600000D02*
X237181250Y-94600000D01*
X250681250Y-95100000D02*
G75*
G03*
X250181250Y-94600000I-500001J-1D01*
G01*
X250681250Y-108100000D02*
X250681250Y-95100000D01*
X250181250Y-108600000D02*
G75*
G03*
X250681250Y-108100000I-1J500001D01*
G01*
X237181250Y-108600000D02*
X250181250Y-108600000D01*
X236681250Y-108100000D02*
G75*
G03*
X237181250Y-108600000I500001J1D01*
G01*
X236681250Y-95100000D02*
X236681250Y-108100000D01*
X237181250Y-94600000D02*
G75*
G03*
X236681250Y-95100000I1J-500001D01*
G01*
X231131250Y-94600000D02*
X218131250Y-94600000D01*
X231631250Y-95100000D02*
G75*
G03*
X231131250Y-94600000I-500001J-1D01*
G01*
X231631250Y-108100000D02*
X231631250Y-95100000D01*
X231131250Y-108600000D02*
G75*
G03*
X231631250Y-108100000I-1J500001D01*
G01*
X218131250Y-108600000D02*
X231131250Y-108600000D01*
X217631250Y-108100000D02*
G75*
G03*
X218131250Y-108600000I500001J1D01*
G01*
X217631250Y-95100000D02*
X217631250Y-108100000D01*
X218131250Y-94600000D02*
G75*
G03*
X217631250Y-95100000I1J-500001D01*
G01*
X84281250Y-108100000D02*
G75*
G03*
X84781250Y-108600000I500001J1D01*
G01*
X97781250Y-108600000D02*
X84781250Y-108600000D01*
X97781250Y-108600000D02*
G75*
G03*
X98281250Y-108100000I-1J500001D01*
G01*
X98281250Y-95100000D02*
X98281250Y-108100000D01*
X98281250Y-95100000D02*
G75*
G03*
X97781250Y-94600000I-500001J-1D01*
G01*
X84781250Y-94600000D02*
X97781250Y-94600000D01*
X84781250Y-94600000D02*
G75*
G03*
X84281250Y-95100000I1J-500001D01*
G01*
X84281250Y-108100000D02*
X84281250Y-95100000D01*
X173981250Y-94600000D02*
X160981250Y-94600000D01*
X174481250Y-95100000D02*
G75*
G03*
X173981250Y-94600000I-500001J-1D01*
G01*
X174481250Y-108100000D02*
X174481250Y-95100000D01*
X173981250Y-108600000D02*
G75*
G03*
X174481250Y-108100000I-1J500001D01*
G01*
X160981250Y-108600000D02*
X173981250Y-108600000D01*
X160481250Y-108100000D02*
G75*
G03*
X160981250Y-108600000I500001J1D01*
G01*
X160481250Y-95100000D02*
X160481250Y-108100000D01*
X160981250Y-94600000D02*
G75*
G03*
X160481250Y-95100000I1J-500001D01*
G01*
X116831250Y-94600000D02*
X103831250Y-94600000D01*
X117331250Y-95100000D02*
G75*
G03*
X116831250Y-94600000I-500001J-1D01*
G01*
X117331250Y-108100000D02*
X117331250Y-95100000D01*
X116831250Y-108600000D02*
G75*
G03*
X117331250Y-108100000I-1J500001D01*
G01*
X103831250Y-108600000D02*
X116831250Y-108600000D01*
X103331250Y-108100000D02*
G75*
G03*
X103831250Y-108600000I500001J1D01*
G01*
X103331250Y-95100000D02*
X103331250Y-108100000D01*
X103831250Y-94600000D02*
G75*
G03*
X103331250Y-95100000I1J-500001D01*
G01*
X154931250Y-94600000D02*
X141931250Y-94600000D01*
X155431250Y-95100000D02*
G75*
G03*
X154931250Y-94600000I-500001J-1D01*
G01*
X155431250Y-108100000D02*
X155431250Y-95100000D01*
X154931250Y-108600000D02*
G75*
G03*
X155431250Y-108100000I-1J500001D01*
G01*
X141931250Y-108600000D02*
X154931250Y-108600000D01*
X141431250Y-108100000D02*
G75*
G03*
X141931250Y-108600000I500001J1D01*
G01*
X141431250Y-95100000D02*
X141431250Y-108100000D01*
X141931250Y-94600000D02*
G75*
G03*
X141431250Y-95100000I1J-500001D01*
G01*
X193031250Y-94600000D02*
X180031250Y-94600000D01*
X193531250Y-95100000D02*
G75*
G03*
X193031250Y-94600000I-500001J-1D01*
G01*
X193531250Y-108100000D02*
X193531250Y-95100000D01*
X193031250Y-108600000D02*
G75*
G03*
X193531250Y-108100000I-1J500001D01*
G01*
X180031250Y-108600000D02*
X193031250Y-108600000D01*
X179531250Y-108100000D02*
G75*
G03*
X180031250Y-108600000I500001J1D01*
G01*
X179531250Y-95100000D02*
X179531250Y-108100000D01*
X180031250Y-94600000D02*
G75*
G03*
X179531250Y-95100000I1J-500001D01*
G01*
X122381250Y-108100000D02*
G75*
G03*
X122881250Y-108600000I500001J1D01*
G01*
X135881250Y-108600000D02*
X122881250Y-108600000D01*
X135881250Y-108600000D02*
G75*
G03*
X136381250Y-108100000I-1J500001D01*
G01*
X136381250Y-95100000D02*
X136381250Y-108100000D01*
X136381250Y-95100000D02*
G75*
G03*
X135881250Y-94600000I-500001J-1D01*
G01*
X122881250Y-94600000D02*
X135881250Y-94600000D01*
X122881250Y-94600000D02*
G75*
G03*
X122381250Y-95100000I1J-500001D01*
G01*
X122381250Y-108100000D02*
X122381250Y-95100000D01*
X212081250Y-94600000D02*
X199081250Y-94600000D01*
X212581250Y-95100000D02*
G75*
G03*
X212081250Y-94600000I-500001J-1D01*
G01*
X212581250Y-108100000D02*
X212581250Y-95100000D01*
X212081250Y-108600000D02*
G75*
G03*
X212581250Y-108100000I-1J500001D01*
G01*
X199081250Y-108600000D02*
X212081250Y-108600000D01*
X198581250Y-108100000D02*
G75*
G03*
X199081250Y-108600000I500001J1D01*
G01*
X198581250Y-95100000D02*
X198581250Y-108100000D01*
X199081250Y-94600000D02*
G75*
G03*
X198581250Y-95100000I1J-500001D01*
G01*
X78731250Y-94600000D02*
X65731250Y-94600000D01*
X79231250Y-95100000D02*
G75*
G03*
X78731250Y-94600000I-500001J-1D01*
G01*
X79231250Y-108100000D02*
X79231250Y-95100000D01*
X78731250Y-108600000D02*
G75*
G03*
X79231250Y-108100000I-1J500001D01*
G01*
X65731250Y-108600000D02*
X78731250Y-108600000D01*
X65231250Y-108100000D02*
G75*
G03*
X65731250Y-108600000I500001J1D01*
G01*
X65231250Y-95100000D02*
X65231250Y-108100000D01*
X65731250Y-94600000D02*
G75*
G03*
X65231250Y-95100000I1J-500001D01*
G01*
X52537500Y-94600000D02*
X39537500Y-94600000D01*
X53037500Y-95100000D02*
G75*
G03*
X52537500Y-94600000I-500001J-1D01*
G01*
X53037500Y-108100000D02*
X53037500Y-95100000D01*
X52537500Y-108600000D02*
G75*
G03*
X53037500Y-108100000I-1J500001D01*
G01*
X39537500Y-108600000D02*
X52537500Y-108600000D01*
X39037500Y-108100000D02*
G75*
G03*
X39537500Y-108600000I500001J1D01*
G01*
X39037500Y-95100000D02*
X39037500Y-108100000D01*
X39537500Y-94600000D02*
G75*
G03*
X39037500Y-95100000I1J-500001D01*
G01*
X250968750Y-89050000D02*
G75*
G03*
X251468750Y-89550000I500001J1D01*
G01*
X264468750Y-89550000D02*
X251468750Y-89550000D01*
X264468750Y-89550000D02*
G75*
G03*
X264968750Y-89050000I-1J500001D01*
G01*
X264968750Y-76050000D02*
X264968750Y-89050000D01*
X264968750Y-76050000D02*
G75*
G03*
X264468750Y-75550000I-500001J-1D01*
G01*
X251468750Y-75550000D02*
X264468750Y-75550000D01*
X251468750Y-75550000D02*
G75*
G03*
X250968750Y-76050000I1J-500001D01*
G01*
X250968750Y-89050000D02*
X250968750Y-76050000D01*
X240656250Y-75550000D02*
X227656250Y-75550000D01*
X241156250Y-76050000D02*
G75*
G03*
X240656250Y-75550000I-500001J-1D01*
G01*
X241156250Y-89050000D02*
X241156250Y-76050000D01*
X240656250Y-89550000D02*
G75*
G03*
X241156250Y-89050000I-1J500001D01*
G01*
X227656250Y-89550000D02*
X240656250Y-89550000D01*
X227156250Y-89050000D02*
G75*
G03*
X227656250Y-89550000I500001J1D01*
G01*
X227156250Y-76050000D02*
X227156250Y-89050000D01*
X227656250Y-75550000D02*
G75*
G03*
X227156250Y-76050000I1J-500001D01*
G01*
X35537500Y-94600000D02*
X35037500Y-94600000D01*
X36037500Y-95100000D02*
G75*
G03*
X35537500Y-94600000I-500001J-1D01*
G01*
X36037500Y-108100000D02*
X36037500Y-95100000D01*
X35537500Y-108600000D02*
G75*
G03*
X36037500Y-108100000I-1J500001D01*
G01*
X35037500Y-108600000D02*
X35537500Y-108600000D01*
X34537500Y-108100000D02*
G75*
G03*
X35037500Y-108600000I500001J1D01*
G01*
X34537500Y-95100000D02*
X34537500Y-108100000D01*
X35037500Y-94600000D02*
G75*
G03*
X34537500Y-95100000I1J-500001D01*
G01*
X57537500Y-108100000D02*
X57537500Y-95100000D01*
X57037500Y-108600000D02*
G75*
G03*
X57537500Y-108100000I-1J500001D01*
G01*
X56537500Y-108600000D02*
X57037500Y-108600000D01*
X56037500Y-108100000D02*
G75*
G03*
X56537500Y-108600000I500001J1D01*
G01*
X56037500Y-95100000D02*
X56037500Y-108100000D01*
X56537500Y-94600000D02*
G75*
G03*
X56037500Y-95100000I1J-500001D01*
G01*
X57037500Y-94600000D02*
X56537500Y-94600000D01*
X57537500Y-95100000D02*
G75*
G03*
X57037500Y-94600000I-500001J-1D01*
G01*
X268968750Y-75550000D02*
X268468750Y-75550000D01*
X269468750Y-76050000D02*
G75*
G03*
X268968750Y-75550000I-500001J-1D01*
G01*
X269468750Y-89050000D02*
X269468750Y-76050000D01*
X268968750Y-89550000D02*
G75*
G03*
X269468750Y-89050000I-1J500001D01*
G01*
X268468750Y-89550000D02*
X268968750Y-89550000D01*
X267968750Y-89050000D02*
G75*
G03*
X268468750Y-89550000I500001J1D01*
G01*
X267968750Y-76050000D02*
X267968750Y-89050000D01*
X268468750Y-75550000D02*
G75*
G03*
X267968750Y-76050000I1J-500001D01*
G01*
X247968750Y-89050000D02*
X247968750Y-76050000D01*
X247468750Y-89550000D02*
G75*
G03*
X247968750Y-89050000I-1J500001D01*
G01*
X246968750Y-89550000D02*
X247468750Y-89550000D01*
X246468750Y-89050000D02*
G75*
G03*
X246968750Y-89550000I500001J1D01*
G01*
X246468750Y-76050000D02*
X246468750Y-89050000D01*
X246968750Y-75550000D02*
G75*
G03*
X246468750Y-76050000I1J-500001D01*
G01*
X247468750Y-75550000D02*
X246968750Y-75550000D01*
X247968750Y-76050000D02*
G75*
G03*
X247468750Y-75550000I-500001J-1D01*
G01*
X221606250Y-75550000D02*
X208606250Y-75550000D01*
X222106250Y-76050000D02*
G75*
G03*
X221606250Y-75550000I-500001J-1D01*
G01*
X222106250Y-89050000D02*
X222106250Y-76050000D01*
X221606250Y-89550000D02*
G75*
G03*
X222106250Y-89050000I-1J500001D01*
G01*
X208606250Y-89550000D02*
X221606250Y-89550000D01*
X208106250Y-89050000D02*
G75*
G03*
X208606250Y-89550000I500001J1D01*
G01*
X208106250Y-76050000D02*
X208106250Y-89050000D01*
X208606250Y-75550000D02*
G75*
G03*
X208106250Y-76050000I1J-500001D01*
G01*
X145406250Y-75550000D02*
X132406250Y-75550000D01*
X145906250Y-76050000D02*
G75*
G03*
X145406250Y-75550000I-500001J-1D01*
G01*
X145906250Y-89050000D02*
X145906250Y-76050000D01*
X145406250Y-89550000D02*
G75*
G03*
X145906250Y-89050000I-1J500001D01*
G01*
X132406250Y-89550000D02*
X145406250Y-89550000D01*
X131906250Y-89050000D02*
G75*
G03*
X132406250Y-89550000I500001J1D01*
G01*
X131906250Y-76050000D02*
X131906250Y-89050000D01*
X132406250Y-75550000D02*
G75*
G03*
X131906250Y-76050000I1J-500001D01*
G01*
X183506250Y-75550000D02*
X170506250Y-75550000D01*
X184006250Y-76050000D02*
G75*
G03*
X183506250Y-75550000I-500001J-1D01*
G01*
X184006250Y-89050000D02*
X184006250Y-76050000D01*
X183506250Y-89550000D02*
G75*
G03*
X184006250Y-89050000I-1J500001D01*
G01*
X170506250Y-89550000D02*
X183506250Y-89550000D01*
X170006250Y-89050000D02*
G75*
G03*
X170506250Y-89550000I500001J1D01*
G01*
X170006250Y-76050000D02*
X170006250Y-89050000D01*
X170506250Y-75550000D02*
G75*
G03*
X170006250Y-76050000I1J-500001D01*
G01*
X88256250Y-75550000D02*
X75256250Y-75550000D01*
X88756250Y-76050000D02*
G75*
G03*
X88256250Y-75550000I-500001J-1D01*
G01*
X88756250Y-89050000D02*
X88756250Y-76050000D01*
X88256250Y-89550000D02*
G75*
G03*
X88756250Y-89050000I-1J500001D01*
G01*
X75256250Y-89550000D02*
X88256250Y-89550000D01*
X74756250Y-89050000D02*
G75*
G03*
X75256250Y-89550000I500001J1D01*
G01*
X74756250Y-76050000D02*
X74756250Y-89050000D01*
X75256250Y-75550000D02*
G75*
G03*
X74756250Y-76050000I1J-500001D01*
G01*
X202556250Y-75550000D02*
X189556250Y-75550000D01*
X203056250Y-76050000D02*
G75*
G03*
X202556250Y-75550000I-500001J-1D01*
G01*
X203056250Y-89050000D02*
X203056250Y-76050000D01*
X202556250Y-89550000D02*
G75*
G03*
X203056250Y-89050000I-1J500001D01*
G01*
X189556250Y-89550000D02*
X202556250Y-89550000D01*
X189056250Y-89050000D02*
G75*
G03*
X189556250Y-89550000I500001J1D01*
G01*
X189056250Y-76050000D02*
X189056250Y-89050000D01*
X189556250Y-75550000D02*
G75*
G03*
X189056250Y-76050000I1J-500001D01*
G01*
X126356250Y-75550000D02*
X113356250Y-75550000D01*
X126856250Y-76050000D02*
G75*
G03*
X126356250Y-75550000I-500001J-1D01*
G01*
X126856250Y-89050000D02*
X126856250Y-76050000D01*
X126356250Y-89550000D02*
G75*
G03*
X126856250Y-89050000I-1J500001D01*
G01*
X113356250Y-89550000D02*
X126356250Y-89550000D01*
X112856250Y-89050000D02*
G75*
G03*
X113356250Y-89550000I500001J1D01*
G01*
X112856250Y-76050000D02*
X112856250Y-89050000D01*
X113356250Y-75550000D02*
G75*
G03*
X112856250Y-76050000I1J-500001D01*
G01*
X69206250Y-75550000D02*
X56206250Y-75550000D01*
X69706250Y-76050000D02*
G75*
G03*
X69206250Y-75550000I-500001J-1D01*
G01*
X69706250Y-89050000D02*
X69706250Y-76050000D01*
X69206250Y-89550000D02*
G75*
G03*
X69706250Y-89050000I-1J500001D01*
G01*
X56206250Y-89550000D02*
X69206250Y-89550000D01*
X55706250Y-89050000D02*
G75*
G03*
X56206250Y-89550000I500001J1D01*
G01*
X55706250Y-76050000D02*
X55706250Y-89050000D01*
X56206250Y-75550000D02*
G75*
G03*
X55706250Y-76050000I1J-500001D01*
G01*
X164456250Y-75550000D02*
X151456250Y-75550000D01*
X164956250Y-76050000D02*
G75*
G03*
X164456250Y-75550000I-500001J-1D01*
G01*
X164956250Y-89050000D02*
X164956250Y-76050000D01*
X164456250Y-89550000D02*
G75*
G03*
X164956250Y-89050000I-1J500001D01*
G01*
X151456250Y-89550000D02*
X164456250Y-89550000D01*
X150956250Y-89050000D02*
G75*
G03*
X151456250Y-89550000I500001J1D01*
G01*
X150956250Y-76050000D02*
X150956250Y-89050000D01*
X151456250Y-75550000D02*
G75*
G03*
X150956250Y-76050000I1J-500001D01*
G01*
X107306250Y-75550000D02*
X94306250Y-75550000D01*
X107806250Y-76050000D02*
G75*
G03*
X107306250Y-75550000I-500001J-1D01*
G01*
X107806250Y-89050000D02*
X107806250Y-76050000D01*
X107306250Y-89550000D02*
G75*
G03*
X107806250Y-89050000I-1J500001D01*
G01*
X94306250Y-89550000D02*
X107306250Y-89550000D01*
X93806250Y-89050000D02*
G75*
G03*
X94306250Y-89550000I500001J1D01*
G01*
X93806250Y-76050000D02*
X93806250Y-89050000D01*
X94306250Y-75550000D02*
G75*
G03*
X93806250Y-76050000I1J-500001D01*
G01*
X47775000Y-75550000D02*
X34775000Y-75550000D01*
X48275000Y-76050000D02*
G75*
G03*
X47775000Y-75550000I-500001J-1D01*
G01*
X48275000Y-89050000D02*
X48275000Y-76050000D01*
X47775000Y-89550000D02*
G75*
G03*
X48275000Y-89050000I-1J500001D01*
G01*
X34775000Y-89550000D02*
X47775000Y-89550000D01*
X34275000Y-89050000D02*
G75*
G03*
X34775000Y-89550000I500001J1D01*
G01*
X34275000Y-76050000D02*
X34275000Y-89050000D01*
X34775000Y-75550000D02*
G75*
G03*
X34275000Y-76050000I1J-500001D01*
G01*
X266587500Y-56500000D02*
X266087500Y-56500000D01*
X267087500Y-57000000D02*
G75*
G03*
X266587500Y-56500000I-500001J-1D01*
G01*
X267087500Y-70000000D02*
X267087500Y-57000000D01*
X266587500Y-70500000D02*
G75*
G03*
X267087500Y-70000000I-1J500001D01*
G01*
X266087500Y-70500000D02*
X266587500Y-70500000D01*
X265587500Y-70000000D02*
G75*
G03*
X266087500Y-70500000I500001J1D01*
G01*
X265587500Y-57000000D02*
X265587500Y-70000000D01*
X266087500Y-56500000D02*
G75*
G03*
X265587500Y-57000000I1J-500001D01*
G01*
X245087500Y-56500000D02*
X244587500Y-56500000D01*
X245587500Y-57000000D02*
G75*
G03*
X245087500Y-56500000I-500001J-1D01*
G01*
X245587500Y-70000000D02*
X245587500Y-57000000D01*
X245087500Y-70500000D02*
G75*
G03*
X245587500Y-70000000I-1J500001D01*
G01*
X244587500Y-70500000D02*
X245087500Y-70500000D01*
X244087500Y-70000000D02*
G75*
G03*
X244587500Y-70500000I500001J1D01*
G01*
X244087500Y-57000000D02*
X244087500Y-70000000D01*
X244587500Y-56500000D02*
G75*
G03*
X244087500Y-57000000I1J-500001D01*
G01*
X203343750Y-70000000D02*
G75*
G03*
X203843750Y-70500000I500001J1D01*
G01*
X216843750Y-70500000D02*
X203843750Y-70500000D01*
X216843750Y-70500000D02*
G75*
G03*
X217343750Y-70000000I-1J500001D01*
G01*
X217343750Y-57000000D02*
X217343750Y-70000000D01*
X217343750Y-57000000D02*
G75*
G03*
X216843750Y-56500000I-500001J-1D01*
G01*
X203843750Y-56500000D02*
X216843750Y-56500000D01*
X203843750Y-56500000D02*
G75*
G03*
X203343750Y-57000000I1J-500001D01*
G01*
X203343750Y-70000000D02*
X203343750Y-57000000D01*
X178743750Y-56500000D02*
X165743750Y-56500000D01*
X179243750Y-57000000D02*
G75*
G03*
X178743750Y-56500000I-500001J-1D01*
G01*
X179243750Y-70000000D02*
X179243750Y-57000000D01*
X178743750Y-70500000D02*
G75*
G03*
X179243750Y-70000000I-1J500001D01*
G01*
X165743750Y-70500000D02*
X178743750Y-70500000D01*
X165243750Y-70000000D02*
G75*
G03*
X165743750Y-70500000I500001J1D01*
G01*
X165243750Y-57000000D02*
X165243750Y-70000000D01*
X165743750Y-56500000D02*
G75*
G03*
X165243750Y-57000000I1J-500001D01*
G01*
X211318750Y-127650000D02*
X214131250Y-127650000D01*
X210818750Y-127150000D02*
G75*
G03*
X211318750Y-127650000I500001J1D01*
G01*
X210818750Y-114150000D02*
X210818750Y-127150000D01*
X211318750Y-113650000D02*
G75*
G03*
X210818750Y-114150000I1J-500001D01*
G01*
X214131250Y-113650000D02*
X211318750Y-113650000D01*
X214631250Y-114150000D02*
G75*
G03*
X214131250Y-113650000I-500001J-1D01*
G01*
X214631250Y-127150000D02*
X214631250Y-114150000D01*
X214131250Y-127650000D02*
G75*
G03*
X214631250Y-127150000I-1J500001D01*
G01*
X47775000Y-113650000D02*
X32393750Y-113650000D01*
X48275000Y-114150000D02*
G75*
G03*
X47775000Y-113650000I-500001J-1D01*
G01*
X48275000Y-127150000D02*
X48275000Y-114150000D01*
X47775000Y-127650000D02*
G75*
G03*
X48275000Y-127150000I-1J500001D01*
G01*
X32393750Y-127650000D02*
X47775000Y-127650000D01*
X31893750Y-127150000D02*
G75*
G03*
X32393750Y-127650000I500001J1D01*
G01*
X31893750Y-114150000D02*
X31893750Y-127150000D01*
X32393750Y-113650000D02*
G75*
G03*
X31893750Y-114150000I1J-500001D01*
G01*
X197793750Y-56500000D02*
X184793750Y-56500000D01*
X198293750Y-57000000D02*
G75*
G03*
X197793750Y-56500000I-500001J-1D01*
G01*
X198293750Y-70000000D02*
X198293750Y-57000000D01*
X197793750Y-70500000D02*
G75*
G03*
X198293750Y-70000000I-1J500001D01*
G01*
X184793750Y-70500000D02*
X197793750Y-70500000D01*
X184293750Y-70000000D02*
G75*
G03*
X184793750Y-70500000I500001J1D01*
G01*
X184293750Y-57000000D02*
X184293750Y-70000000D01*
X184793750Y-56500000D02*
G75*
G03*
X184293750Y-57000000I1J-500001D01*
G01*
X87162500Y-113650000D02*
G75*
G03*
X86662500Y-114150000I1J-500001D01*
G01*
X86662500Y-127150000D02*
X86662500Y-114150000D01*
X86662500Y-127150000D02*
G75*
G03*
X87162500Y-127650000I500001J1D01*
G01*
X102543750Y-127650000D02*
X87162500Y-127650000D01*
X102543750Y-127650000D02*
G75*
G03*
X103043750Y-127150000I-1J500001D01*
G01*
X103043750Y-114150000D02*
X103043750Y-127150000D01*
X103043750Y-114150000D02*
G75*
G03*
X102543750Y-113650000I-500001J-1D01*
G01*
X87162500Y-113650000D02*
X102543750Y-113650000D01*
X262087500Y-56500000D02*
X249087500Y-56500000D01*
X262587500Y-57000000D02*
G75*
G03*
X262087500Y-56500000I-500001J-1D01*
G01*
X262587500Y-70000000D02*
X262587500Y-57000000D01*
X262087500Y-70500000D02*
G75*
G03*
X262587500Y-70000000I-1J500001D01*
G01*
X249087500Y-70500000D02*
X262087500Y-70500000D01*
X248587500Y-70000000D02*
G75*
G03*
X249087500Y-70500000I500001J1D01*
G01*
X248587500Y-57000000D02*
X248587500Y-70000000D01*
X249087500Y-56500000D02*
G75*
G03*
X248587500Y-57000000I1J-500001D01*
G01*
X207318750Y-113650000D02*
X191937500Y-113650000D01*
X207818750Y-114150000D02*
G75*
G03*
X207318750Y-113650000I-500001J-1D01*
G01*
X207818750Y-127150000D02*
X207818750Y-114150000D01*
X207318750Y-127650000D02*
G75*
G03*
X207818750Y-127150000I-1J500001D01*
G01*
X191937500Y-127650000D02*
X207318750Y-127650000D01*
X191437500Y-127150000D02*
G75*
G03*
X191937500Y-127650000I500001J1D01*
G01*
X191437500Y-114150000D02*
X191437500Y-127150000D01*
X191937500Y-113650000D02*
G75*
G03*
X191437500Y-114150000I1J-500001D01*
G01*
X269231250Y-113650000D02*
X237181250Y-113650000D01*
X269731250Y-114150000D02*
G75*
G03*
X269231250Y-113650000I-500001J-1D01*
G01*
X269731250Y-127150000D02*
X269731250Y-114150000D01*
X269231250Y-127650000D02*
G75*
G03*
X269731250Y-127150000I-1J500001D01*
G01*
X237181250Y-127650000D02*
X269231250Y-127650000D01*
X236681250Y-127150000D02*
G75*
G03*
X237181250Y-127650000I500001J1D01*
G01*
X236681250Y-114150000D02*
X236681250Y-127150000D01*
X237181250Y-113650000D02*
G75*
G03*
X236681250Y-114150000I1J-500001D01*
G01*
X235893750Y-56500000D02*
X222893750Y-56500000D01*
X236393750Y-57000000D02*
G75*
G03*
X235893750Y-56500000I-500001J-1D01*
G01*
X236393750Y-70000000D02*
X236393750Y-57000000D01*
X235893750Y-70500000D02*
G75*
G03*
X236393750Y-70000000I-1J500001D01*
G01*
X222893750Y-70500000D02*
X235893750Y-70500000D01*
X222393750Y-70000000D02*
G75*
G03*
X222893750Y-70500000I500001J1D01*
G01*
X222393750Y-57000000D02*
X222393750Y-70000000D01*
X222893750Y-56500000D02*
G75*
G03*
X222393750Y-57000000I1J-500001D01*
G01*
X141143750Y-70000000D02*
X141143750Y-57000000D01*
X140643750Y-70500000D02*
G75*
G03*
X141143750Y-70000000I-1J500001D01*
G01*
X127643750Y-70500000D02*
X140643750Y-70500000D01*
X127143750Y-70000000D02*
G75*
G03*
X127643750Y-70500000I500001J1D01*
G01*
X127143750Y-57000000D02*
X127143750Y-70000000D01*
X127643750Y-56500000D02*
G75*
G03*
X127143750Y-57000000I1J-500001D01*
G01*
X140643750Y-56500000D02*
X127643750Y-56500000D01*
X141143750Y-57000000D02*
G75*
G03*
X140643750Y-56500000I-500001J-1D01*
G01*
X159693750Y-56500000D02*
X146693750Y-56500000D01*
X160193750Y-57000000D02*
G75*
G03*
X159693750Y-56500000I-500001J-1D01*
G01*
X160193750Y-70000000D02*
X160193750Y-57000000D01*
X159693750Y-70500000D02*
G75*
G03*
X160193750Y-70000000I-1J500001D01*
G01*
X146693750Y-70500000D02*
X159693750Y-70500000D01*
X146193750Y-70000000D02*
G75*
G03*
X146693750Y-70500000I500001J1D01*
G01*
X146193750Y-57000000D02*
X146193750Y-70000000D01*
X146693750Y-56500000D02*
G75*
G03*
X146193750Y-57000000I1J-500001D01*
G01*
X45393750Y-56500000D02*
X32393750Y-56500000D01*
X45893750Y-57000000D02*
G75*
G03*
X45393750Y-56500000I-500001J-1D01*
G01*
X45893750Y-70000000D02*
X45893750Y-57000000D01*
X45393750Y-70500000D02*
G75*
G03*
X45893750Y-70000000I-1J500001D01*
G01*
X32393750Y-70500000D02*
X45393750Y-70500000D01*
X31893750Y-70000000D02*
G75*
G03*
X32393750Y-70500000I500001J1D01*
G01*
X31893750Y-57000000D02*
X31893750Y-70000000D01*
X32393750Y-56500000D02*
G75*
G03*
X31893750Y-57000000I1J-500001D01*
G01*
X121593750Y-56500000D02*
X108593750Y-56500000D01*
X122093750Y-57000000D02*
G75*
G03*
X121593750Y-56500000I-500001J-1D01*
G01*
X122093750Y-70000000D02*
X122093750Y-57000000D01*
X121593750Y-70500000D02*
G75*
G03*
X122093750Y-70000000I-1J500001D01*
G01*
X108593750Y-70500000D02*
X121593750Y-70500000D01*
X108093750Y-70000000D02*
G75*
G03*
X108593750Y-70500000I500001J1D01*
G01*
X108093750Y-57000000D02*
X108093750Y-70000000D01*
X108593750Y-56500000D02*
G75*
G03*
X108093750Y-57000000I1J-500001D01*
G01*
X217631250Y-127150000D02*
G75*
G03*
X218131250Y-127650000I500001J1D01*
G01*
X231131250Y-127650000D02*
X218131250Y-127650000D01*
X231131250Y-127650000D02*
G75*
G03*
X231631250Y-127150000I-1J500001D01*
G01*
X231631250Y-114150000D02*
X231631250Y-127150000D01*
X231631250Y-114150000D02*
G75*
G03*
X231131250Y-113650000I-500001J-1D01*
G01*
X218131250Y-113650000D02*
X231131250Y-113650000D01*
X218131250Y-113650000D02*
G75*
G03*
X217631250Y-114150000I1J-500001D01*
G01*
X217631250Y-127150000D02*
X217631250Y-114150000D01*
X83493750Y-56500000D02*
X70493750Y-56500000D01*
X83993750Y-57000000D02*
G75*
G03*
X83493750Y-56500000I-500001J-1D01*
G01*
X83993750Y-70000000D02*
X83993750Y-57000000D01*
X83493750Y-70500000D02*
G75*
G03*
X83993750Y-70000000I-1J500001D01*
G01*
X70493750Y-70500000D02*
X83493750Y-70500000D01*
X69993750Y-70000000D02*
G75*
G03*
X70493750Y-70500000I500001J1D01*
G01*
X69993750Y-57000000D02*
X69993750Y-70000000D01*
X70493750Y-56500000D02*
G75*
G03*
X69993750Y-57000000I1J-500001D01*
G01*
X64443750Y-56500000D02*
X51443750Y-56500000D01*
X64943750Y-57000000D02*
G75*
G03*
X64443750Y-56500000I-500001J-1D01*
G01*
X64943750Y-70000000D02*
X64943750Y-57000000D01*
X64443750Y-70500000D02*
G75*
G03*
X64943750Y-70000000I-1J500001D01*
G01*
X51443750Y-70500000D02*
X64443750Y-70500000D01*
X50943750Y-70000000D02*
G75*
G03*
X51443750Y-70500000I500001J1D01*
G01*
X50943750Y-57000000D02*
X50943750Y-70000000D01*
X51443750Y-56500000D02*
G75*
G03*
X50943750Y-57000000I1J-500001D01*
G01*
X102543750Y-56500000D02*
X89543750Y-56500000D01*
X103043750Y-57000000D02*
G75*
G03*
X102543750Y-56500000I-500001J-1D01*
G01*
X103043750Y-70000000D02*
X103043750Y-57000000D01*
X102543750Y-70500000D02*
G75*
G03*
X103043750Y-70000000I-1J500001D01*
G01*
X89543750Y-70500000D02*
X102543750Y-70500000D01*
X89043750Y-70000000D02*
G75*
G03*
X89543750Y-70500000I500001J1D01*
G01*
X89043750Y-57000000D02*
X89043750Y-70000000D01*
X89543750Y-56500000D02*
G75*
G03*
X89043750Y-57000000I1J-500001D01*
G01*
X141938000Y-126650000D02*
X134500000Y-126650000D01*
X141938000Y-126650000D02*
G75*
G03*
X142438000Y-126150000I-1J500001D01*
G01*
X142438000Y-112150000D02*
X142438000Y-126150000D01*
X142438000Y-112150000D02*
G75*
G03*
X141938000Y-111650000I-500001J-1D01*
G01*
X135938000Y-111650000D02*
X141938000Y-111650000D01*
X135938000Y-111650000D02*
G75*
G03*
X135438000Y-112150000I1J-500001D01*
G01*
X135438000Y-113150000D02*
X135438000Y-112150000D01*
X134938000Y-113650000D02*
G75*
G03*
X135438000Y-113150000I-1J500001D01*
G01*
X119062000Y-113650000D02*
X134938000Y-113650000D01*
X118562000Y-113150000D02*
G75*
G03*
X119062000Y-113650000I500001J1D01*
G01*
X118562000Y-112150000D02*
X118562000Y-113150000D01*
X118562000Y-112150000D02*
G75*
G03*
X118062000Y-111650000I-500001J-1D01*
G01*
X112062000Y-111650000D02*
X118062000Y-111650000D01*
X112062000Y-111650000D02*
G75*
G03*
X111562000Y-112150000I1J-500001D01*
G01*
X111562000Y-126150000D02*
X111562000Y-112150000D01*
X111562000Y-126150000D02*
G75*
G03*
X112062000Y-126650000I500001J1D01*
G01*
X119500000Y-126650000D02*
X112062000Y-126650000D01*
X120000000Y-127150000D02*
G75*
G03*
X119500000Y-126650000I-500001J-1D01*
G01*
X120000000Y-127150000D02*
G75*
G03*
X120500000Y-127650000I500001J1D01*
G01*
X133500000Y-127650000D02*
X120500000Y-127650000D01*
X133500000Y-127650000D02*
G75*
G03*
X134000000Y-127150000I-1J500001D01*
G01*
X134500000Y-126650000D02*
G75*
G03*
X134000000Y-127150000I1J-500001D01*
G01*
X182419250Y-126650000D02*
X174981250Y-126650000D01*
X182419250Y-126650000D02*
G75*
G03*
X182919250Y-126150000I-1J500001D01*
G01*
X182919250Y-112150000D02*
X182919250Y-126150000D01*
X182919250Y-112150000D02*
G75*
G03*
X182419250Y-111650000I-500001J-1D01*
G01*
X176419250Y-111650000D02*
X182419250Y-111650000D01*
X176419250Y-111650000D02*
G75*
G03*
X175919250Y-112150000I1J-500001D01*
G01*
X175919250Y-113150000D02*
X175919250Y-112150000D01*
X175419250Y-113650000D02*
G75*
G03*
X175919250Y-113150000I-1J500001D01*
G01*
X159543250Y-113650000D02*
X175419250Y-113650000D01*
X159043250Y-113150000D02*
G75*
G03*
X159543250Y-113650000I500001J1D01*
G01*
X159043250Y-112150000D02*
X159043250Y-113150000D01*
X159043250Y-112150000D02*
G75*
G03*
X158543250Y-111650000I-500001J-1D01*
G01*
X152543250Y-111650000D02*
X158543250Y-111650000D01*
X152543250Y-111650000D02*
G75*
G03*
X152043250Y-112150000I1J-500001D01*
G01*
X152043250Y-126150000D02*
X152043250Y-112150000D01*
X152043250Y-126150000D02*
G75*
G03*
X152543250Y-126650000I500001J1D01*
G01*
X159981250Y-126650000D02*
X152543250Y-126650000D01*
X160481250Y-127150000D02*
G75*
G03*
X159981250Y-126650000I-500001J-1D01*
G01*
X160481250Y-127150000D02*
G75*
G03*
X160981250Y-127650000I500001J1D01*
G01*
X173981250Y-127650000D02*
X160981250Y-127650000D01*
X173981250Y-127650000D02*
G75*
G03*
X174481250Y-127150000I-1J500001D01*
G01*
X174981250Y-126650000D02*
G75*
G03*
X174481250Y-127150000I1J-500001D01*
G01*
X31368750Y-130175000D02*
X270256250Y-130175000D01*
X29368750Y-128175000D02*
G75*
G03*
X31368750Y-130175000I1999999J-1D01*
G01*
X29368750Y-55975000D02*
X29368750Y-128175000D01*
X31368750Y-53975000D02*
G75*
G03*
X29368750Y-55975000I-1J-1999999D01*
G01*
X270256250Y-53975000D02*
X31368750Y-53975000D01*
X272256250Y-55975000D02*
G75*
G03*
X270256250Y-53975000I-1999999J1D01*
G01*
X272256250Y-128175000D02*
X272256250Y-55975000D01*
X270256250Y-130175000D02*
G75*
G03*
X272256250Y-128175000I1J1999999D01*
G01*
M02*
