G04 #@! TF.GenerationSoftware,KiCad,Pcbnew,(6.0.1)*
G04 #@! TF.CreationDate,2022-12-02T16:12:10+01:00*
G04 #@! TF.ProjectId,plateA,706c6174-6541-42e6-9b69-6361645f7063,rev?*
G04 #@! TF.SameCoordinates,Original*
G04 #@! TF.FileFunction,Legend,Bot*
G04 #@! TF.FilePolarity,Positive*
%FSLAX46Y46*%
G04 Gerber Fmt 4.6, Leading zero omitted, Abs format (unit mm)*
G04 Created by KiCad (PCBNEW (6.0.1)) date 2022-12-02 16:12:10*
%MOMM*%
%LPD*%
G01*
G04 APERTURE LIST*
%ADD10C,0.200000*%
%ADD11C,2.200000*%
G04 APERTURE END LIST*
D10*
X152323258Y-92753571D02*
X152135758Y-91253571D01*
X151564330Y-91253571D01*
X151430401Y-91325000D01*
X151367901Y-91396428D01*
X151314330Y-91539285D01*
X151341116Y-91753571D01*
X151430401Y-91896428D01*
X151510758Y-91967857D01*
X151662544Y-92039285D01*
X152233973Y-92039285D01*
X150608973Y-92753571D02*
X150742901Y-92682142D01*
X150796473Y-92539285D01*
X150635758Y-91253571D01*
X149394687Y-92753571D02*
X149296473Y-91967857D01*
X149350044Y-91825000D01*
X149483973Y-91753571D01*
X149769687Y-91753571D01*
X149921473Y-91825000D01*
X149385758Y-92682142D02*
X149537544Y-92753571D01*
X149894687Y-92753571D01*
X150028616Y-92682142D01*
X150082187Y-92539285D01*
X150064330Y-92396428D01*
X149975044Y-92253571D01*
X149823258Y-92182142D01*
X149466116Y-92182142D01*
X149314330Y-92110714D01*
X148769687Y-91753571D02*
X148198258Y-91753571D01*
X148492901Y-91253571D02*
X148653616Y-92539285D01*
X148600044Y-92682142D01*
X148466116Y-92753571D01*
X148323258Y-92753571D01*
X147242901Y-92682142D02*
X147394687Y-92753571D01*
X147680401Y-92753571D01*
X147814330Y-92682142D01*
X147867901Y-92539285D01*
X147796473Y-91967857D01*
X147707187Y-91825000D01*
X147555401Y-91753571D01*
X147269687Y-91753571D01*
X147135758Y-91825000D01*
X147082187Y-91967857D01*
X147100044Y-92110714D01*
X147832187Y-92253571D01*
X145412544Y-92325000D02*
X144698258Y-92325000D01*
X145608973Y-92753571D02*
X144921473Y-91253571D01*
X144608973Y-92753571D01*
G36*
X150113889Y-83042002D02*
G01*
X150115619Y-83055542D01*
X150116134Y-83066314D01*
X150115524Y-83074968D01*
X150113880Y-83082159D01*
X150111293Y-83088537D01*
X150107854Y-83094756D01*
X150103654Y-83101467D01*
X150094806Y-83112897D01*
X150082881Y-83122782D01*
X150065729Y-83132765D01*
X150063265Y-83134044D01*
X150045834Y-83143057D01*
X150022596Y-83155028D01*
X149993926Y-83169766D01*
X149960199Y-83187078D01*
X149921791Y-83206773D01*
X149879077Y-83228660D01*
X149832432Y-83252546D01*
X149782233Y-83278240D01*
X149728853Y-83305551D01*
X149672669Y-83334287D01*
X149614056Y-83364256D01*
X149553390Y-83395266D01*
X149491045Y-83427127D01*
X149427398Y-83459645D01*
X149362823Y-83492630D01*
X149297697Y-83525891D01*
X149232394Y-83559234D01*
X149167289Y-83592469D01*
X149102759Y-83625405D01*
X149039178Y-83657849D01*
X148976923Y-83689609D01*
X148916367Y-83720495D01*
X148857888Y-83750314D01*
X148801860Y-83778875D01*
X148748658Y-83805987D01*
X148698658Y-83831457D01*
X148652236Y-83855093D01*
X148609766Y-83876706D01*
X148571625Y-83896102D01*
X148538187Y-83913090D01*
X148509828Y-83927478D01*
X148486923Y-83939075D01*
X148469848Y-83947689D01*
X148458979Y-83953129D01*
X148454689Y-83955202D01*
X148453310Y-83955683D01*
X148439027Y-83958357D01*
X148423726Y-83958304D01*
X148422399Y-83958001D01*
X148416931Y-83955980D01*
X148407775Y-83952015D01*
X148394738Y-83946010D01*
X148377630Y-83937869D01*
X148356259Y-83927496D01*
X148330433Y-83914794D01*
X148299961Y-83899666D01*
X148264652Y-83882017D01*
X148224313Y-83861751D01*
X148178754Y-83838770D01*
X148127783Y-83812979D01*
X148071209Y-83784281D01*
X148008839Y-83752580D01*
X147940483Y-83717779D01*
X147865949Y-83679783D01*
X147785045Y-83638495D01*
X147697580Y-83593819D01*
X147603363Y-83545657D01*
X147557467Y-83522187D01*
X147484016Y-83484620D01*
X147412483Y-83448026D01*
X147343183Y-83412566D01*
X147276430Y-83378402D01*
X147212540Y-83345695D01*
X147151828Y-83314607D01*
X147094608Y-83285299D01*
X147041196Y-83257932D01*
X146991906Y-83232668D01*
X146947054Y-83209668D01*
X146906954Y-83189093D01*
X146871921Y-83171106D01*
X146842271Y-83155867D01*
X146818318Y-83143539D01*
X146800377Y-83134281D01*
X146788764Y-83128256D01*
X146783792Y-83125625D01*
X146779894Y-83123192D01*
X146764132Y-83108437D01*
X146752138Y-83089089D01*
X146745536Y-83067610D01*
X146745321Y-83064851D01*
X146745668Y-83058223D01*
X146746997Y-83048525D01*
X146749431Y-83035198D01*
X146753096Y-83017680D01*
X146754540Y-83011274D01*
X146913368Y-83011274D01*
X146914624Y-83012754D01*
X146918923Y-83015728D01*
X146926483Y-83020309D01*
X146937521Y-83026610D01*
X146952255Y-83034746D01*
X146970904Y-83044830D01*
X146993685Y-83056975D01*
X147020817Y-83071294D01*
X147052517Y-83087903D01*
X147089003Y-83106914D01*
X147130494Y-83128440D01*
X147177207Y-83152595D01*
X147229360Y-83179494D01*
X147287172Y-83209248D01*
X147350859Y-83241973D01*
X147420641Y-83277782D01*
X147496735Y-83316787D01*
X147579359Y-83359103D01*
X147668731Y-83404844D01*
X147678449Y-83409815D01*
X147750344Y-83446584D01*
X147820383Y-83482377D01*
X147888246Y-83517032D01*
X147953614Y-83550388D01*
X148016170Y-83582283D01*
X148075595Y-83612556D01*
X148131570Y-83641044D01*
X148183777Y-83667586D01*
X148231897Y-83692021D01*
X148275612Y-83714185D01*
X148314604Y-83733919D01*
X148348553Y-83751059D01*
X148377142Y-83765445D01*
X148400052Y-83776914D01*
X148416964Y-83785304D01*
X148427560Y-83790455D01*
X148431522Y-83792204D01*
X148431535Y-83792203D01*
X148435498Y-83790356D01*
X148446020Y-83785153D01*
X148462714Y-83776790D01*
X148485194Y-83765464D01*
X148513075Y-83751373D01*
X148545970Y-83734714D01*
X148583492Y-83715683D01*
X148625257Y-83694477D01*
X148670877Y-83671294D01*
X148719967Y-83646331D01*
X148772140Y-83619784D01*
X148827011Y-83591851D01*
X148884194Y-83562728D01*
X148943301Y-83532612D01*
X149003948Y-83501702D01*
X149065748Y-83470192D01*
X149128315Y-83438282D01*
X149191263Y-83406167D01*
X149254206Y-83374045D01*
X149316758Y-83342112D01*
X149378532Y-83310566D01*
X149439142Y-83279603D01*
X149498204Y-83249421D01*
X149555329Y-83220217D01*
X149610133Y-83192187D01*
X149662229Y-83165529D01*
X149711231Y-83140440D01*
X149756753Y-83117116D01*
X149798409Y-83095755D01*
X149835812Y-83076554D01*
X149868578Y-83059710D01*
X149896318Y-83045419D01*
X149918649Y-83033879D01*
X149935183Y-83025286D01*
X149945534Y-83019839D01*
X149949316Y-83017733D01*
X149949173Y-83016426D01*
X149947561Y-83008803D01*
X149944448Y-82995348D01*
X149940110Y-82977178D01*
X149934826Y-82955405D01*
X149928873Y-82931145D01*
X149922528Y-82905512D01*
X149916069Y-82879620D01*
X149909772Y-82854585D01*
X149903917Y-82831520D01*
X149898779Y-82811541D01*
X149894637Y-82795761D01*
X149891768Y-82785295D01*
X149890449Y-82781258D01*
X149889385Y-82781668D01*
X149882174Y-82784961D01*
X149868439Y-82791414D01*
X149848511Y-82800866D01*
X149822722Y-82813158D01*
X149791403Y-82828131D01*
X149754887Y-82845626D01*
X149713504Y-82865482D01*
X149667587Y-82887542D01*
X149617466Y-82911645D01*
X149563474Y-82937632D01*
X149505942Y-82965344D01*
X149445202Y-82994622D01*
X149381585Y-83025306D01*
X149315422Y-83057236D01*
X149247046Y-83090254D01*
X149176789Y-83124200D01*
X149141642Y-83141182D01*
X149071974Y-83174818D01*
X149004222Y-83207496D01*
X148938727Y-83239052D01*
X148875830Y-83269323D01*
X148815872Y-83298147D01*
X148759195Y-83325359D01*
X148706138Y-83350796D01*
X148657044Y-83374296D01*
X148612253Y-83395695D01*
X148572106Y-83414831D01*
X148536945Y-83431539D01*
X148507110Y-83445657D01*
X148482942Y-83457022D01*
X148464783Y-83465470D01*
X148452973Y-83470838D01*
X148447853Y-83472964D01*
X148446820Y-83473238D01*
X148430820Y-83475503D01*
X148414648Y-83472964D01*
X148412967Y-83472325D01*
X148404488Y-83468572D01*
X148389487Y-83461656D01*
X148368306Y-83451742D01*
X148341286Y-83438991D01*
X148308768Y-83423569D01*
X148271092Y-83405637D01*
X148228600Y-83385359D01*
X148181633Y-83362897D01*
X148130532Y-83338416D01*
X148075637Y-83312079D01*
X148017291Y-83284047D01*
X147955833Y-83254486D01*
X147891605Y-83223557D01*
X147824949Y-83191424D01*
X147756204Y-83158251D01*
X147685712Y-83124200D01*
X147648005Y-83105978D01*
X147578710Y-83072508D01*
X147511474Y-83040050D01*
X147446629Y-83008766D01*
X147384506Y-82978812D01*
X147325436Y-82950351D01*
X147269752Y-82923539D01*
X147217785Y-82898537D01*
X147169866Y-82875505D01*
X147126328Y-82854601D01*
X147087501Y-82835985D01*
X147053717Y-82819816D01*
X147025308Y-82806254D01*
X147002606Y-82795457D01*
X146985942Y-82787586D01*
X146975647Y-82782799D01*
X146972054Y-82781256D01*
X146971879Y-82781661D01*
X146970143Y-82787631D01*
X146966846Y-82799962D01*
X146962234Y-82817701D01*
X146956553Y-82839896D01*
X146950050Y-82865594D01*
X146942969Y-82893844D01*
X146941107Y-82901306D01*
X146934094Y-82929354D01*
X146927699Y-82954857D01*
X146922175Y-82976806D01*
X146917776Y-82994195D01*
X146914757Y-83006017D01*
X146913370Y-83011265D01*
X146913368Y-83011274D01*
X146754540Y-83011274D01*
X146758115Y-82995408D01*
X146764613Y-82967823D01*
X146772713Y-82934363D01*
X146782540Y-82894466D01*
X146794219Y-82847571D01*
X146798976Y-82828591D01*
X146808599Y-82790500D01*
X146817712Y-82754818D01*
X146826120Y-82722283D01*
X146833629Y-82693636D01*
X146840044Y-82669616D01*
X146841378Y-82664764D01*
X147099211Y-82664764D01*
X147101215Y-82666159D01*
X147109478Y-82670698D01*
X147123435Y-82677971D01*
X147142322Y-82687602D01*
X147165378Y-82699217D01*
X147191841Y-82712442D01*
X147220947Y-82726902D01*
X147251935Y-82742222D01*
X147284042Y-82758030D01*
X147316506Y-82773950D01*
X147348565Y-82789607D01*
X147379457Y-82804628D01*
X147408418Y-82818638D01*
X147434688Y-82831262D01*
X147457503Y-82842127D01*
X147476102Y-82850858D01*
X147489721Y-82857080D01*
X147497599Y-82860420D01*
X147498829Y-82860261D01*
X147499943Y-82858277D01*
X147500867Y-82853836D01*
X147501620Y-82846343D01*
X147502217Y-82835203D01*
X147502678Y-82819821D01*
X147503020Y-82799602D01*
X147503259Y-82773950D01*
X147503414Y-82742270D01*
X147503502Y-82703968D01*
X147503541Y-82658448D01*
X147503680Y-82609096D01*
X147504302Y-82546253D01*
X147505483Y-82489481D01*
X147507289Y-82437776D01*
X147509783Y-82390129D01*
X147513034Y-82345535D01*
X147517105Y-82302987D01*
X147522063Y-82261479D01*
X147527973Y-82220003D01*
X147534901Y-82177554D01*
X147543294Y-82133333D01*
X147559388Y-82065151D01*
X147578558Y-82000446D01*
X147600513Y-81939923D01*
X147624962Y-81884284D01*
X147651615Y-81834234D01*
X147680178Y-81790476D01*
X147710363Y-81753713D01*
X147722669Y-81741096D01*
X147761774Y-81707550D01*
X147803257Y-81681385D01*
X147847025Y-81662644D01*
X147892986Y-81651368D01*
X147941049Y-81647600D01*
X147962910Y-81648076D01*
X147985584Y-81650335D01*
X148003399Y-81654851D01*
X148017942Y-81662065D01*
X148030800Y-81672414D01*
X148044131Y-81688863D01*
X148053085Y-81709928D01*
X148055179Y-81731905D01*
X148050518Y-81753481D01*
X148039209Y-81773346D01*
X148021355Y-81790187D01*
X148017089Y-81793144D01*
X148010114Y-81797291D01*
X148002935Y-81799884D01*
X147993649Y-81801298D01*
X147980356Y-81801910D01*
X147961152Y-81802097D01*
X147954926Y-81802159D01*
X147924703Y-81803905D01*
X147899696Y-81808536D01*
X147877941Y-81816753D01*
X147857474Y-81829261D01*
X147836331Y-81846761D01*
X147836139Y-81846936D01*
X147821612Y-81861384D01*
X147808463Y-81877233D01*
X147795677Y-81895968D01*
X147782240Y-81919074D01*
X147767138Y-81948035D01*
X147764512Y-81953318D01*
X147743190Y-82001055D01*
X147724404Y-82052582D01*
X147708089Y-82108318D01*
X147694179Y-82168682D01*
X147682608Y-82234094D01*
X147673313Y-82304975D01*
X147666226Y-82381743D01*
X147661283Y-82464818D01*
X147658419Y-82554620D01*
X147657568Y-82651568D01*
X147657575Y-82655516D01*
X147657758Y-82689949D01*
X147658147Y-82725352D01*
X147658714Y-82760844D01*
X147659433Y-82795549D01*
X147660277Y-82828588D01*
X147661219Y-82859083D01*
X147662233Y-82886155D01*
X147663290Y-82908928D01*
X147664365Y-82926522D01*
X147665431Y-82938060D01*
X147666461Y-82942663D01*
X147668017Y-82943473D01*
X147675847Y-82947336D01*
X147689733Y-82954112D01*
X147709080Y-82963513D01*
X147733294Y-82975252D01*
X147761779Y-82989043D01*
X147793941Y-83004598D01*
X147829184Y-83021631D01*
X147866913Y-83039855D01*
X147906533Y-83058983D01*
X147947450Y-83078727D01*
X147989068Y-83098801D01*
X148030792Y-83118918D01*
X148072027Y-83138792D01*
X148112178Y-83158134D01*
X148150650Y-83176658D01*
X148186848Y-83194078D01*
X148220177Y-83210106D01*
X148250042Y-83224456D01*
X148275848Y-83236840D01*
X148297000Y-83246971D01*
X148312903Y-83254563D01*
X148322961Y-83259328D01*
X148326581Y-83260981D01*
X148326516Y-83258207D01*
X148325214Y-83248895D01*
X148322795Y-83234206D01*
X148319461Y-83215364D01*
X148315415Y-83193594D01*
X148309125Y-83159777D01*
X148289954Y-83047533D01*
X148272162Y-82929049D01*
X148255891Y-82805450D01*
X148241283Y-82677862D01*
X148228479Y-82547412D01*
X148217621Y-82415226D01*
X148215970Y-82390766D01*
X148213841Y-82350542D01*
X148212221Y-82308303D01*
X148211111Y-82265139D01*
X148210512Y-82222139D01*
X148210422Y-82180393D01*
X148210843Y-82140994D01*
X148211773Y-82105029D01*
X148213213Y-82073590D01*
X148215163Y-82047767D01*
X148217623Y-82028650D01*
X148220033Y-82015999D01*
X148228220Y-81981863D01*
X148238326Y-81949314D01*
X148249659Y-81920426D01*
X148261525Y-81897275D01*
X148269536Y-81885257D01*
X148293747Y-81857559D01*
X148323184Y-81833217D01*
X148356118Y-81813534D01*
X148390820Y-81799815D01*
X148406512Y-81796886D01*
X148428972Y-81798418D01*
X148449438Y-81806140D01*
X148466778Y-81819121D01*
X148479856Y-81836429D01*
X148487540Y-81857132D01*
X148488696Y-81880297D01*
X148484712Y-81899692D01*
X148475237Y-81918032D01*
X148459706Y-81933268D01*
X148437266Y-81946497D01*
X148422302Y-81954209D01*
X148406992Y-81964363D01*
X148395664Y-81975964D01*
X148387192Y-81990600D01*
X148380452Y-82009859D01*
X148374320Y-82035326D01*
X148371096Y-82053669D01*
X148367467Y-82087121D01*
X148365220Y-82127261D01*
X148364301Y-82173498D01*
X148364657Y-82225242D01*
X148366233Y-82281902D01*
X148368976Y-82342887D01*
X148372831Y-82407608D01*
X148377744Y-82475473D01*
X148383663Y-82545892D01*
X148390532Y-82618275D01*
X148398297Y-82692031D01*
X148406906Y-82766569D01*
X148416303Y-82841300D01*
X148426436Y-82915632D01*
X148437249Y-82988975D01*
X148448690Y-83060738D01*
X148460704Y-83130332D01*
X148473236Y-83197165D01*
X148486235Y-83260647D01*
X148488185Y-83268135D01*
X148491746Y-83276929D01*
X148495055Y-83280244D01*
X148497885Y-83279136D01*
X148507214Y-83274919D01*
X148522349Y-83267859D01*
X148542617Y-83258283D01*
X148567343Y-83246516D01*
X148595852Y-83232886D01*
X148627471Y-83217719D01*
X148661526Y-83201339D01*
X148697343Y-83184075D01*
X148734246Y-83166252D01*
X148771563Y-83148196D01*
X148808619Y-83130234D01*
X148844740Y-83112692D01*
X148879251Y-83095896D01*
X148911480Y-83080172D01*
X148940750Y-83065847D01*
X148966389Y-83053246D01*
X148987723Y-83042697D01*
X149004076Y-83034524D01*
X149014775Y-83029056D01*
X149019147Y-83026617D01*
X149021387Y-83022937D01*
X149024409Y-83013100D01*
X149026681Y-83000187D01*
X149030110Y-82971486D01*
X149036188Y-82918179D01*
X149041188Y-82870075D01*
X149045227Y-82825496D01*
X149048425Y-82782761D01*
X149050900Y-82740190D01*
X149052770Y-82696103D01*
X149054155Y-82648822D01*
X149055172Y-82596666D01*
X149055241Y-82592236D01*
X149055808Y-82536900D01*
X149055679Y-82487759D01*
X149054793Y-82443331D01*
X149053092Y-82402134D01*
X149050515Y-82362685D01*
X149047002Y-82323503D01*
X149042494Y-82283106D01*
X149037583Y-82246110D01*
X149027071Y-82182869D01*
X149014472Y-82123622D01*
X148999979Y-82068997D01*
X148983787Y-82019622D01*
X148966088Y-81976123D01*
X148947078Y-81939128D01*
X148926950Y-81909263D01*
X148923814Y-81905392D01*
X148909699Y-81890837D01*
X148894372Y-81880615D01*
X148875646Y-81873545D01*
X148851334Y-81868447D01*
X148849189Y-81868094D01*
X148825246Y-81862969D01*
X148807407Y-81856303D01*
X148794116Y-81847330D01*
X148783816Y-81835287D01*
X148773571Y-81815937D01*
X148768859Y-81793475D01*
X148771938Y-81770881D01*
X148782805Y-81747891D01*
X148783471Y-81746859D01*
X148798022Y-81730670D01*
X148817035Y-81719966D01*
X148840862Y-81714667D01*
X148869853Y-81714691D01*
X148904358Y-81719959D01*
X148920163Y-81723878D01*
X148959093Y-81739074D01*
X148995321Y-81761559D01*
X149028783Y-81791281D01*
X149059417Y-81828187D01*
X149087159Y-81872223D01*
X149101521Y-81900033D01*
X149125842Y-81956725D01*
X149147293Y-82020054D01*
X149165800Y-82089583D01*
X149181291Y-82164875D01*
X149193693Y-82245494D01*
X149202933Y-82331003D01*
X149208937Y-82420965D01*
X149211632Y-82514944D01*
X149210946Y-82612503D01*
X149210692Y-82622454D01*
X149208970Y-82674373D01*
X149206615Y-82726679D01*
X149203728Y-82777732D01*
X149200411Y-82825892D01*
X149196764Y-82869520D01*
X149192886Y-82906976D01*
X149192057Y-82914400D01*
X149190715Y-82928691D01*
X149190112Y-82938909D01*
X149190375Y-82943216D01*
X149191245Y-82942964D01*
X149198017Y-82940044D01*
X149211049Y-82934085D01*
X149229817Y-82925337D01*
X149253793Y-82914049D01*
X149282451Y-82900470D01*
X149315266Y-82884851D01*
X149351711Y-82867440D01*
X149391261Y-82848488D01*
X149433389Y-82828243D01*
X149477569Y-82806956D01*
X149526064Y-82783519D01*
X149577753Y-82758425D01*
X149622691Y-82736465D01*
X149661056Y-82717550D01*
X149693029Y-82701589D01*
X149718789Y-82688492D01*
X149738515Y-82678167D01*
X149752388Y-82670525D01*
X149760586Y-82665475D01*
X149763289Y-82662926D01*
X149762690Y-82658371D01*
X149760382Y-82646532D01*
X149756511Y-82628491D01*
X149751259Y-82605002D01*
X149744806Y-82576821D01*
X149737334Y-82544702D01*
X149729024Y-82509403D01*
X149720057Y-82471677D01*
X149710614Y-82432282D01*
X149700877Y-82391971D01*
X149691027Y-82351500D01*
X149681245Y-82311625D01*
X149671712Y-82273102D01*
X149662609Y-82236686D01*
X149654118Y-82203131D01*
X149646420Y-82173195D01*
X149639696Y-82147631D01*
X149624800Y-82092941D01*
X149606986Y-82030884D01*
X149589818Y-81975362D01*
X149572992Y-81925715D01*
X149556202Y-81881285D01*
X149539142Y-81841412D01*
X149521505Y-81805436D01*
X149502988Y-81772700D01*
X149483282Y-81742542D01*
X149462084Y-81714305D01*
X149439087Y-81687328D01*
X149413985Y-81660952D01*
X149375576Y-81624768D01*
X149336823Y-81593464D01*
X149298655Y-81568312D01*
X149260096Y-81548674D01*
X149220169Y-81533909D01*
X149207282Y-81530331D01*
X149190474Y-81527128D01*
X149171713Y-81525475D01*
X149148091Y-81525012D01*
X149124575Y-81525656D01*
X149100580Y-81528588D01*
X149079132Y-81534633D01*
X149057540Y-81544592D01*
X149033110Y-81559268D01*
X149018043Y-81568398D01*
X148995704Y-81578785D01*
X148975897Y-81583199D01*
X148957326Y-81581856D01*
X148938697Y-81574972D01*
X148932546Y-81571176D01*
X148919307Y-81559073D01*
X148907636Y-81543805D01*
X148899990Y-81528332D01*
X148896699Y-81512772D01*
X148898450Y-81490650D01*
X148907733Y-81469146D01*
X148924384Y-81448503D01*
X148948240Y-81428964D01*
X148979136Y-81410775D01*
X148986365Y-81406962D01*
X148994519Y-81402164D01*
X148997692Y-81399538D01*
X148995578Y-81397126D01*
X148987460Y-81392363D01*
X148974730Y-81386371D01*
X148958968Y-81379835D01*
X148941754Y-81373439D01*
X148924669Y-81367871D01*
X148921502Y-81366938D01*
X148898724Y-81361304D01*
X148876698Y-81358239D01*
X148851198Y-81357128D01*
X148844248Y-81357082D01*
X148821186Y-81357879D01*
X148803135Y-81360794D01*
X148787935Y-81366579D01*
X148773425Y-81375988D01*
X148757442Y-81389772D01*
X148739185Y-81405055D01*
X148721581Y-81415322D01*
X148704431Y-81419927D01*
X148686130Y-81419540D01*
X148681050Y-81418666D01*
X148659847Y-81410826D01*
X148642239Y-81397620D01*
X148629047Y-81380391D01*
X148621090Y-81360483D01*
X148619187Y-81339239D01*
X148624160Y-81318004D01*
X148625534Y-81314486D01*
X148628237Y-81304997D01*
X148628272Y-81299508D01*
X148623408Y-81297424D01*
X148612416Y-81296294D01*
X148597121Y-81296200D01*
X148579275Y-81297097D01*
X148560634Y-81298940D01*
X148542951Y-81301684D01*
X148535278Y-81303241D01*
X148505811Y-81311507D01*
X148480102Y-81323262D01*
X148455032Y-81339861D01*
X148435552Y-81352966D01*
X148413998Y-81362784D01*
X148394139Y-81366123D01*
X148390379Y-81365887D01*
X148376372Y-81362371D01*
X148360503Y-81355762D01*
X148345862Y-81347490D01*
X148335541Y-81338988D01*
X148334519Y-81337855D01*
X148318069Y-81325268D01*
X148297085Y-81316691D01*
X148273814Y-81312543D01*
X148250505Y-81313243D01*
X148229405Y-81319209D01*
X148220779Y-81323619D01*
X148211855Y-81331052D01*
X148206434Y-81341514D01*
X148202856Y-81357397D01*
X148202836Y-81357514D01*
X148195650Y-81378634D01*
X148182552Y-81396631D01*
X148165039Y-81410330D01*
X148144607Y-81418562D01*
X148122753Y-81420152D01*
X148116023Y-81419084D01*
X148099847Y-81414421D01*
X148084920Y-81407845D01*
X148071980Y-81400853D01*
X148040670Y-81385903D01*
X148013452Y-81376371D01*
X147989317Y-81372146D01*
X147967256Y-81373116D01*
X147946260Y-81379170D01*
X147925321Y-81390195D01*
X147906728Y-81401987D01*
X147918776Y-81414435D01*
X147932637Y-81433264D01*
X147940494Y-81454592D01*
X147941958Y-81476406D01*
X147937327Y-81497391D01*
X147926899Y-81516234D01*
X147910970Y-81531624D01*
X147889838Y-81542245D01*
X147875452Y-81545206D01*
X147857427Y-81544405D01*
X147836247Y-81538962D01*
X147810536Y-81528641D01*
X147805284Y-81526330D01*
X147762779Y-81511987D01*
X147720103Y-81505121D01*
X147677872Y-81505728D01*
X147636703Y-81513806D01*
X147597215Y-81529355D01*
X147592210Y-81531937D01*
X147556612Y-81554278D01*
X147521982Y-81582612D01*
X147490024Y-81615397D01*
X147462447Y-81651092D01*
X147460321Y-81654266D01*
X147441956Y-81684205D01*
X147422073Y-81720689D01*
X147401070Y-81762811D01*
X147379341Y-81809664D01*
X147357283Y-81860343D01*
X147335292Y-81913940D01*
X147313765Y-81969549D01*
X147293096Y-82026262D01*
X147273683Y-82083174D01*
X147272443Y-82086952D01*
X147263662Y-82114074D01*
X147253679Y-82145461D01*
X147242699Y-82180423D01*
X147230931Y-82218270D01*
X147218580Y-82258312D01*
X147205855Y-82299859D01*
X147192961Y-82342223D01*
X147180106Y-82384712D01*
X147167496Y-82426637D01*
X147155339Y-82467308D01*
X147143842Y-82506036D01*
X147133211Y-82542130D01*
X147123654Y-82574901D01*
X147115377Y-82603659D01*
X147108587Y-82627714D01*
X147103491Y-82646377D01*
X147100297Y-82658957D01*
X147099211Y-82664764D01*
X146841378Y-82664764D01*
X146845171Y-82650963D01*
X146848815Y-82638416D01*
X146850780Y-82632715D01*
X146854850Y-82625894D01*
X146870491Y-82609146D01*
X146890450Y-82597702D01*
X146913087Y-82592308D01*
X146936759Y-82593706D01*
X146942938Y-82594933D01*
X146952155Y-82596325D01*
X146956271Y-82596276D01*
X146956272Y-82596274D01*
X146957586Y-82592310D01*
X146960814Y-82581686D01*
X146965707Y-82565246D01*
X146972016Y-82543833D01*
X146979493Y-82518291D01*
X146987890Y-82489465D01*
X146996957Y-82458197D01*
X147006918Y-82423887D01*
X147034295Y-82330870D01*
X147060218Y-82244841D01*
X147084855Y-82165327D01*
X147108373Y-82091851D01*
X147130938Y-82023940D01*
X147152717Y-81961117D01*
X147173879Y-81902908D01*
X147194590Y-81848839D01*
X147215017Y-81798433D01*
X147235328Y-81751216D01*
X147255689Y-81706713D01*
X147276268Y-81664449D01*
X147286521Y-81644517D01*
X147317137Y-81590716D01*
X147348889Y-81543595D01*
X147382441Y-81502310D01*
X147418456Y-81466018D01*
X147457598Y-81433876D01*
X147460211Y-81431949D01*
X147506392Y-81401714D01*
X147552784Y-81378843D01*
X147600487Y-81362965D01*
X147650599Y-81353710D01*
X147704219Y-81350707D01*
X147753743Y-81350707D01*
X147760121Y-81339964D01*
X147768657Y-81327730D01*
X147783453Y-81310495D01*
X147801185Y-81292604D01*
X147819868Y-81276038D01*
X147837515Y-81262777D01*
X147838776Y-81261948D01*
X147856737Y-81251407D01*
X147877544Y-81240886D01*
X147896947Y-81232546D01*
X147908078Y-81228454D01*
X147919896Y-81224716D01*
X147931088Y-81222320D01*
X147943763Y-81220956D01*
X147960032Y-81220315D01*
X147982004Y-81220090D01*
X148006848Y-81220296D01*
X148028229Y-81221395D01*
X148045669Y-81223577D01*
X148061167Y-81227016D01*
X148087593Y-81234193D01*
X148109347Y-81214310D01*
X148124922Y-81201844D01*
X148151204Y-81185583D01*
X148180100Y-81172021D01*
X148208581Y-81162732D01*
X148211989Y-81161974D01*
X148232296Y-81159203D01*
X148256749Y-81157920D01*
X148282426Y-81158122D01*
X148306408Y-81159801D01*
X148325775Y-81162953D01*
X148337085Y-81166156D01*
X148354906Y-81172293D01*
X148371617Y-81179070D01*
X148395972Y-81189997D01*
X148427235Y-81176449D01*
X148461028Y-81163514D01*
X148504537Y-81151450D01*
X148548128Y-81144090D01*
X148590860Y-81141379D01*
X148631791Y-81143263D01*
X148669979Y-81149688D01*
X148704483Y-81160598D01*
X148734362Y-81175938D01*
X148758674Y-81195656D01*
X148763017Y-81200030D01*
X148770281Y-81205726D01*
X148777445Y-81207245D01*
X148787937Y-81205772D01*
X148795361Y-81204765D01*
X148810342Y-81203607D01*
X148828905Y-81202784D01*
X148848631Y-81202431D01*
X148869135Y-81202867D01*
X148925487Y-81209253D01*
X148981382Y-81222992D01*
X149036060Y-81243760D01*
X149088764Y-81271237D01*
X149138731Y-81305101D01*
X149185203Y-81345029D01*
X149194291Y-81353657D01*
X149206217Y-81364113D01*
X149215820Y-81370793D01*
X149224971Y-81374912D01*
X149235542Y-81377683D01*
X149278552Y-81389528D01*
X149326173Y-81408456D01*
X149374271Y-81433193D01*
X149421489Y-81463036D01*
X149466470Y-81497282D01*
X149470907Y-81501038D01*
X149491776Y-81519819D01*
X149514639Y-81541868D01*
X149537901Y-81565531D01*
X149559963Y-81589149D01*
X149579228Y-81611067D01*
X149594098Y-81629627D01*
X149599973Y-81637631D01*
X149617032Y-81662150D01*
X149633326Y-81687725D01*
X149648994Y-81714770D01*
X149664176Y-81743698D01*
X149679013Y-81774923D01*
X149693642Y-81808859D01*
X149708205Y-81845918D01*
X149722839Y-81886515D01*
X149737686Y-81931063D01*
X149752885Y-81979976D01*
X149768575Y-82033668D01*
X149784896Y-82092551D01*
X149801987Y-82157041D01*
X149819988Y-82227549D01*
X149839039Y-82304491D01*
X149859279Y-82388279D01*
X149880848Y-82479327D01*
X149883449Y-82490373D01*
X149890074Y-82518305D01*
X149896080Y-82543342D01*
X149901238Y-82564541D01*
X149905316Y-82580959D01*
X149908084Y-82591653D01*
X149909311Y-82595681D01*
X149910304Y-82595937D01*
X149916935Y-82595391D01*
X149927322Y-82593431D01*
X149935623Y-82592111D01*
X149958187Y-82593471D01*
X149979659Y-82601282D01*
X149998137Y-82614658D01*
X150011721Y-82632715D01*
X150012445Y-82634558D01*
X150015242Y-82643647D01*
X150019622Y-82659226D01*
X150020623Y-82662926D01*
X150025391Y-82680555D01*
X150032355Y-82706895D01*
X150040318Y-82737506D01*
X150049086Y-82771649D01*
X150058464Y-82808584D01*
X150068259Y-82847571D01*
X150072887Y-82866095D01*
X150083821Y-82909944D01*
X150092993Y-82947111D01*
X150100496Y-82978248D01*
X150106418Y-83004007D01*
X150109312Y-83017733D01*
X150110853Y-83025041D01*
X150113889Y-83042002D01*
G37*
G36*
X148475035Y-81535214D02*
G01*
X148516735Y-81538803D01*
X148554783Y-81544584D01*
X148588592Y-81552361D01*
X148617573Y-81561938D01*
X148641138Y-81573121D01*
X148658699Y-81585715D01*
X148669666Y-81599524D01*
X148673453Y-81614354D01*
X148672403Y-81622404D01*
X148667587Y-81631228D01*
X148657513Y-81641559D01*
X148638705Y-81655327D01*
X148612054Y-81668092D01*
X148578878Y-81678365D01*
X148538679Y-81686331D01*
X148523891Y-81688665D01*
X148510361Y-81690831D01*
X148501567Y-81692273D01*
X148495610Y-81692883D01*
X148481189Y-81693368D01*
X148461620Y-81693387D01*
X148438495Y-81692997D01*
X148413402Y-81692257D01*
X148387931Y-81691226D01*
X148363671Y-81689962D01*
X148342212Y-81688524D01*
X148325144Y-81686971D01*
X148314056Y-81685361D01*
X148309347Y-81684343D01*
X148278701Y-81677017D01*
X148254303Y-81669622D01*
X148234792Y-81661612D01*
X148218807Y-81652440D01*
X148204988Y-81641559D01*
X148196147Y-81632729D01*
X148190580Y-81623830D01*
X148189048Y-81614354D01*
X148192677Y-81599829D01*
X148203499Y-81585997D01*
X148220925Y-81573375D01*
X148244368Y-81562160D01*
X148273240Y-81552546D01*
X148306953Y-81544729D01*
X148344918Y-81538904D01*
X148386546Y-81535266D01*
X148431250Y-81534010D01*
X148475035Y-81535214D01*
G37*
%LPC*%
D11*
X243812250Y-73025000D03*
X61384250Y-111125000D03*
X51990250Y-73025000D03*
X148431250Y-73025000D03*
X234156250Y-111125000D03*
M02*
